<?xml version="1.0" encoding="UTF-8"?>
<svg id="Layer_2" data-name="Layer 2" xmlns="http://www.w3.org/2000/svg" xmlns:xlink="http://www.w3.org/1999/xlink" viewBox="0 0 872.28 622.65">
  <defs>
    <style>
      .cls-1 {
        fill: #c8e3dc;
      }

      .cls-1, .cls-2 {
        stroke-width: 0px;
      }

      .cls-2 {
        fill: none;
      }

      .cls-3 {
        clip-path: url(#clippath);
      }

      .cls-4 {
        clip-path: url(#clippath-5);
      }
    </style>
    <clipPath id="clippath">
      <rect class="cls-2" x="13.73" width="841.89" height="595.28"/>
    </clipPath>
    <clipPath id="clippath-5">
      <rect class="cls-2" x="13.73" width="841.89" height="595.28"/>
    </clipPath>
  </defs>
  <g id="Layer_1-2" data-name="Layer 1">
    <g class="cls-3">
      <g class="cls-4">
        <g>
          <path class="cls-1" d="m740.79,532.82c-4.91,0-9.82,1.87-13.56,5.62-7.49,7.49-7.49,19.63,0,27.12,3.74,3.74,8.65,5.62,13.56,5.62s9.82-1.87,13.56-5.62c7.49-7.49,7.49-19.63,0-27.12-3.74-3.74-8.65-5.62-13.56-5.62m0,31.42c-3.13,0-6.26-1.19-8.65-3.58-4.78-4.78-4.78-12.53,0-17.31,2.39-2.39,5.52-3.58,8.65-3.58s6.26,1.19,8.65,3.58c4.78,4.78,4.78,12.53,0,17.31-2.39,2.39-5.52,3.58-8.65,3.58"/>
          <path class="cls-1" d="m744.26,510h-5.88c-1.85,0-3.36,6.66-3.36,8.5v.16c-4.73.82-9.33,2.65-13.45,5.47-1.26-1.17-5.42-3.81-7.43-3.81-.36,0-.65.08-.85.28l-4.16,4.16c-1.27,1.27,2.14,6.78,3.53,8.27-2.88,4.2-4.72,8.89-5.52,13.72-2.94.53-7.06,1.7-7.06,3.05v5.88c0,1.57,4.69,2.89,7.23,3.26.88,4.49,2.66,8.84,5.35,12.76-1.38,1.49-4.8,7-3.53,8.28l4.16,4.16c.19.19.48.28.84.28,2.01,0,6.16-2.63,7.43-3.81,4.12,2.83,8.73,4.66,13.47,5.48.19,2.27,1.62,7.89,3.34,7.89h5.88c1.51,0,2.79-5.12,3.21-8.01,4.5-.88,8.85-2.66,12.77-5.35h0c1.11,1.11,5.35,3.81,7.41,3.81.37,0,.67-.09.87-.28l4.16-4.15c1.1-1.11-1.86-5.94-3.59-8.19,2.7-3.91,4.49-8.25,5.38-12.74h1.09c1.85,0,8.5-1.51,8.5-3.36v-5.88c0-1.85-6.65-3.36-8.5-3.36h-.96c-.82-4.72-2.65-9.31-5.47-13.41h0c1.31-1.31,4.83-6.97,3.53-8.28l-4.16-4.16c-.17-.17-.42-.24-.73-.24-1.77,0-5.55,2.36-7.46,3.83-3.9-2.69-8.23-4.49-12.71-5.38v-.31c0-1.85-1.51-8.5-3.36-8.5m-3.35,68.87c-6.78,0-13.56-2.59-18.74-7.76-10.35-10.35-10.35-27.13,0-37.48,5.17-5.17,11.96-7.76,18.74-7.76s13.56,2.59,18.74,7.76c10.35,10.35,10.35,27.13,0,37.48-5.18,5.17-11.96,7.76-18.74,7.76"/>
          <path class="cls-1" d="m348.01,558.22c-4.91,0-9.82,1.87-13.56,5.62-7.49,7.49-7.49,19.63,0,27.12,3.74,3.74,8.65,5.62,13.56,5.62s9.81-1.87,13.56-5.62c7.49-7.49,7.49-19.63,0-27.12-3.74-3.74-8.65-5.62-13.56-5.62m0,31.41c-3.13,0-6.26-1.19-8.65-3.58-4.78-4.78-4.78-12.53,0-17.31,2.39-2.39,5.52-3.58,8.65-3.58s6.26,1.19,8.65,3.58c4.78,4.78,4.78,12.53,0,17.31-2.39,2.39-5.52,3.59-8.65,3.59"/>
          <path class="cls-1" d="m351.47,535.41h-5.88c-1.85,0-3.36,6.66-3.36,8.5v.16c-4.74.82-9.33,2.65-13.45,5.47-1.26-1.17-5.42-3.81-7.43-3.81-.36,0-.65.08-.85.28l-4.16,4.16c-1.27,1.27,2.14,6.78,3.53,8.27-2.88,4.2-4.72,8.89-5.52,13.72-2.94.53-7.06,1.7-7.06,3.06v5.88c0,1.57,4.69,2.89,7.23,3.26.88,4.49,2.66,8.84,5.35,12.76-1.38,1.49-4.8,7-3.53,8.28l4.16,4.16c.19.19.48.28.85.28,2.01,0,6.16-2.63,7.43-3.81,4.12,2.83,8.73,4.66,13.47,5.48.19,2.27,1.62,7.89,3.33,7.89h5.88c1.51,0,2.79-5.12,3.21-8.02,4.5-.88,8.85-2.66,12.77-5.35h0c1.11,1.11,5.35,3.81,7.41,3.81.37,0,.67-.09.87-.29l4.16-4.15c1.11-1.11-1.86-5.94-3.59-8.19,2.7-3.91,4.49-8.25,5.38-12.74h1.09c1.85,0,8.5-1.51,8.5-3.36v-5.88c0-1.85-6.65-3.36-8.5-3.36h-.96c-.83-4.72-2.65-9.31-5.47-13.41h0c1.31-1.31,4.83-6.97,3.53-8.28l-4.16-4.16c-.17-.17-.42-.24-.73-.24-1.77,0-5.55,2.36-7.46,3.83-3.9-2.69-8.24-4.49-12.71-5.38v-.31c0-1.85-1.51-8.5-3.36-8.5m-3.35,68.87c-6.78,0-13.56-2.59-18.74-7.76-10.35-10.35-10.35-27.13,0-37.48,5.17-5.17,11.96-7.76,18.74-7.76s13.57,2.59,18.74,7.76c10.35,10.35,10.35,27.13,0,37.48-5.18,5.18-11.96,7.76-18.74,7.76"/>
          <path class="cls-1" d="m81.86,536.18c-3.87,0-7.76,1.16-11.15,3.59-8.61,6.17-10.59,18.14-4.43,26.76,3.74,5.23,9.63,8.01,15.61,8.01,3.86,0,7.77-1.16,11.15-3.59,8.61-6.17,10.59-18.14,4.43-26.76-3.74-5.23-9.63-8.01-15.61-8.01m.03,31.42c-3.81,0-7.57-1.78-9.96-5.11-3.93-5.5-2.67-13.14,2.83-17.08,2.16-1.55,4.65-2.29,7.11-2.29,3.82,0,7.57,1.78,9.96,5.11,3.93,5.5,2.67,13.14-2.83,17.08-2.16,1.55-4.65,2.29-7.12,2.29"/>
          <path class="cls-1" d="m86.25,513.31c-1.81,0-4.28,6.07-4.57,7.85l-.03.16c-4.81.04-9.64,1.09-14.16,3.2-1.11-1.44-5.12-5-7.01-5-.23,0-.42.05-.58.16l-4.78,3.42c-1.46,1.05,1.01,7.04,2.13,8.74-3.53,3.67-6.11,8-7.69,12.64-2.99.04-7.24.53-7.46,1.86l-.96,5.8c-.25,1.55,4.15,3.62,6.6,4.4.13,4.57,1.18,9.16,3.19,13.46-1.61,1.24-5.88,6.13-4.84,7.59l3.42,4.78c.23.32.69.45,1.29.45,2.16,0,6.12-1.7,7.45-2.58,3.6,3.47,7.85,6.02,12.39,7.6-.18,2.27.31,8.05,2,8.33l5.8.96h.11c1.48,0,3.5-4.68,4.37-7.39,4.58-.13,9.17-1.18,13.47-3.19h0c.96,1.34,5.06,5,7,5,.23,0,.43-.05.59-.17l4.78-3.42c1.27-.91-.86-6.16-2.2-8.67,3.3-3.41,5.78-7.41,7.39-11.69l1.08.18c.35.06.9.09,1.54.09,2.68,0,7.15-.55,7.4-2.02l.96-5.8c.3-1.82-6.01-4.4-7.84-4.7l-.94-.16c-.04-4.8-1.09-9.62-3.2-14.13h0c1.5-1.08,5.91-6.09,4.83-7.59l-3.42-4.78c-.19-.27-.59-.39-1.12-.39-1.92,0-5.58,1.54-7.55,2.59-3.41-3.29-7.39-5.77-11.67-7.38l.05-.31c.3-1.82-.1-8.63-1.93-8.93l-5.8-.96h-.13m-4.27,68.73c-8.26,0-16.4-3.85-21.57-11.07-8.52-11.9-5.78-28.45,6.12-36.97,4.67-3.35,10.06-4.96,15.4-4.96,8.26,0,16.4,3.85,21.57,11.07,8.52,11.9,5.78,28.45-6.12,36.97-4.67,3.35-10.07,4.96-15.41,4.96"/>
          <path class="cls-1" d="m684.41,560.79h-4.05c-1.27,0-2.32,4.59-2.32,5.86v.11c-3.26.57-6.43,1.83-9.27,3.77-.87-.81-3.73-2.62-5.12-2.62-.25,0-.45.06-.58.19l-2.86,2.87c-.88.88,1.48,4.67,2.43,5.7-1.98,2.89-3.25,6.13-3.8,9.46-2.02.37-4.86,1.17-4.86,2.11v4.05c0,1.08,3.23,2,4.98,2.25.6,3.1,1.83,6.09,3.68,8.79-.95,1.02-3.31,4.83-2.43,5.7l2.86,2.87c.13.13.34.19.58.19,1.38,0,4.25-1.82,5.12-2.62,2.84,1.95,6.01,3.21,9.28,3.77.13,1.57,1.12,5.44,2.3,5.44h4.05c1.04,0,1.92-3.53,2.22-5.52,3.1-.6,6.1-1.83,8.8-3.69h0c.76.76,3.69,2.63,5.11,2.63.26,0,.46-.06.6-.2l2.86-2.87c.76-.76-1.28-4.09-2.47-5.65,1.86-2.69,3.1-5.69,3.71-8.78h.75c1.27,0,5.86-1.04,5.86-2.32v-4.05c0-1.27-4.59-2.31-5.86-2.31h-.66c-.57-3.26-1.83-6.42-3.77-9.25h0c.9-.9,3.33-4.8,2.43-5.7l-2.86-2.87c-.12-.11-.29-.17-.5-.17-1.22,0-3.82,1.62-5.14,2.64-2.69-1.86-5.68-3.09-8.76-3.7v-.22c0-1.27-1.04-5.85-2.32-5.85m-2.31,47.46c-4.67,0-9.35-1.78-12.91-5.35-7.13-7.13-7.13-18.7,0-25.83,3.57-3.57,8.24-5.35,12.91-5.35s9.35,1.78,12.91,5.35c7.13,7.13,7.13,18.69,0,25.83-3.57,3.57-8.24,5.35-12.91,5.35"/>
          <path class="cls-1" d="m682.27,577.4c-6.81,0-12.33,5.52-12.33,12.33s5.52,12.33,12.33,12.33,12.33-5.52,12.33-12.33-5.52-12.33-12.33-12.33"/>
          <path class="cls-1" d="m672.09,507.24h-4.05c-1.27,0-2.31,4.59-2.31,5.86v.11c-3.26.57-6.43,1.82-9.27,3.77-.87-.81-3.73-2.63-5.12-2.63-.25,0-.45.06-.58.19l-2.86,2.86c-.88.88,1.48,4.68,2.43,5.7-1.98,2.89-3.25,6.12-3.8,9.46-2.02.37-4.86,1.17-4.86,2.11v4.05c0,1.08,3.23,2,4.98,2.25.6,3.1,1.83,6.09,3.68,8.79-.95,1.02-3.31,4.82-2.43,5.7l2.86,2.86c.13.13.34.19.58.19,1.38,0,4.25-1.82,5.12-2.62,2.84,1.95,6.01,3.21,9.28,3.77.13,1.57,1.12,5.44,2.3,5.44h4.05c1.04,0,1.92-3.53,2.21-5.53,3.1-.6,6.1-1.83,8.8-3.69h0c.76.76,3.69,2.63,5.11,2.63.26,0,.46-.06.6-.2l2.86-2.86c.76-.76-1.28-4.09-2.47-5.64,1.86-2.69,3.1-5.69,3.71-8.78h.75c1.27,0,5.86-1.04,5.86-2.32v-4.05c0-1.28-4.58-2.32-5.86-2.32h-.66c-.57-3.26-1.83-6.42-3.77-9.24h0c.9-.9,3.33-4.81,2.43-5.71l-2.86-2.86c-.12-.11-.29-.17-.5-.17-1.22,0-3.82,1.62-5.14,2.64-2.69-1.86-5.68-3.09-8.76-3.71v-.22c0-1.27-1.04-5.85-2.32-5.85m-2.31,47.46c-4.67,0-9.35-1.78-12.91-5.35-7.13-7.13-7.13-18.7,0-25.83,3.57-3.57,8.24-5.35,12.91-5.35s9.35,1.78,12.91,5.35c7.13,7.13,7.13,18.69,0,25.83-3.57,3.57-8.24,5.35-12.91,5.35"/>
          <path class="cls-1" d="m101.52,459.43h-4.05c-1.27,0-2.32,4.59-2.32,5.86v.11c-3.26.57-6.43,1.82-9.27,3.77-.87-.81-3.73-2.62-5.12-2.62-.25,0-.45.06-.59.19l-2.86,2.86c-.88.88,1.48,4.67,2.43,5.7-1.98,2.89-3.25,6.12-3.8,9.46-2.02.37-4.87,1.17-4.87,2.11v4.05c0,1.08,3.23,2,4.98,2.25.6,3.1,1.83,6.09,3.68,8.79-.95,1.02-3.31,4.82-2.43,5.7l2.87,2.86c.13.13.33.19.58.19,1.38,0,4.25-1.82,5.12-2.62,2.84,1.95,6.01,3.21,9.28,3.77.13,1.57,1.11,5.44,2.3,5.44h4.05c1.04,0,1.92-3.53,2.21-5.53,3.1-.6,6.1-1.83,8.8-3.69h0c.76.76,3.69,2.63,5.11,2.63.25,0,.46-.06.6-.2l2.86-2.86c.76-.76-1.28-4.09-2.47-5.64,1.86-2.69,3.1-5.69,3.71-8.78h.75c1.27,0,5.86-1.04,5.86-2.32v-4.05c0-1.28-4.58-2.32-5.86-2.32h-.66c-.57-3.26-1.82-6.42-3.77-9.25h0c.9-.9,3.33-4.81,2.43-5.71l-2.86-2.86c-.12-.11-.29-.17-.5-.17-1.22,0-3.82,1.62-5.14,2.64-2.69-1.86-5.68-3.09-8.76-3.71v-.22c0-1.27-1.04-5.86-2.32-5.86m-2.31,47.46c-4.67,0-9.35-1.78-12.91-5.35-7.13-7.13-7.13-18.69,0-25.83,3.57-3.57,8.24-5.35,12.92-5.35s9.35,1.78,12.91,5.35c7.13,7.13,7.13,18.69,0,25.83-3.57,3.57-8.24,5.35-12.91,5.35"/>
          <path class="cls-1" d="m223.67,478.3h-4.05c-1.27,0-2.32,4.59-2.32,5.86v.11c-3.26.57-6.43,1.82-9.27,3.77-.87-.81-3.73-2.62-5.12-2.62-.25,0-.45.06-.59.19l-2.86,2.86c-.88.88,1.48,4.67,2.43,5.7-1.99,2.89-3.25,6.12-3.8,9.46-2.02.37-4.87,1.17-4.87,2.11v4.05c0,1.08,3.23,2,4.99,2.25.6,3.1,1.83,6.09,3.68,8.79-.95,1.03-3.31,4.83-2.43,5.7l2.86,2.86c.13.13.34.19.58.19,1.38,0,4.25-1.82,5.12-2.62,2.84,1.95,6.01,3.21,9.28,3.77.13,1.57,1.12,5.44,2.3,5.44h4.05c1.04,0,1.92-3.53,2.21-5.53,3.1-.6,6.1-1.83,8.8-3.69h0c.76.76,3.68,2.63,5.1,2.63.26,0,.46-.06.6-.2l2.87-2.86c.76-.76-1.28-4.09-2.47-5.65,1.86-2.69,3.1-5.69,3.71-8.78h.75c1.27,0,5.86-1.04,5.86-2.32v-4.05c0-1.28-4.58-2.32-5.86-2.32h-.66c-.57-3.26-1.82-6.42-3.77-9.25h0c.9-.9,3.33-4.81,2.43-5.71l-2.87-2.86c-.11-.11-.29-.17-.5-.17-1.22,0-3.82,1.62-5.14,2.64-2.69-1.86-5.67-3.09-8.76-3.71v-.22c0-1.27-1.04-5.85-2.32-5.85m-2.31,47.46c-4.67,0-9.35-1.78-12.91-5.35-7.13-7.13-7.13-18.7,0-25.83,3.57-3.57,8.24-5.35,12.92-5.35s9.35,1.78,12.91,5.35c7.13,7.13,7.13,18.69,0,25.83-3.57,3.57-8.24,5.35-12.91,5.35"/>
          <path class="cls-1" d="m753.34,453.5h-4.05c-1.27,0-2.31,4.59-2.31,5.86v.11c-3.26.57-6.43,1.82-9.27,3.77-.87-.81-3.73-2.62-5.12-2.62-.25,0-.45.06-.59.19l-2.86,2.86c-.88.88,1.48,4.67,2.43,5.7-1.98,2.89-3.25,6.13-3.8,9.46-2.02.37-4.86,1.17-4.86,2.11v4.05c0,1.08,3.23,2,4.98,2.25.6,3.1,1.83,6.09,3.68,8.79-.95,1.02-3.31,4.82-2.43,5.7l2.86,2.86c.13.13.33.19.58.19,1.38,0,4.25-1.82,5.12-2.62,2.84,1.95,6.01,3.21,9.28,3.77.13,1.57,1.12,5.44,2.3,5.44h4.05c1.04,0,1.92-3.53,2.22-5.53,3.1-.6,6.1-1.83,8.8-3.69h0c.76.76,3.69,2.63,5.11,2.63.26,0,.46-.06.6-.2l2.86-2.86c.76-.76-1.28-4.09-2.47-5.65,1.86-2.69,3.1-5.69,3.71-8.78h.75c1.27,0,5.86-1.04,5.86-2.32v-4.05c0-1.27-4.58-2.31-5.86-2.31h-.66c-.57-3.26-1.82-6.42-3.77-9.25h0c.9-.9,3.33-4.8,2.43-5.71l-2.86-2.86c-.12-.11-.29-.17-.5-.17-1.22,0-3.82,1.62-5.14,2.64-2.69-1.86-5.67-3.09-8.76-3.71v-.22c0-1.27-1.04-5.86-2.32-5.86m-2.31,47.46c-4.67,0-9.35-1.78-12.91-5.35-7.13-7.13-7.13-18.7,0-25.83,3.57-3.57,8.24-5.35,12.91-5.35s9.35,1.78,12.91,5.35c7.13,7.13,7.13,18.69,0,25.83-3.57,3.57-8.24,5.35-12.91,5.35"/>
          <path class="cls-1" d="m816.05,367.95h-4.05c-1.27,0-2.31,4.59-2.31,5.86v.11c-3.26.57-6.43,1.82-9.27,3.77-.87-.81-3.73-2.62-5.12-2.62-.25,0-.45.06-.59.19l-2.86,2.87c-.88.88,1.48,4.67,2.43,5.7-1.98,2.89-3.25,6.12-3.8,9.46-2.02.37-4.86,1.17-4.86,2.11v4.05c0,1.08,3.23,2,4.98,2.25.6,3.1,1.83,6.09,3.68,8.79-.95,1.02-3.31,4.83-2.43,5.7l2.86,2.86c.13.13.33.19.58.19,1.38,0,4.25-1.82,5.12-2.63,2.84,1.95,6.01,3.21,9.28,3.77.13,1.57,1.12,5.44,2.3,5.44h4.05c1.04,0,1.92-3.53,2.22-5.53,3.1-.6,6.1-1.83,8.8-3.69h0c.76.76,3.69,2.63,5.11,2.63.26,0,.46-.06.6-.2l2.86-2.86c.76-.76-1.28-4.09-2.47-5.65,1.86-2.69,3.1-5.69,3.71-8.78h.75c1.27,0,5.86-1.04,5.86-2.32v-4.05c0-1.28-4.58-2.32-5.86-2.32h-.66c-.57-3.26-1.82-6.42-3.77-9.24h0c.9-.9,3.33-4.81,2.43-5.71l-2.86-2.87c-.12-.11-.29-.16-.5-.16-1.22,0-3.82,1.62-5.14,2.64-2.69-1.86-5.67-3.09-8.76-3.71v-.22c0-1.27-1.04-5.85-2.32-5.85m-2.31,47.46c-4.67,0-9.35-1.78-12.91-5.35-7.13-7.13-7.13-18.69,0-25.83,3.57-3.57,8.24-5.35,12.91-5.35s9.35,1.78,12.91,5.35c7.13,7.13,7.13,18.69,0,25.83-3.57,3.57-8.24,5.35-12.91,5.35"/>
          <path class="cls-1" d="m846.34,416.61c-1.06,0-2.55,3.45-3.12,5.27-3.27.02-6.42.73-9.3,2l-.12-.18c-.66-.94-3.53-3.57-4.87-3.57-.15,0-.28.03-.39.11l-3.32,2.33c-1.04.73.74,5.08,1.47,6.13l.06.09c-2.35,2.34-4.22,5.19-5.42,8.41-.27-.04-.66-.06-1.1-.06-1.86,0-4.79.36-4.96,1.34l-.7,3.99c-.21,1.22,3.89,2.98,5.27,3.27.03,3.51.85,6.88,2.32,9.93-1.45,1.46-3.31,3.75-2.77,4.52l2.32,3.32c.16.23.5.33.94.33,1.23,0,3.27-.76,4.43-1.35,2.27,2.19,5,3.93,8.07,5.08-.19,1.39.06,5.85,1.28,6.06l3.99.7h.09c1.21,0,2.89-3.94,3.18-5.27,3.45-.04,6.76-.83,9.77-2.24.89,1.07,3.38,3.24,4.61,3.24.15,0,.29-.04.4-.11l3.32-2.33c.85-.6-.45-4-1.36-5.79,2.19-2.27,3.94-5,5.09-8.07h0c.26.05.67.07,1.15.07,1.83,0,4.74-.36,4.91-1.36l.7-3.99c.19-1.06-3.4-2.62-5.27-3.2-.02-3.28-.73-6.44-2.01-9.32l.62-.43c1.04-.73,4.2-4.22,3.47-5.26l-2.33-3.32c-.16-.23-.49-.32-.92-.32-1.55,0-4.39,1.21-5.21,1.79l-.54.38c-2.33-2.34-5.18-4.2-8.39-5.4h0c.22-1.26-.03-5.85-1.28-6.07l-3.99-.7h-.08m-2.9,47.12c-1.05,0-2.11-.09-3.18-.28-9.93-1.74-16.57-11.21-14.83-21.14,1.56-8.87,9.26-15.11,17.97-15.11,1.05,0,2.11.09,3.18.28,9.93,1.74,16.57,11.21,14.83,21.14-1.55,8.87-9.26,15.11-17.96,15.11"/>
          <path class="cls-1" d="m254.65,526.02c-.1,0-.19.01-.28.04l-6.17,2c-1.94.63-1.26,8.14-.63,10.08l.05.16c-4.7,2.48-8.9,5.96-12.26,10.33-1.39-.65-5.1-1.66-7.59-1.66-1.14,0-2.02.21-2.31.77l-2.95,5.78c-.9,1.77,4.56,6.4,6.53,7.49-1.6,5.39-1.93,10.94-1.12,16.3-2.9,1.56-6.83,4.19-6.37,5.61l2,6.17c.32.98,2.35,1.31,4.53,1.31,1.49,0,3.04-.15,4.17-.35,2.45,4.42,5.81,8.38,9.96,11.58-.94,2.03-2.66,8.99-.89,9.9l5.78,2.95c.13.07.28.1.45.1,2,0,6.03-4.81,7.04-6.63,3.51,1.04,7.1,1.54,10.66,1.54,1.8,0,3.59-.13,5.35-.38.93,2.21,4.05,7.2,5.91,7.2.1,0,.19-.01.29-.04l6.17-2c1.58-.52,1.18-6.34.64-9.52,4.42-2.45,8.39-5.81,11.59-9.97h0c1.25.64,5,1.67,7.54,1.67,1.16,0,2.07-.22,2.36-.79l2.95-5.78c.78-1.54-3.98-5.6-6.56-7.38,1.5-5.03,1.91-10.2,1.31-15.22l1.14-.37c1.94-.63,8.42-4.49,7.79-6.43l-2.01-6.17c-.31-.96-2.31-1.28-4.49-1.28s-4.61.33-5.58.65l-1.01.33c-2.48-4.68-5.95-8.88-10.31-12.23h0c.93-1.82,2.7-8.97.88-9.9l-5.78-2.95c-.11-.06-.24-.09-.38-.09-1.75,0-5.35,4.25-7,6.65-3.55-1.06-7.17-1.58-10.76-1.58-1.48,0-2.96.09-4.42.26l-.11-.33c-.6-1.85-4.13-7.82-6.14-7.82m10.62,74.96c-4.47,0-9.02-1.03-13.27-3.2-14.4-7.34-20.12-24.97-12.77-39.36,5.17-10.14,15.44-15.97,26.09-15.97,4.47,0,9.01,1.03,13.27,3.2,14.4,7.34,20.12,24.97,12.77,39.37-5.17,10.14-15.44,15.97-26.09,15.97"/>
          <path class="cls-1" d="m265.1,550.3c-2.11,0-4.25.33-6.36,1.01-10.82,3.51-16.75,15.13-13.24,25.95,2.82,8.71,10.9,14.25,19.59,14.25,2.11,0,4.25-.33,6.36-1.01,10.82-3.51,16.75-15.13,13.24-25.95-2.83-8.71-10.9-14.25-19.59-14.25"/>
          <path class="cls-1" d="m549.24,522.65h-4.05c-1.27,0-2.31,4.59-2.31,5.86v.11c-3.26.57-6.43,1.82-9.27,3.77-.87-.81-3.73-2.62-5.12-2.62-.25,0-.45.06-.59.19l-2.86,2.86c-.88.88,1.48,4.67,2.43,5.7-1.98,2.89-3.25,6.13-3.8,9.46-2.02.37-4.87,1.17-4.87,2.11v4.05c0,1.08,3.23,2,4.99,2.25.6,3.1,1.83,6.09,3.68,8.79-.95,1.02-3.31,4.83-2.43,5.7l2.86,2.86c.13.13.33.19.58.19,1.39,0,4.25-1.82,5.12-2.62,2.84,1.95,6.01,3.21,9.28,3.77.13,1.57,1.12,5.44,2.3,5.44h4.05c1.04,0,1.92-3.53,2.22-5.53,3.1-.6,6.1-1.83,8.8-3.69h0c.76.76,3.68,2.63,5.11,2.63.25,0,.46-.06.6-.2l2.86-2.86c.76-.76-1.28-4.09-2.47-5.64,1.86-2.69,3.1-5.69,3.71-8.78h.75c1.27,0,5.86-1.04,5.86-2.32v-4.05c0-1.28-4.59-2.32-5.86-2.32h-.66c-.57-3.26-1.82-6.42-3.77-9.24h0c.9-.9,3.33-4.81,2.43-5.71l-2.87-2.86c-.11-.11-.29-.17-.5-.17-1.22,0-3.82,1.62-5.14,2.64-2.69-1.86-5.67-3.09-8.76-3.71v-.22c0-1.27-1.04-5.85-2.32-5.85m-2.31,47.46c-4.67,0-9.35-1.78-12.91-5.35-7.13-7.13-7.13-18.7,0-25.83,3.57-3.57,8.24-5.35,12.91-5.35s9.35,1.78,12.91,5.35c7.13,7.13,7.13,18.69,0,25.83-3.57,3.57-8.24,5.35-12.91,5.35"/>
          <path class="cls-1" d="m607.88,537.3v16c14.71,0,26.67,11.96,26.67,26.67s-11.97,26.68-26.67,26.68-26.68-11.97-26.68-26.68h-16.01c0,23.57,19.11,42.68,42.68,42.68s42.68-19.11,42.68-42.68-19.11-42.68-42.68-42.68"/>
          <path class="cls-1" d="m607.88,559.75c-11.17,0-20.23,9.06-20.23,20.23s9.06,20.23,20.23,20.23,20.23-9.06,20.23-20.23-9.06-20.23-20.23-20.23"/>
          <path class="cls-1" d="m820.1,525.26v16c14.71,0,26.67,11.96,26.67,26.67s-11.97,26.68-26.67,26.67c-14.71,0-26.68-11.97-26.68-26.67h-16.01c0,23.57,19.11,42.68,42.68,42.68s42.68-19.11,42.68-42.68-19.11-42.68-42.68-42.68"/>
          <path class="cls-1" d="m820.1,547.71c-11.17,0-20.23,9.06-20.23,20.23s9.06,20.23,20.23,20.23,20.23-9.06,20.23-20.23-9.06-20.23-20.23-20.23"/>
          <path class="cls-1" d="m439.81,533.12c-22.3,0-40.38,18.08-40.38,40.38s18.08,40.38,40.38,40.38v-15.14c-13.92,0-25.24-11.32-25.24-25.24s11.32-25.24,25.24-25.24,25.24,11.32,25.24,25.24h15.14c0-22.3-18.08-40.38-40.38-40.38"/>
          <path class="cls-1" d="m439.81,554.36c-10.57,0-19.14,8.57-19.14,19.14s8.57,19.14,19.14,19.14,19.14-8.57,19.14-19.14-8.57-19.14-19.14-19.14"/>
          <path class="cls-1" d="m596.6,495.02c-15.26,0-27.64,12.37-27.64,27.63s12.37,27.63,27.64,27.63v-10.36c-9.53,0-17.27-7.75-17.27-17.27s7.75-17.27,17.27-17.27,17.27,7.75,17.27,17.27h10.36c0-15.26-12.38-27.64-27.64-27.64"/>
          <path class="cls-1" d="m596.6,509.55c-7.23,0-13.1,5.86-13.1,13.1s5.87,13.1,13.1,13.1,13.1-5.87,13.1-13.1-5.86-13.1-13.1-13.1"/>
          <path class="cls-1" d="m42.71,402.21c-16.91,0-32.91,10.11-39.61,26.76-8.8,21.87,1.8,46.72,23.67,55.52l5.97-14.85c-13.65-5.49-20.28-21.05-14.79-34.7,4.18-10.39,14.21-16.72,24.78-16.72,3.31,0,6.67.62,9.92,1.93,13.65,5.49,20.28,21.06,14.79,34.7l14.85,5.97c8.8-21.87-1.8-46.73-23.67-55.52-5.22-2.1-10.61-3.1-15.92-3.1"/>
          <path class="cls-1" d="m42.71,424.66c-8.01,0-15.6,4.79-18.77,12.68-4.17,10.37.85,22.15,11.22,26.32,2.47,1,5.03,1.47,7.54,1.47,8.01,0,15.6-4.79,18.77-12.69,4.17-10.37-.85-22.15-11.22-26.32-2.47-1-5.03-1.47-7.54-1.47"/>
          <path class="cls-1" d="m42.08,476.66l-3.87,9.61c8.84,3.56,13.13,13.63,9.58,22.47-2.71,6.73-9.2,10.83-16.04,10.83-2.14,0-4.32-.4-6.43-1.25-8.83-3.55-13.13-13.64-9.58-22.47l-9.61-3.87c-5.7,14.16,1.17,30.26,15.33,35.95,3.38,1.36,6.87,2,10.31,2,10.95,0,21.31-6.55,25.65-17.33,5.7-14.16-1.17-30.25-15.33-35.95"/>
          <path class="cls-1" d="m31.77,489.19c-5.19,0-10.1,3.11-12.16,8.21-2.7,6.71.55,14.34,7.26,17.04,1.6.64,3.26.95,4.89.95,5.19,0,10.1-3.1,12.16-8.21,2.7-6.71-.55-14.34-7.26-17.04-1.6-.65-3.26-.95-4.88-.95"/>
          <path class="cls-1" d="m145.06,562.94c-2.9,0-5.86.46-8.76,1.43-14.48,4.84-22.29,20.49-17.46,34.97,3.87,11.57,14.64,18.88,26.2,18.88,2.9,0,5.86-.46,8.76-1.43l-3.28-9.83c-1.81.6-3.65.89-5.46.89-7.23,0-13.98-4.58-16.39-11.8-3.02-9.03,1.88-18.84,10.91-21.86,1.81-.6,3.65-.89,5.46-.89,7.23,0,13.98,4.58,16.4,11.8l9.83-3.28c-3.87-11.57-14.65-18.88-26.21-18.88"/>
          <path class="cls-1" d="m145.06,577.47c-1.38,0-2.78.22-4.15.68-6.86,2.29-10.57,9.71-8.27,16.57,1.83,5.48,6.94,8.95,12.42,8.95,1.38,0,2.78-.22,4.15-.68,6.86-2.29,10.57-9.71,8.27-16.57-1.83-5.48-6.94-8.95-12.42-8.95"/>
          <path class="cls-1" d="m811.94,482.44c-15.26,0-27.64,12.37-27.64,27.63s12.37,27.63,27.64,27.63v-10.36c-9.52,0-17.27-7.75-17.27-17.27s7.75-17.27,17.27-17.27,17.27,7.75,17.27,17.27h10.36c0-15.26-12.38-27.64-27.64-27.64"/>
          <path class="cls-1" d="m811.94,496.97c-7.23,0-13.1,5.86-13.1,13.1s5.87,13.1,13.1,13.1,13.1-5.86,13.1-13.1-5.86-13.1-13.1-13.1"/>
          <path class="cls-1" d="m171.47,510.04c-2.9,0-5.86.46-8.76,1.43-14.48,4.84-22.29,20.49-17.45,34.97,3.87,11.57,14.64,18.88,26.21,18.88,2.9,0,5.86-.46,8.76-1.43l-3.28-9.83c-1.81.6-3.65.89-5.46.89-7.23,0-13.98-4.58-16.39-11.8-3.02-9.03,1.88-18.84,10.91-21.85,1.81-.6,3.65-.89,5.46-.89,7.23,0,13.98,4.58,16.4,11.8l9.83-3.28c-3.87-11.57-14.65-18.88-26.21-18.88"/>
          <path class="cls-1" d="m171.47,524.58c-1.38,0-2.78.22-4.15.68-6.86,2.29-10.57,9.71-8.27,16.57,1.83,5.48,6.94,8.95,12.42,8.95,1.38,0,2.78-.22,4.15-.68,6.86-2.29,10.56-9.71,8.27-16.57-1.83-5.48-6.94-8.95-12.42-8.95"/>
          <path class="cls-1" d="m188.66,551.65c-2.9,0-5.86.46-8.76,1.43l3.28,9.83c1.81-.6,3.65-.89,5.46-.89,7.23,0,13.98,4.57,16.39,11.8,3.02,9.03-1.88,18.84-10.91,21.85-1.81.6-3.65.89-5.46.89-7.23,0-13.98-4.58-16.4-11.8l-9.83,3.28c3.86,11.57,14.65,18.88,26.21,18.88,2.9,0,5.85-.46,8.76-1.43,14.48-4.84,22.29-20.49,17.45-34.97-3.87-11.57-14.64-18.88-26.2-18.88"/>
          <path class="cls-1" d="m188.65,566.19c-1.38,0-2.78.22-4.15.68-6.86,2.29-10.56,9.71-8.27,16.57,1.83,5.49,6.94,8.95,12.42,8.95,1.38,0,2.77-.22,4.15-.68,6.86-2.29,10.57-9.71,8.27-16.57-1.83-5.48-6.94-8.95-12.42-8.95"/>
          <path class="cls-1" d="m496.57,552.54v10.36c9.52,0,17.27,7.75,17.27,17.27s-7.75,17.27-17.27,17.27-17.27-7.75-17.27-17.27h-10.36c0,15.26,12.38,27.64,27.64,27.64s27.64-12.37,27.64-27.64-12.37-27.63-27.64-27.63"/>
          <path class="cls-1" d="m496.57,567.08c-7.23,0-13.1,5.86-13.1,13.1s5.87,13.1,13.1,13.1,13.1-5.86,13.1-13.1-5.87-13.1-13.1-13.1"/>
        </g>
      </g>
    </g>
  </g>
</svg>