<?xml version="1.0" encoding="UTF-8"?>
<svg id="Layer_2" data-name="Layer 2" xmlns="http://www.w3.org/2000/svg" xmlns:xlink="http://www.w3.org/1999/xlink" viewBox="0 0 872.3 622.7">
  <defs>
    <style>
      .cls-1 {
        fill: #c8e3dc;
      }

      .cls-1, .cls-2 {
        stroke-width: 0px;
      }

      .cls-2 {
        fill: none;
      }

      .cls-3 {
        clip-path: url(#clippath-1);
      }

      .cls-4 {
        clip-path: url(#clippath);
      }
    </style>
    <clipPath id="clippath">
      <rect class="cls-2" x="-41.4" y="-.5" width="960" height="682.2"/>
    </clipPath>
    <clipPath id="clippath-1">
      <rect class="cls-2" x="-46.4" y="-.5" width="969.9" height="698.4"/>
    </clipPath>
  </defs>
  <g id="Layer_1-2" data-name="Layer 1-2">
    <g class="cls-4">
      <g class="cls-3">
        <g>
          <path class="cls-1" d="m791.3,72.8c-5.7,0-11.3-2.2-15.6-6.6-8.6-8.8-8.6-23,0-31.8,4.3-4.4,10-6.6,15.6-6.6s11.3,2.2,15.6,6.6c8.6,8.8,8.6,23,0,31.8-4.3,4.4-10,6.6-15.6,6.6m0-36.9c-3.6,0-7.2,1.4-10,4.2-5.5,5.6-5.5,14.7,0,20.3,2.8,2.8,6.4,4.2,10,4.2s7.2-1.4,10-4.2c5.5-5.6,5.5-14.7,0-20.3-2.8-2.8-6.4-4.2-10-4.2"/>
          <path class="cls-1" d="m795.3,99.6h-6.8c-2.1,0-3.9-7.8-3.9-10v-.2c-5.4-1-10.7-3.1-15.5-6.4-1.5,1.4-6.2,4.5-8.6,4.5-.4,0-.7-.1-1-.3l-4.8-4.9c-1.5-1.5,2.5-8,4.1-9.7-3.3-4.9-5.4-10.4-6.4-16.1-3.4-.6-8.1-2-8.1-3.6v-6.9c0-1.8,5.4-3.4,8.3-3.8,1-5.3,3.1-10.4,6.2-15-1.6-1.7-5.5-8.2-4.1-9.7l4.8-4.9c.2-.2.6-.3,1-.3,2.3,0,7.1,3.1,8.6,4.5,4.7-3.3,10.1-5.5,15.5-6.4.2-2.7,1.9-9.3,3.8-9.3h6.8c1.7,0,3.2,6,3.7,9.4,5.2,1,10.2,3.1,14.7,6.3h0c1.3-1.3,6.2-4.5,8.5-4.5.4,0,.8.1,1,.3l4.8,4.9c1.3,1.3-2.1,7-4.1,9.6,3.1,4.6,5.2,9.7,6.2,14.9h1.3c2.1,0,9.8,1.8,9.8,3.9v6.9c0,2.2-7.7,3.9-9.8,3.9h-1.1c-.9,5.5-3.1,10.9-6.3,15.7h0c1.5,1.5,5.6,8.2,4.1,9.7l-4.8,4.9c-.2.2-.5.3-.8.3-2,0-6.4-2.8-8.6-4.5-4.5,3.2-9.5,5.3-14.6,6.3v.4c-.1,2.2-1.8,10.1-3.9,10.1m-3.9-80.9c-7.8,0-15.6,3-21.6,9.1-11.9,12.1-11.9,31.8,0,44,6,6.1,13.8,9.1,21.6,9.1s15.6-3,21.6-9.1c11.9-12.1,11.9-31.8,0-44-6-6-13.8-9.1-21.6-9.1"/>
          <path class="cls-1" d="m338.8,43c-5.7,0-11.3-2.2-15.6-6.6-8.6-8.8-8.6-23,0-31.8,4.3-4.4,10-6.6,15.6-6.6s11.3,2.2,15.6,6.6c8.6,8.8,8.6,23,0,31.8-4.3,4.4-10,6.6-15.6,6.6m0-36.9c-3.6,0-7.2,1.4-10,4.2-5.5,5.6-5.5,14.7,0,20.3,2.8,2.8,6.4,4.2,10,4.2s7.2-1.4,10-4.2c5.5-5.6,5.5-14.7,0-20.3-2.8-2.8-6.4-4.2-10-4.2"/>
          <path class="cls-1" d="m342.7,69.8h-6.7c-2.1,0-3.9-7.8-3.9-10v-.2c-5.5-1-10.7-3.1-15.5-6.4-1.5,1.4-6.2,4.5-8.6,4.5-.4,0-.7-.1-1-.3l-4.8-4.9c-1.5-1.5,2.5-8,4.1-9.7-3.3-4.9-5.4-10.4-6.4-16.1-3.4-.6-8.1-2-8.1-3.6v-6.9c0-1.8,5.4-3.4,8.3-3.8,1-5.3,3.1-10.4,6.2-15-1.6-1.7-5.5-8.2-4.1-9.7l4.8-4.9c.2-.2.6-.3,1-.3,2.3,0,7.1,3.1,8.6,4.5,4.7-3.3,10.1-5.5,15.5-6.4.2-2.7,1.9-9.3,3.8-9.3h6.8c1.7,0,3.2,6,3.7,9.4,5.2,1,10.2,3.1,14.7,6.3h0c1.3-1.3,6.2-4.5,8.5-4.5.4,0,.8.1,1,.3l4.8,4.9c1.3,1.3-2.1,7-4.1,9.6,3.1,4.6,5.2,9.7,6.2,14.9h1.3c2.1,0,9.8,1.8,9.8,3.9v6.9c0,2.2-7.7,3.9-9.8,3.9h-1.1c-1,5.5-3.1,10.9-6.3,15.7h0c1.5,1.5,5.6,8.2,4.1,9.7l-4.8,4.9c-.2.2-.5.3-.8.3-2,0-6.4-2.8-8.6-4.5-4.5,3.2-9.5,5.3-14.6,6.3v.4c-.1,2.2-1.9,10.1-4,10.1m-3.9-80.9c-7.8,0-15.6,3-21.6,9.1-11.9,12.1-11.9,31.8,0,44,6,6.1,13.8,9.1,21.6,9.1s15.6-3,21.6-9.1c11.9-12.1,11.9-31.8,0-44-5.9-6-13.7-9.1-21.6-9.1"/>
          <path class="cls-1" d="m32.1,68.9c-4.5,0-8.9-1.4-12.8-4.2-9.9-7.2-12.2-21.3-5.1-31.4,4.3-6.1,11.1-9.4,18-9.4,4.4,0,9,1.4,12.8,4.2,9.9,7.2,12.2,21.3,5.1,31.4-4.3,6.1-11.1,9.4-18,9.4m.1-36.9c-4.4,0-8.7,2.1-11.5,6-4.5,6.5-3.1,15.4,3.3,20,2.5,1.8,5.4,2.7,8.2,2.7,4.4,0,8.7-2.1,11.5-6,4.5-6.5,3.1-15.4-3.3-20-2.5-1.8-5.4-2.7-8.2-2.7"/>
          <path class="cls-1" d="m37.2,95.7c-2.1,0-4.9-7.1-5.3-9.2v-.2c-5.5,0-11.1-1.3-16.3-3.8-1.3,1.7-5.9,5.9-8.1,5.9-.3,0-.5-.1-.7-.2l-5.5-4c-1.7-1.2,1.2-8.3,2.5-10.2-4.1-4.3-7-9.4-8.9-14.8-3.4,0-8.3-.6-8.6-2.2l-1.1-6.8c-.3-1.8,4.8-4.2,7.6-5.2.1-5.4,1.4-10.7,3.7-15.8-1.9-1.5-6.8-7.2-5.6-8.9l3.9-5.6c.3-.4.8-.5,1.5-.5,2.5,0,7.1,2,8.6,3,4.1-4.1,9-7.1,14.3-8.9-.2-2.7.4-9.4,2.3-9.8l6.7-1.1h.1c1.7,0,4,5.5,5,8.7,5.3.2,10.6,1.4,15.5,3.7h0c1.1-1.6,5.8-5.9,8.1-5.9.3,0,.5.1.7.2l5.5,4c1.5,1.1-1,7.2-2.5,10.2,3.8,4,6.7,8.7,8.5,13.7l1.2-.2c.4-.1,1-.1,1.8-.1,3.1,0,8.2.6,8.5,2.4l1.1,6.8c.3,2.1-6.9,5.2-9,5.5l-1.1.2c0,5.6-1.3,11.3-3.7,16.6h0c1.7,1.3,6.8,7.1,5.6,8.9l-3.9,5.6c-.2.3-.7.5-1.3.5-2.2,0-6.4-1.8-8.7-3-3.9,3.9-8.5,6.8-13.4,8.7l.1.4c.3,2.1-.1,10.1-2.2,10.5l-6.7,1.1h-.2m-5-80.8c-9.5,0-18.9,4.5-24.9,13C-2.5,42.1.6,61.5,14.4,71.5c5.4,3.9,11.6,5.8,17.7,5.8,9.5,0,18.9-4.5,24.9-13,9.8-14,6.7-33.4-7.1-43.4-5.3-4-11.5-5.8-17.7-5.8"/>
          <path class="cls-1" d="m726.3,40h-4.7c-1.5,0-2.7-5.4-2.7-6.9v-.1c-3.8-.7-7.4-2.1-10.7-4.4-1,1-4.3,3.1-5.9,3.1-.3,0-.5-.1-.7-.2l-3.3-3.4c-1-1,1.7-5.5,2.8-6.7-2.3-3.4-3.7-7.2-4.4-11.1-2.3-.4-5.6-1.4-5.6-2.5V3c0-1.3,3.7-2.3,5.7-2.6.7-3.6,2.1-7.1,4.2-10.3-1.1-1.2-3.8-5.7-2.8-6.7l3.3-3.4c.1-.2.4-.2.7-.2,1.6,0,4.9,2.1,5.9,3.1,3.3-2.3,6.9-3.8,10.7-4.4.1-1.8,1.3-6.4,2.6-6.4h4.7c1.2,0,2.2,4.1,2.6,6.5,3.6.7,7,2.1,10.1,4.3h0c.9-.9,4.3-3.1,5.9-3.1.3,0,.5.1.7.2l3.3,3.4c.9.9-1.5,4.8-2.8,6.6,2.1,3.2,3.6,6.7,4.3,10.3h.9c1.5,0,6.8,1.2,6.8,2.7v4.8c0,1.5-5.3,2.7-6.8,2.7h-.8c-.7,3.8-2.1,7.5-4.3,10.9h0c1,1.1,3.8,5.6,2.8,6.7l-3.3,3.4c-.1.1-.3.2-.6.2-1.4,0-4.4-1.9-5.9-3.1-3.1,2.2-6.5,3.6-10.1,4.3v.3c.1,1.4-1.1,6.8-2.6,6.8m-2.7-55.7c-5.4,0-10.8,2.1-14.9,6.3-8.2,8.4-8.2,21.9,0,30.3,4.1,4.2,9.5,6.3,14.9,6.3s10.8-2.1,14.9-6.3c8.2-8.4,8.2-21.9,0-30.3-4.1-4.2-9.5-6.3-14.9-6.3"/>
          <path class="cls-1" d="m723.8,20.5c-7.8,0-14.2-6.5-14.2-14.5s6.4-14.4,14.2-14.4,14.2,6.5,14.2,14.5-6.3,14.4-14.2,14.4"/>
          <path class="cls-1" d="m712.1,102.8h-4.7c-1.5,0-2.7-5.4-2.7-6.9v-.1c-3.8-.7-7.4-2.1-10.7-4.4-1,1-4.3,3.1-5.9,3.1-.3,0-.5-.1-.7-.2l-3.3-3.4c-1-1,1.7-5.5,2.8-6.7-2.3-3.4-3.7-7.2-4.4-11.1-2.3-.4-5.6-1.4-5.6-2.5v-4.8c0-1.3,3.7-2.3,5.7-2.6.7-3.6,2.1-7.1,4.2-10.3-1.1-1.2-3.8-5.7-2.8-6.7l3.3-3.4c.1-.2.4-.2.7-.2,1.6,0,4.9,2.1,5.9,3.1,3.3-2.3,6.9-3.8,10.7-4.4.1-1.8,1.3-6.4,2.6-6.4h4.7c1.2,0,2.2,4.1,2.5,6.5,3.6.7,7,2.1,10.1,4.3h0c.9-.9,4.3-3.1,5.9-3.1.3,0,.5.1.7.2l3.3,3.4c.9.9-1.5,4.8-2.8,6.6,2.1,3.2,3.6,6.7,4.3,10.3h.9c1.5,0,6.8,1.2,6.8,2.7v4.8c0,1.5-5.3,2.7-6.8,2.7h-.8c-.7,3.8-2.1,7.5-4.3,10.8h0c1,1.1,3.8,5.6,2.8,6.7l-3.3,3.4c-.1.1-.3.2-.6.2-1.4,0-4.4-1.9-5.9-3.1-3.1,2.2-6.5,3.6-10.1,4.4v.3c.2,1.5-1,6.8-2.5,6.8m-2.7-55.6c-5.4,0-10.8,2.1-14.9,6.3-8.2,8.4-8.2,21.9,0,30.3,4.1,4.2,9.5,6.3,14.9,6.3s10.8-2.1,14.9-6.3c8.2-8.4,8.2-21.9,0-30.3-4.1-4.3-9.5-6.3-14.9-6.3"/>
          <path class="cls-1" d="m54.8,158.9h-4.7c-1.5,0-2.7-5.4-2.7-6.9v-.1c-3.8-.7-7.4-2.1-10.7-4.4-1,1-4.3,3.1-5.9,3.1-.3,0-.5-.1-.7-.2l-3.3-3.4c-1-1,1.7-5.5,2.8-6.7-2.3-3.4-3.7-7.2-4.4-11.1-2.3-.4-5.6-1.4-5.6-2.5v-4.7c0-1.3,3.7-2.3,5.7-2.6.7-3.6,2.1-7.1,4.2-10.3-1.1-1.2-3.8-5.7-2.8-6.7l3.3-3.4c.1-.2.4-.2.7-.2,1.6,0,4.9,2.1,5.9,3.1,3.3-2.3,6.9-3.8,10.7-4.4.1-1.8,1.3-6.4,2.6-6.4h4.7c1.2,0,2.2,4.1,2.5,6.5,3.6.7,7,2.1,10.1,4.3h0c.9-.9,4.3-3.1,5.9-3.1.3,0,.5.1.7.2l3.3,3.4c.9.9-1.5,4.8-2.8,6.6,2.1,3.2,3.6,6.7,4.3,10.3h.9c1.5,0,6.8,1.2,6.8,2.7v4.8c0,1.5-5.3,2.7-6.8,2.7h-.8c-.7,3.8-2.1,7.5-4.3,10.9h0c1,1.1,3.8,5.6,2.8,6.7l-3.3,3.4c-.1.1-.3.2-.6.2-1.4,0-4.4-1.9-5.9-3.1-3.1,2.2-6.5,3.6-10.1,4.4v.3c.1,1.3-1.1,6.6-2.5,6.6m-2.7-55.6c-5.4,0-10.8,2.1-14.9,6.3-8.2,8.4-8.2,21.9,0,30.3,4.1,4.2,9.5,6.3,14.9,6.3s10.8-2.1,14.9-6.3c8.2-8.4,8.2-21.9,0-30.3-4.2-4.3-9.5-6.3-14.9-6.3"/>
          <path class="cls-1" d="m195.5,136.8h-4.7c-1.5,0-2.7-5.4-2.7-6.9v-.1c-3.8-.7-7.4-2.1-10.7-4.4-1,1-4.3,3.1-5.9,3.1-.3,0-.5-.1-.7-.2l-3.3-3.4c-1-1,1.7-5.5,2.8-6.7-2.3-3.4-3.7-7.2-4.4-11.1-2.3-.4-5.6-1.4-5.6-2.5v-4.8c0-1.3,3.7-2.3,5.7-2.6.7-3.6,2.1-7.1,4.2-10.3-1.1-1.2-3.8-5.7-2.8-6.7l3.3-3.4c.1-.2.4-.2.7-.2,1.6,0,4.9,2.1,5.9,3.1,3.3-2.3,6.9-3.8,10.7-4.4.1-1.8,1.3-6.4,2.6-6.4h4.7c1.2,0,2.2,4.1,2.5,6.5,3.6.7,7,2.1,10.1,4.3h0c.9-.9,4.2-3.1,5.9-3.1.3,0,.5.1.7.2l3.3,3.4c.9.9-1.5,4.8-2.8,6.6,2.1,3.2,3.6,6.7,4.3,10.3h.9c1.5,0,6.8,1.2,6.8,2.7v4.8c0,1.5-5.3,2.7-6.8,2.7h-.8c-.7,3.8-2.1,7.5-4.3,10.9h0c1,1.1,3.8,5.6,2.8,6.7l-3.3,3.4c-.1.1-.3.2-.6.2-1.4,0-4.4-1.9-5.9-3.1-3.1,2.2-6.5,3.6-10.1,4.4v.3c.1,1.3-1.1,6.7-2.5,6.7m-2.7-55.7c-5.4,0-10.8,2.1-14.9,6.3-8.2,8.4-8.2,21.9,0,30.3,4.1,4.2,9.5,6.3,14.9,6.3s10.8-2.1,14.9-6.3c8.2-8.4,8.2-21.9,0-30.3-4.1-4.2-9.5-6.3-14.9-6.3"/>
          <path class="cls-1" d="m805.7,165.9h-4.7c-1.5,0-2.7-5.4-2.7-6.9v-.1c-3.8-.7-7.4-2.1-10.7-4.4-1,1-4.3,3.1-5.9,3.1-.3,0-.5-.1-.7-.2l-3.3-3.4c-1-1,1.7-5.5,2.8-6.7-2.3-3.4-3.7-7.2-4.4-11.1-2.3-.4-5.6-1.4-5.6-2.5v-4.8c0-1.3,3.7-2.3,5.7-2.6.7-3.6,2.1-7.1,4.2-10.3-1.1-1.2-3.8-5.7-2.8-6.7l3.3-3.4c.1-.2.4-.2.7-.2,1.6,0,4.9,2.1,5.9,3.1,3.3-2.3,6.9-3.8,10.7-4.4.1-1.8,1.3-6.4,2.6-6.4h4.7c1.2,0,2.2,4.1,2.6,6.5,3.6.7,7,2.1,10.1,4.3h0c.9-.9,4.3-3.1,5.9-3.1.3,0,.5.1.7.2l3.3,3.4c.9.9-1.5,4.8-2.8,6.6,2.1,3.2,3.6,6.7,4.3,10.3h.9c1.5,0,6.8,1.2,6.8,2.7v4.8c0,1.5-5.3,2.7-6.8,2.7h-.8c-.7,3.8-2.1,7.5-4.3,10.9h0c1,1.1,3.8,5.6,2.8,6.7l-3.3,3.4c-.1.1-.3.2-.6.2-1.4,0-4.4-1.9-5.9-3.1-3.1,2.2-6.5,3.6-10.1,4.4v.3c.1,1.3-1.1,6.7-2.6,6.7m-2.6-55.7c-5.4,0-10.8,2.1-14.9,6.3-8.2,8.4-8.2,21.9,0,30.3,4.1,4.2,9.5,6.3,14.9,6.3s10.8-2.1,14.9-6.3c8.2-8.4,8.2-21.9,0-30.3-4.2-4.2-9.6-6.3-14.9-6.3"/>
          <path class="cls-1" d="m878,266.2h-4.7c-1.5,0-2.7-5.4-2.7-6.9v-.1c-3.8-.7-7.4-2.1-10.7-4.4-1,1-4.3,3.1-5.9,3.1-.3,0-.5-.1-.7-.2l-3.3-3.4c-1-1,1.7-5.5,2.8-6.7-2.3-3.4-3.7-7.2-4.4-11.1-2.3-.4-5.6-1.4-5.6-2.5v-4.8c0-1.3,3.7-2.3,5.7-2.6.7-3.6,2.1-7.1,4.2-10.3-1.1-1.2-3.8-5.7-2.8-6.7l3.3-3.4c.1-.2.4-.2.7-.2,1.6,0,4.9,2.1,5.9,3.1,3.3-2.3,6.9-3.8,10.7-4.4.1-1.8,1.3-6.4,2.6-6.4h4.7c1.2,0,2.2,4.1,2.6,6.5,3.6.7,7,2.1,10.1,4.3h0c.9-.9,4.3-3.1,5.9-3.1.3,0,.5.1.7.2l3.3,3.4c.9.9-1.5,4.8-2.8,6.6,2.1,3.2,3.6,6.7,4.3,10.3h.9c1.5,0,6.8,1.2,6.8,2.7v4.8c0,1.5-5.3,2.7-6.8,2.7h-.8c-.7,3.8-2.1,7.5-4.3,10.8h0c1,1.1,3.8,5.6,2.8,6.7l-3.3,3.4c-.1.1-.3.2-.6.2-1.4,0-4.4-1.9-5.9-3.1-3.1,2.2-6.5,3.6-10.1,4.4v.3c0,1.5-1.2,6.9-2.6,6.8m-2.7-55.6c-5.4,0-10.8,2.1-14.9,6.3-8.2,8.4-8.2,21.9,0,30.3,4.1,4.2,9.5,6.3,14.9,6.3s10.8-2.1,14.9-6.3c8.2-8.4,8.2-21.9,0-30.3-4.1-4.2-9.5-6.3-14.9-6.3"/>
          <path class="cls-1" d="m231.2,80.8h-.3l-7.1-2.3c-2.2-.7-1.5-9.6-.7-11.8l.1-.2c-5.4-2.9-10.3-7-14.1-12.1-1.6.8-5.9,1.9-8.7,1.9-1.3,0-2.3-.2-2.7-.9l-3.4-6.8c-1-2.1,5.3-7.5,7.5-8.8-1.8-6.3-2.2-12.8-1.3-19.1-3.3-1.8-7.9-4.9-7.3-6.6l2.3-7.2c.4-1.1,2.7-1.5,5.2-1.5,1.7,0,3.5.2,4.8.4,2.8-5.2,6.7-9.8,11.5-13.6-1.1-2.4-3.1-10.5-1-11.6l6.7-3.5c.1-.1.3-.1.5-.1,2.3,0,6.9,5.6,8.1,7.8,4-1.2,8.2-1.8,12.3-1.8,2.1,0,4.1.2,6.2.4,1.1-2.6,4.7-8.4,6.8-8.4h.3l7.1,2.3c1.8.6,1.4,7.4.7,11.2,5.1,2.9,9.7,6.8,13.4,11.7h0c1.4-.8,5.8-2,8.7-2,1.3,0,2.4.3,2.7.9l3.4,6.8c.9,1.8-4.6,6.6-7.6,8.7,1.7,5.9,2.2,12,1.5,17.9l1.3.4c2.2.7,9.7,5.3,9,7.5l-2.3,7.2c-.4,1.1-2.7,1.5-5.2,1.5s-5.3-.4-6.4-.8l-1.2-.4c-3,5.5-7,10.5-12,14.4h0c1.1,2.1,3.1,10.5,1,11.6l-6.7,3.5c-.1.1-.3.1-.4.1-2,0-6.2-5-8.1-7.8-4.1,1.2-8.3,1.9-12.4,1.9-1.7,0-3.4-.1-5.1-.3l-.1.4c-.7,2.1-4.7,9.1-7,9.1m12.2-88c-5.1,0-10.4,1.2-15.3,3.8-16.6,8.6-23.2,29.3-14.7,46.2,6,11.9,17.8,18.7,30.1,18.7,5.1,0,10.4-1.2,15.3-3.8,16.6-8.6,23.2-29.3,14.7-46.2-6-11.8-17.8-18.7-30.1-18.7"/>
          <path class="cls-1" d="m243.2,52.3c-2.4,0-4.9-.4-7.3-1.2-12.5-4.1-19.3-17.8-15.3-30.4,3.2-10.2,12.6-16.7,22.6-16.7,2.4,0,4.9.4,7.3,1.2,12.5,4.1,19.3,17.8,15.3,30.4-3.3,10.2-12.6,16.7-22.6,16.7"/>
          <path class="cls-1" d="m570.6,84.7h-4.7c-1.5,0-2.7-5.4-2.7-6.9v-.1c-3.8-.7-7.4-2.1-10.7-4.4-1,1-4.3,3.1-5.9,3.1-.3,0-.5-.1-.7-.2l-3.3-3.4c-1-1,1.7-5.5,2.8-6.7-2.3-3.4-3.7-7.2-4.4-11.1-2.3-.4-5.6-1.4-5.6-2.5v-4.8c0-1.3,3.7-2.3,5.7-2.6.7-3.6,2.1-7.1,4.2-10.3-1.1-1.2-3.8-5.7-2.8-6.7l3.3-3.4c.1-.2.4-.2.7-.2,1.6,0,4.9,2.1,5.9,3.1,3.3-2.3,6.9-3.8,10.7-4.4.1-1.8,1.3-6.4,2.6-6.4h4.7c1.2,0,2.2,4.1,2.6,6.5,3.6.7,7,2.1,10.1,4.3h0c.9-.9,4.2-3.1,5.9-3.1.3,0,.5.1.7.2l3.3,3.4c.9.9-1.5,4.8-2.8,6.6,2.1,3.2,3.6,6.7,4.3,10.3h.9c1.5,0,6.8,1.2,6.8,2.7v4.8c0,1.5-5.3,2.7-6.8,2.7h-.8c-.7,3.8-2.1,7.5-4.3,10.8h0c1,1.1,3.8,5.6,2.8,6.7l-3.3,3.4c-.1.1-.3.2-.6.2-1.4,0-4.4-1.9-5.9-3.1-3.1,2.2-6.5,3.6-10.1,4.4v.3c0,1.5-1.2,6.8-2.6,6.8m-2.7-55.6c-5.4,0-10.8,2.1-14.9,6.3-8.2,8.4-8.2,21.9,0,30.3,4.1,4.2,9.5,6.3,14.9,6.3s10.8-2.1,14.9-6.3c8.2-8.4,8.2-21.9,0-30.3-4.1-4.3-9.5-6.3-14.9-6.3"/>
          <path class="cls-1" d="m638.1,67.5v-18.7c16.9,0,30.7-14,30.7-31.3s-13.8-31.3-30.7-31.3-30.7,14-30.7,31.3h-18.4c0-27.7,22-50.1,49.2-50.1s49.2,22.4,49.2,50.1-22.1,50.1-49.3,50"/>
          <path class="cls-1" d="m638.1,41.2c-12.9,0-23.3-10.6-23.3-23.7s10.4-23.7,23.3-23.7,23.3,10.6,23.3,23.7-10.4,23.7-23.3,23.7"/>
          <path class="cls-1" d="m882.6,81.7v-18.8c16.9,0,30.7-14,30.7-31.3S899.6.3,882.6.3s-30.7,14-30.7,31.3h-18.4c0-27.7,22-50.1,49.2-50.1s49.1,22.5,49.1,50.1-22,50.1-49.2,50.1"/>
          <path class="cls-1" d="m882.6,55.3c-12.9,0-23.3-10.6-23.3-23.7s10.4-23.7,23.3-23.7,23.3,10.6,23.3,23.7-10.4,23.7-23.3,23.7"/>
          <path class="cls-1" d="m444.5,72.4c-25.7,0-46.5-21.2-46.5-47.4s20.8-47.4,46.5-47.4V-4.6c-16,0-29.1,13.3-29.1,29.6s13,29.6,29.1,29.6,29.1-13.3,29.1-29.6h17.4c0,26.2-20.8,47.4-46.5,47.4"/>
          <path class="cls-1" d="m444.5,47.5c-12.2,0-22.1-10.1-22.1-22.5s9.9-22.5,22.1-22.5,22.1,10.1,22.1,22.5-9.9,22.5-22.1,22.5"/>
          <path class="cls-1" d="m625.1,117.2c-17.6,0-31.8-14.5-31.8-32.4s14.3-32.4,31.8-32.4v12.2c-11,0-19.9,9.1-19.9,20.3s8.9,20.3,19.9,20.3,19.9-9.1,19.9-20.3h12c0,17.7-14.3,32.3-31.9,32.3"/>
          <path class="cls-1" d="m625.1,100.1c-8.3,0-15.1-6.9-15.1-15.4s6.8-15.4,15.1-15.4,15.1,6.9,15.1,15.4-6.7,15.4-15.1,15.4"/>
          <path class="cls-1" d="m-13,226c-19.5,0-37.9-11.9-45.6-31.4-10.1-25.7,2.1-54.8,27.3-65.1l6.9,17.4c-15.7,6.4-23.4,24.7-17,40.7,4.8,12.2,16.4,19.6,28.5,19.6,3.8,0,7.7-.7,11.4-2.3,15.7-6.4,23.4-24.7,17-40.7l17.1-7c10.1,25.7-2.1,54.8-27.3,65.1-6,2.6-12.2,3.8-18.3,3.7"/>
          <path class="cls-1" d="m-13,199.7c-9.2,0-18-5.6-21.6-14.9-4.8-12.2,1-26,12.9-30.9,2.8-1.2,5.8-1.7,8.7-1.7,9.2,0,18,5.6,21.6,14.9,4.8,12.2-1,26-12.9,30.9-2.8,1.2-5.8,1.7-8.7,1.7"/>
          <path class="cls-1" d="m-13.7,138.7l-4.5-11.3c10.2-4.2,15.1-16,11-26.4-3.1-7.9-10.6-12.7-18.5-12.7-2.5,0-5,.5-7.4,1.5-10.2,4.2-15.1,16-11,26.4l-11.1,4.5c-6.6-16.6,1.3-35.5,17.7-42.2,3.9-1.6,7.9-2.3,11.9-2.3,12.6,0,24.6,7.7,29.6,20.3,6.5,16.6-1.4,35.5-17.7,42.2"/>
          <path class="cls-1" d="m104.9,37.5c-3.3,0-6.8-.5-10.1-1.7-16.7-5.7-25.7-24-20.1-41,4.5-13.6,16.9-22.2,30.2-22.2,3.3,0,6.8.5,10.1,1.7l-3.8,11.5c-2.1-.7-4.2-1-6.3-1-8.3,0-16.1,5.4-18.9,13.8-3.5,10.6,2.2,22.1,12.6,25.6,2.1.7,4.2,1,6.3,1,8.3,0,16.1-5.4,18.9-13.8l11.3,3.8c-4.4,13.7-16.8,22.3-30.2,22.3"/>
          <path class="cls-1" d="m104.9,20.4c-1.6,0-3.2-.3-4.8-.8-7.8-2.7-12.1-11.4-9.5-19.4,2.1-6.4,8-10.5,14.3-10.5,1.6,0,3.2.3,4.8.8,7.9,2.7,12.2,11.4,9.5,19.4-2.1,6.4-8,10.5-14.3,10.5"/>
          <path class="cls-1" d="m873.2,131.9c-17.6,0-31.8-14.5-31.8-32.4s14.3-32.4,31.8-32.4v12.2c-11,0-19.9,9.1-19.9,20.3s8.9,20.3,19.9,20.3,19.9-9.1,19.9-20.3h11.9c.1,17.8-14.2,32.3-31.8,32.3"/>
          <path class="cls-1" d="m873.2,114.9c-8.3,0-15.1-6.9-15.1-15.4s6.8-15.4,15.1-15.4,15.1,6.9,15.1,15.4-6.7,15.4-15.1,15.4"/>
          <path class="cls-1" d="m135.4,99.5c-3.3,0-6.8-.5-10.1-1.7-16.7-5.7-25.7-24-20.1-41,4.5-13.6,16.9-22.2,30.2-22.2,3.3,0,6.8.5,10.1,1.7l-3.8,11.5c-2.1-.7-4.2-1-6.3-1-8.3,0-16.1,5.4-18.9,13.8-3.5,10.6,2.2,22.1,12.6,25.6,2.1.7,4.2,1,6.3,1,8.3,0,16.1-5.4,18.9-13.8l11.3,3.8c-4.5,13.7-16.9,22.3-30.2,22.3"/>
          <path class="cls-1" d="m135.4,82.5c-1.6,0-3.2-.3-4.8-.8-7.9-2.7-12.2-11.4-9.5-19.4,2.1-6.4,8-10.5,14.3-10.5,1.6,0,3.2.3,4.8.8,7.9,2.7,12.2,11.4,9.5,19.4-2.1,6.4-8,10.5-14.3,10.5"/>
          <path class="cls-1" d="m155.2,50.7c-3.3,0-6.8-.5-10.1-1.7l3.8-11.5c2.1.7,4.2,1,6.3,1,8.3,0,16.1-5.4,18.9-13.8,3.5-10.6-2.2-22.1-12.6-25.6-2.1-.7-4.2-1-6.3-1-8.3,0-16.1,5.4-18.9,13.8l-11.4-3.9c4.4-13.6,16.9-22.2,30.2-22.2,3.3,0,6.7.5,10.1,1.7,16.7,5.7,25.7,24,20.1,41-4.4,13.6-16.8,22.2-30.1,22.2"/>
          <path class="cls-1" d="m155.2,33.6c-1.6,0-3.2-.3-4.8-.8-7.9-2.7-12.2-11.4-9.5-19.4,2.1-6.4,8-10.5,14.3-10.5,1.6,0,3.2.3,4.8.8,7.9,2.7,12.2,11.4,9.5,19.4-2.1,6.5-8,10.5-14.3,10.5"/>
          <path class="cls-1" d="m509.9,49.7v-12.2c11,0,19.9-9.1,19.9-20.3s-8.9-20.2-19.9-20.2-19.9,9.1-19.9,20.2h-11.9c0-17.9,14.3-32.4,31.8-32.4s31.8,14.5,31.8,32.4-14.2,32.5-31.8,32.5"/>
          <path class="cls-1" d="m509.9,32.6c-8.3,0-15.1-6.9-15.1-15.4s6.8-15.4,15.1-15.4,15.1,6.9,15.1,15.4-6.8,15.4-15.1,15.4"/>
        </g>
      </g>
    </g>
  </g>
</svg>