<?xml version="1.0" encoding="UTF-8"?>
<svg id="Layer_2" data-name="Layer 2" xmlns="http://www.w3.org/2000/svg" xmlns:xlink="http://www.w3.org/1999/xlink" viewBox="0 0 841.89 595.28">
  <defs>
    <style>
      .cls-1 {
        fill: #c8e3dc;
      }

      .cls-1, .cls-2 {
        stroke-width: 0px;
      }

      .cls-2 {
        fill: none;
      }

      .cls-3 {
        clip-path: url(#clippath);
      }

      .cls-4 {
        clip-path: url(#clippath-5);
      }
    </style>
    <clipPath id="clippath">
      <rect class="cls-2" width="841.89" height="595.28"/>
    </clipPath>
    <clipPath id="clippath-5">
      <rect class="cls-2" width="841.89" height="595.28"/>
    </clipPath>
  </defs>
  <g id="Layer_1-2" data-name="Layer 1">
    <g class="cls-3">
      <g class="cls-4">
        <g>
          <path class="cls-1" d="m696.56,490.47c-4.54,0-9.08,1.73-12.54,5.2-6.93,6.93-6.93,18.16,0,25.09,3.46,3.46,8,5.2,12.54,5.2s9.08-1.73,12.54-5.2c6.93-6.93,6.93-18.16,0-25.09-3.46-3.46-8-5.2-12.54-5.2m0,29.07c-2.9,0-5.79-1.1-8-3.31-4.42-4.42-4.42-11.59,0-16.01,2.21-2.21,5.11-3.31,8-3.31s5.79,1.1,8,3.31c4.42,4.42,4.42,11.59,0,16.01-2.21,2.21-5.11,3.31-8,3.31"/>
          <path class="cls-1" d="m699.77,469.36h-5.44c-1.71,0-3.11,6.16-3.11,7.86v.15c-4.38.76-8.63,2.45-12.44,5.06-1.17-1.08-5.01-3.52-6.87-3.52-.33,0-.6.07-.79.26l-3.85,3.85c-1.17,1.17,1.98,6.27,3.27,7.65-2.66,3.89-4.37,8.22-5.11,12.69-2.72.49-6.53,1.57-6.53,2.82v5.44c0,1.45,4.34,2.67,6.69,3.02.81,4.15,2.46,8.18,4.95,11.8-1.28,1.38-4.44,6.48-3.27,7.66l3.85,3.85c.18.18.44.26.78.26,1.86,0,5.7-2.43,6.87-3.52,3.81,2.62,8.08,4.31,12.46,5.07.18,2.1,1.5,7.3,3.09,7.3h5.44c1.4,0,2.58-4.74,2.97-7.41,4.16-.81,8.19-2.46,11.81-4.95h0c1.03,1.03,4.95,3.52,6.85,3.52.34,0,.62-.08.8-.26l3.85-3.84c1.02-1.03-1.72-5.49-3.32-7.58,2.5-3.62,4.15-7.63,4.98-11.79h1.01c1.71,0,7.86-1.4,7.86-3.11v-5.44c0-1.71-6.15-3.11-7.86-3.11h-.89c-.76-4.37-2.45-8.61-5.06-12.41h0c1.21-1.21,4.47-6.45,3.27-7.66l-3.85-3.85c-.16-.16-.39-.22-.68-.22-1.64,0-5.13,2.18-6.9,3.54-3.61-2.49-7.61-4.15-11.76-4.98v-.29c0-1.71-1.4-7.86-3.11-7.86m-3.1,63.71c-6.27,0-12.54-2.4-17.34-7.18-9.57-9.57-9.57-25.1,0-34.67,4.78-4.78,11.06-7.18,17.34-7.18s12.54,2.4,17.34,7.18c9.57,9.57,9.57,25.1,0,34.67-4.79,4.78-11.06,7.18-17.34,7.18"/>
          <path class="cls-1" d="m333.21,513.96c-4.54,0-9.08,1.73-12.54,5.2-6.93,6.93-6.93,18.16,0,25.09,3.46,3.46,8,5.2,12.54,5.2s9.08-1.73,12.54-5.2c6.93-6.93,6.93-18.16,0-25.09-3.46-3.46-8-5.2-12.54-5.2m0,29.06c-2.9,0-5.79-1.1-8-3.31-4.42-4.42-4.42-11.59,0-16.01,2.21-2.21,5.11-3.31,8-3.31s5.79,1.1,8,3.31c4.42,4.42,4.42,11.59,0,16.01-2.21,2.21-5.11,3.32-8,3.32"/>
          <path class="cls-1" d="m336.41,492.86h-5.44c-1.71,0-3.11,6.16-3.11,7.86v.15c-4.38.76-8.63,2.45-12.44,5.06-1.17-1.08-5.01-3.52-6.87-3.52-.33,0-.6.07-.79.26l-3.85,3.85c-1.17,1.17,1.98,6.27,3.27,7.65-2.66,3.89-4.37,8.22-5.11,12.69-2.72.49-6.53,1.57-6.53,2.83v5.44c0,1.45,4.34,2.67,6.69,3.02.81,4.15,2.46,8.18,4.95,11.8-1.28,1.38-4.44,6.48-3.27,7.66l3.85,3.85c.18.18.44.26.79.26,1.86,0,5.7-2.43,6.87-3.52,3.81,2.62,8.08,4.31,12.46,5.07.18,2.1,1.5,7.3,3.08,7.3h5.44c1.4,0,2.58-4.74,2.97-7.42,4.16-.81,8.19-2.46,11.81-4.95h0c1.03,1.03,4.95,3.52,6.85,3.52.34,0,.62-.08.8-.27l3.85-3.84c1.03-1.03-1.72-5.49-3.32-7.58,2.5-3.62,4.15-7.63,4.98-11.79h1.01c1.71,0,7.86-1.4,7.86-3.11v-5.44c0-1.71-6.15-3.11-7.86-3.11h-.89c-.77-4.37-2.45-8.61-5.06-12.41h0c1.21-1.21,4.47-6.45,3.27-7.66l-3.85-3.85c-.16-.16-.39-.22-.68-.22-1.64,0-5.13,2.18-6.9,3.54-3.61-2.49-7.62-4.15-11.76-4.98v-.29c0-1.71-1.4-7.86-3.11-7.86m-3.1,63.71c-6.27,0-12.54-2.4-17.34-7.18-9.57-9.57-9.57-25.1,0-34.67,4.78-4.78,11.06-7.18,17.34-7.18s12.55,2.4,17.34,7.18c9.57,9.57,9.57,25.1,0,34.67-4.79,4.79-11.06,7.18-17.34,7.18"/>
          <path class="cls-1" d="m87,493.58c-3.58,0-7.18,1.07-10.31,3.32-7.96,5.71-9.8,16.78-4.1,24.76,3.46,4.84,8.91,7.41,14.44,7.41,3.57,0,7.19-1.07,10.31-3.32,7.96-5.71,9.8-16.78,4.1-24.76-3.46-4.84-8.91-7.41-14.44-7.41m.03,29.07c-3.52,0-7-1.65-9.21-4.73-3.64-5.09-2.47-12.16,2.62-15.8,2-1.43,4.3-2.12,6.58-2.12,3.53,0,7,1.65,9.21,4.73,3.64,5.09,2.47,12.16-2.62,15.8-2,1.43-4.3,2.12-6.59,2.12"/>
          <path class="cls-1" d="m91.06,472.42c-1.67,0-3.96,5.62-4.23,7.26l-.03.15c-4.45.04-8.92,1.01-13.1,2.96-1.03-1.33-4.74-4.63-6.48-4.63-.21,0-.39.05-.54.15l-4.42,3.16c-1.35.97.93,6.51,1.97,8.09-3.27,3.4-5.65,7.4-7.11,11.69-2.77.04-6.7.49-6.9,1.72l-.89,5.37c-.23,1.43,3.84,3.35,6.11,4.07.12,4.23,1.09,8.47,2.95,12.45-1.49,1.15-5.44,5.67-4.48,7.02l3.16,4.42c.21.3.64.42,1.19.42,2,0,5.66-1.57,6.89-2.39,3.33,3.21,7.26,5.57,11.46,7.03-.17,2.1.29,7.45,1.85,7.71l5.37.89h.1c1.37,0,3.24-4.33,4.04-6.84,4.24-.12,8.48-1.09,12.46-2.95h0c.89,1.24,4.68,4.63,6.48,4.63.21,0,.4-.05.55-.16l4.42-3.16c1.17-.84-.8-5.7-2.04-8.02,3.05-3.15,5.35-6.85,6.84-10.81l1,.17c.32.06.83.08,1.42.08,2.48,0,6.61-.51,6.85-1.87l.89-5.37c.28-1.68-5.56-4.07-7.25-4.35l-.87-.15c-.04-4.44-1.01-8.9-2.96-13.07h0c1.39-1,5.47-5.63,4.47-7.02l-3.16-4.42c-.18-.25-.55-.36-1.04-.36-1.78,0-5.16,1.42-6.98,2.4-3.15-3.04-6.84-5.34-10.8-6.83l.05-.29c.28-1.68-.09-7.98-1.79-8.26l-5.37-.89h-.12m-3.95,63.58c-7.64,0-15.17-3.56-19.95-10.24-7.88-11.01-5.35-26.32,5.66-34.2,4.32-3.1,9.31-4.59,14.25-4.59,7.64,0,15.17,3.56,19.95,10.24,7.88,11.01,5.35,26.32-5.66,34.2-4.32,3.1-9.32,4.59-14.26,4.59"/>
          <path class="cls-1" d="m644.41,516.34h-3.75c-1.17,0-2.15,4.25-2.15,5.42v.1c-3.02.53-5.95,1.69-8.58,3.49-.8-.75-3.45-2.42-4.74-2.42-.23,0-.42.06-.54.18l-2.65,2.65c-.81.81,1.37,4.32,2.25,5.27-1.83,2.67-3.01,5.67-3.52,8.75-1.87.34-4.5,1.08-4.5,1.95v3.75c0,1,2.99,1.85,4.61,2.08.56,2.87,1.69,5.63,3.4,8.13-.88.94-3.06,4.47-2.25,5.27l2.65,2.65c.12.12.31.18.54.18,1.28,0,3.93-1.68,4.74-2.42,2.63,1.8,5.56,2.97,8.58,3.49.12,1.45,1.04,5.03,2.13,5.03h3.75c.96,0,1.78-3.27,2.05-5.11,2.87-.56,5.64-1.69,8.14-3.41h0c.7.7,3.41,2.43,4.73,2.43.24,0,.43-.06.56-.19l2.65-2.65c.7-.7-1.18-3.78-2.28-5.23,1.72-2.49,2.87-5.26,3.43-8.12h.69c1.17,0,5.42-.96,5.42-2.15v-3.75c0-1.17-4.25-2.14-5.42-2.14h-.61c-.53-3.02-1.69-5.94-3.49-8.56h0c.83-.83,3.08-4.44,2.25-5.27l-2.65-2.65c-.11-.1-.27-.16-.46-.16-1.13,0-3.53,1.5-4.75,2.44-2.49-1.72-5.25-2.86-8.1-3.42v-.2c0-1.17-.96-5.41-2.15-5.41m-2.14,43.9c-4.32,0-8.65-1.65-11.94-4.95-6.6-6.6-6.6-17.3,0-23.89,3.3-3.3,7.62-4.95,11.94-4.95s8.65,1.65,11.94,4.95c6.6,6.6,6.6,17.29,0,23.89-3.3,3.3-7.62,4.95-11.94,4.95"/>
          <path class="cls-1" d="m642.43,531.71c-6.3,0-11.41,5.11-11.41,11.41s5.11,11.41,11.41,11.41,11.41-5.11,11.41-11.41-5.11-11.41-11.41-11.41"/>
          <path class="cls-1" d="m633.01,466.8h-3.75c-1.17,0-2.14,4.25-2.14,5.42v.1c-3.02.53-5.95,1.68-8.58,3.49-.8-.75-3.45-2.43-4.74-2.43-.23,0-.42.06-.54.18l-2.65,2.65c-.81.81,1.37,4.33,2.25,5.27-1.83,2.67-3.01,5.66-3.52,8.75-1.87.34-4.5,1.08-4.5,1.95v3.75c0,1,2.99,1.85,4.61,2.08.56,2.87,1.69,5.63,3.4,8.13-.88.94-3.06,4.46-2.25,5.27l2.65,2.65c.12.12.31.18.54.18,1.28,0,3.93-1.68,4.74-2.42,2.63,1.8,5.56,2.97,8.58,3.49.12,1.45,1.04,5.03,2.13,5.03h3.75c.96,0,1.78-3.27,2.04-5.12,2.87-.56,5.64-1.69,8.14-3.41h0c.7.7,3.41,2.43,4.73,2.43.24,0,.43-.06.56-.19l2.65-2.65c.7-.7-1.18-3.78-2.28-5.22,1.72-2.49,2.87-5.26,3.43-8.12h.69c1.17,0,5.42-.96,5.42-2.15v-3.75c0-1.18-4.24-2.15-5.42-2.15h-.61c-.53-3.02-1.69-5.94-3.49-8.55h0c.83-.83,3.08-4.45,2.25-5.28l-2.65-2.65c-.11-.1-.27-.16-.46-.16-1.13,0-3.53,1.5-4.75,2.44-2.49-1.72-5.25-2.86-8.1-3.43v-.2c0-1.17-.96-5.41-2.15-5.41m-2.14,43.9c-4.32,0-8.65-1.65-11.94-4.95-6.6-6.6-6.6-17.3,0-23.89,3.3-3.3,7.62-4.95,11.94-4.95s8.65,1.65,11.94,4.95c6.6,6.6,6.6,17.29,0,23.89-3.3,3.3-7.62,4.95-11.94,4.95"/>
          <path class="cls-1" d="m105.18,422.58h-3.75c-1.17,0-2.15,4.25-2.15,5.42v.1c-3.02.53-5.95,1.68-8.58,3.49-.8-.75-3.45-2.42-4.74-2.42-.23,0-.42.06-.55.18l-2.65,2.65c-.81.81,1.37,4.32,2.25,5.27-1.83,2.67-3.01,5.66-3.52,8.75-1.87.34-4.51,1.08-4.51,1.95v3.75c0,1,2.99,1.85,4.61,2.08.56,2.87,1.69,5.63,3.4,8.13-.88.94-3.06,4.46-2.25,5.27l2.65,2.65c.12.12.31.18.54.18,1.28,0,3.93-1.68,4.74-2.42,2.63,1.8,5.56,2.97,8.58,3.49.12,1.45,1.03,5.03,2.13,5.03h3.75c.96,0,1.78-3.27,2.04-5.12,2.87-.56,5.64-1.69,8.14-3.41h0c.7.7,3.41,2.43,4.73,2.43.23,0,.43-.06.56-.19l2.65-2.65c.7-.7-1.18-3.78-2.28-5.22,1.72-2.49,2.87-5.26,3.43-8.12h.69c1.17,0,5.42-.96,5.42-2.15v-3.75c0-1.18-4.24-2.15-5.42-2.15h-.61c-.53-3.02-1.68-5.94-3.49-8.56h0c.83-.83,3.08-4.45,2.25-5.28l-2.65-2.65c-.11-.1-.27-.16-.46-.16-1.13,0-3.53,1.5-4.75,2.44-2.49-1.72-5.25-2.86-8.1-3.43v-.2c0-1.17-.96-5.42-2.15-5.42m-2.14,43.9c-4.32,0-8.65-1.65-11.94-4.95-6.6-6.6-6.6-17.29,0-23.89,3.3-3.3,7.62-4.95,11.95-4.95s8.65,1.65,11.94,4.95c6.6,6.6,6.6,17.29,0,23.89-3.3,3.3-7.62,4.95-11.94,4.95"/>
          <path class="cls-1" d="m218.18,440.03h-3.75c-1.17,0-2.15,4.25-2.15,5.42v.1c-3.02.53-5.95,1.68-8.58,3.49-.8-.75-3.45-2.42-4.74-2.42-.23,0-.42.06-.55.18l-2.65,2.65c-.81.81,1.37,4.32,2.25,5.27-1.84,2.67-3.01,5.66-3.52,8.75-1.87.34-4.51,1.08-4.51,1.95v3.75c0,1,2.99,1.85,4.62,2.08.56,2.87,1.69,5.63,3.4,8.13-.88.95-3.06,4.47-2.25,5.27l2.65,2.65c.12.12.31.18.54.18,1.28,0,3.93-1.68,4.74-2.42,2.63,1.8,5.56,2.97,8.58,3.49.12,1.45,1.04,5.03,2.13,5.03h3.75c.96,0,1.78-3.27,2.04-5.12,2.87-.56,5.64-1.69,8.14-3.41h0c.7.7,3.4,2.43,4.72,2.43.24,0,.43-.06.56-.19l2.65-2.65c.7-.7-1.18-3.78-2.28-5.23,1.72-2.49,2.87-5.26,3.43-8.12h.69c1.17,0,5.42-.96,5.42-2.15v-3.75c0-1.18-4.24-2.15-5.42-2.15h-.61c-.53-3.02-1.68-5.94-3.49-8.56h0c.83-.83,3.08-4.45,2.25-5.28l-2.65-2.65c-.1-.1-.27-.16-.46-.16-1.13,0-3.53,1.5-4.75,2.44-2.49-1.72-5.25-2.86-8.1-3.43v-.2c0-1.17-.96-5.41-2.15-5.41m-2.14,43.9c-4.32,0-8.65-1.65-11.94-4.95-6.6-6.6-6.6-17.3,0-23.89,3.3-3.3,7.62-4.95,11.95-4.95s8.65,1.65,11.94,4.95c6.6,6.6,6.6,17.29,0,23.89-3.3,3.3-7.62,4.95-11.94,4.95"/>
          <path class="cls-1" d="m708.17,417.09h-3.75c-1.17,0-2.14,4.25-2.14,5.42v.1c-3.02.53-5.95,1.68-8.58,3.49-.8-.75-3.45-2.42-4.74-2.42-.23,0-.42.06-.55.18l-2.65,2.65c-.81.81,1.37,4.32,2.25,5.27-1.83,2.67-3.01,5.67-3.52,8.75-1.87.34-4.5,1.08-4.5,1.95v3.75c0,1,2.99,1.85,4.61,2.08.56,2.87,1.69,5.63,3.4,8.13-.88.94-3.06,4.46-2.25,5.27l2.65,2.65c.12.12.31.18.54.18,1.28,0,3.93-1.68,4.74-2.42,2.63,1.8,5.56,2.97,8.58,3.49.12,1.45,1.04,5.03,2.13,5.03h3.75c.96,0,1.78-3.27,2.05-5.12,2.87-.56,5.64-1.69,8.14-3.41h0c.7.7,3.41,2.43,4.73,2.43.24,0,.43-.06.56-.19l2.65-2.65c.7-.7-1.18-3.78-2.28-5.23,1.72-2.49,2.87-5.26,3.43-8.12h.69c1.17,0,5.42-.96,5.42-2.15v-3.75c0-1.17-4.24-2.14-5.42-2.14h-.61c-.53-3.02-1.68-5.94-3.49-8.56h0c.83-.83,3.08-4.44,2.25-5.28l-2.65-2.65c-.11-.1-.27-.16-.46-.16-1.13,0-3.53,1.5-4.75,2.44-2.49-1.72-5.25-2.86-8.1-3.43v-.2c0-1.17-.96-5.42-2.15-5.42m-2.14,43.9c-4.32,0-8.65-1.65-11.94-4.95-6.6-6.6-6.6-17.3,0-23.89,3.3-3.3,7.62-4.95,11.94-4.95s8.65,1.65,11.94,4.95c6.6,6.6,6.6,17.29,0,23.89-3.3,3.3-7.62,4.95-11.94,4.95"/>
          <path class="cls-1" d="m766.18,337.95h-3.75c-1.17,0-2.14,4.25-2.14,5.42v.1c-3.02.53-5.95,1.68-8.58,3.49-.8-.75-3.45-2.42-4.74-2.42-.23,0-.42.06-.55.18l-2.65,2.65c-.81.81,1.37,4.32,2.25,5.27-1.83,2.67-3.01,5.66-3.52,8.75-1.87.34-4.5,1.08-4.5,1.95v3.75c0,1,2.99,1.85,4.61,2.08.56,2.87,1.69,5.63,3.4,8.13-.88.94-3.06,4.47-2.25,5.27l2.65,2.65c.12.12.31.18.54.18,1.28,0,3.93-1.68,4.74-2.43,2.63,1.8,5.56,2.97,8.58,3.49.12,1.45,1.04,5.03,2.13,5.03h3.75c.96,0,1.78-3.27,2.05-5.12,2.87-.56,5.64-1.69,8.14-3.41h0c.7.7,3.41,2.43,4.73,2.43.24,0,.43-.06.56-.19l2.65-2.65c.7-.7-1.18-3.78-2.28-5.23,1.72-2.49,2.87-5.26,3.43-8.12h.69c1.17,0,5.42-.96,5.42-2.15v-3.75c0-1.18-4.24-2.15-5.42-2.15h-.61c-.53-3.02-1.68-5.94-3.49-8.55h0c.83-.83,3.08-4.45,2.25-5.28l-2.65-2.65c-.11-.1-.27-.15-.46-.15-1.13,0-3.53,1.5-4.75,2.44-2.49-1.72-5.25-2.86-8.1-3.43v-.2c0-1.17-.96-5.41-2.15-5.41m-2.14,43.9c-4.32,0-8.65-1.65-11.94-4.95-6.6-6.6-6.6-17.29,0-23.89,3.3-3.3,7.62-4.95,11.94-4.95s8.65,1.65,11.94,4.95c6.6,6.6,6.6,17.29,0,23.89-3.3,3.3-7.62,4.95-11.94,4.95"/>
          <path class="cls-1" d="m794.2,382.96c-.98,0-2.36,3.19-2.89,4.88-3.03.02-5.94.68-8.6,1.85l-.11-.17c-.61-.87-3.27-3.3-4.51-3.3-.14,0-.26.03-.36.1l-3.07,2.16c-.96.68.68,4.7,1.36,5.67l.06.08c-2.17,2.16-3.9,4.8-5.01,7.78-.25-.04-.61-.06-1.02-.06-1.72,0-4.43.33-4.59,1.24l-.65,3.69c-.19,1.13,3.6,2.76,4.88,3.03.03,3.25.79,6.36,2.15,9.19-1.34,1.35-3.06,3.47-2.56,4.18l2.15,3.07c.15.21.46.31.87.31,1.14,0,3.03-.7,4.1-1.25,2.1,2.03,4.63,3.64,7.47,4.7-.18,1.29.06,5.41,1.18,5.61l3.69.65h.08c1.12,0,2.67-3.64,2.94-4.88,3.19-.04,6.25-.77,9.04-2.07.82.99,3.13,3,4.26,3,.14,0,.27-.04.37-.1l3.07-2.16c.79-.56-.42-3.7-1.26-5.36,2.03-2.1,3.64-4.63,4.71-7.47h0c.24.05.62.06,1.06.06,1.69,0,4.38-.33,4.54-1.26l.65-3.69c.18-.98-3.15-2.42-4.88-2.96-.02-3.03-.68-5.96-1.86-8.62l.57-.4c.96-.68,3.89-3.9,3.21-4.87l-2.16-3.07c-.15-.21-.45-.3-.85-.3-1.43,0-4.06,1.12-4.82,1.66l-.5.35c-2.16-2.16-4.79-3.89-7.76-5h0c.2-1.17-.03-5.41-1.18-5.62l-3.69-.65h-.07m-2.68,43.59c-.97,0-1.95-.08-2.94-.26-9.19-1.61-15.33-10.37-13.72-19.56,1.44-8.21,8.57-13.98,16.62-13.98.97,0,1.95.08,2.94.26,9.19,1.61,15.33,10.37,13.72,19.56-1.43,8.21-8.57,13.98-16.61,13.98"/>
          <path class="cls-1" d="m246.84,484.18c-.09,0-.18,0-.26.04l-5.71,1.85c-1.79.58-1.17,7.53-.58,9.32l.05.15c-4.35,2.29-8.23,5.51-11.34,9.56-1.29-.6-4.72-1.54-7.02-1.54-1.05,0-1.87.19-2.14.71l-2.73,5.35c-.83,1.64,4.22,5.92,6.04,6.93-1.48,4.99-1.79,10.12-1.04,15.08-2.68,1.44-6.32,3.88-5.89,5.19l1.85,5.71c.3.91,2.17,1.21,4.19,1.21,1.38,0,2.81-.14,3.86-.32,2.27,4.09,5.37,7.75,9.21,10.71-.87,1.88-2.46,8.32-.82,9.16l5.35,2.73c.12.06.26.09.42.09,1.85,0,5.58-4.45,6.51-6.13,3.25.96,6.57,1.42,9.86,1.42,1.67,0,3.32-.12,4.95-.35.86,2.04,3.75,6.66,5.47,6.66.09,0,.18,0,.27-.04l5.71-1.85c1.46-.48,1.09-5.87.59-8.81,4.09-2.27,7.76-5.37,10.72-9.22h0c1.16.59,4.63,1.54,6.98,1.54,1.07,0,1.91-.2,2.18-.73l2.73-5.35c.72-1.42-3.68-5.18-6.07-6.83,1.39-4.65,1.77-9.44,1.21-14.08l1.05-.34c1.79-.58,7.79-4.15,7.21-5.95l-1.86-5.71c-.29-.89-2.14-1.18-4.15-1.18s-4.26.31-5.16.6l-.93.31c-2.29-4.33-5.5-8.21-9.54-11.31h0c.86-1.68,2.5-8.3.81-9.16l-5.35-2.73c-.1-.06-.22-.08-.35-.08-1.62,0-4.95,3.93-6.48,6.15-3.28-.98-6.63-1.46-9.95-1.46-1.37,0-2.74.08-4.09.24l-.1-.31c-.56-1.71-3.82-7.23-5.68-7.23m9.82,69.34c-4.14,0-8.34-.95-12.28-2.96-13.32-6.79-18.61-23.1-11.81-36.41,4.78-9.38,14.28-14.77,24.14-14.77,4.14,0,8.34.95,12.28,2.96,13.32,6.79,18.61,23.1,11.81,36.42-4.78,9.38-14.28,14.77-24.14,14.77"/>
          <path class="cls-1" d="m256.51,506.64c-1.95,0-3.93.31-5.88.93-10.01,3.25-15.5,14-12.25,24.01,2.61,8.06,10.08,13.18,18.12,13.18,1.95,0,3.93-.31,5.88-.93,10.01-3.25,15.5-14,12.25-24.01-2.62-8.06-10.08-13.18-18.12-13.18"/>
          <path class="cls-1" d="m519.36,481.06h-3.75c-1.17,0-2.14,4.25-2.14,5.42v.1c-3.02.53-5.95,1.68-8.58,3.49-.8-.75-3.45-2.42-4.74-2.42-.23,0-.42.06-.55.18l-2.65,2.65c-.81.81,1.37,4.32,2.25,5.27-1.83,2.67-3.01,5.67-3.52,8.75-1.87.34-4.51,1.08-4.51,1.95v3.75c0,1,2.99,1.85,4.62,2.08.56,2.87,1.69,5.63,3.4,8.13-.88.94-3.06,4.47-2.25,5.27l2.65,2.65c.12.12.31.18.54.18,1.29,0,3.93-1.68,4.74-2.42,2.63,1.8,5.56,2.97,8.58,3.49.12,1.45,1.04,5.03,2.13,5.03h3.75c.96,0,1.78-3.27,2.05-5.12,2.87-.56,5.64-1.69,8.14-3.41h0c.7.7,3.4,2.43,4.73,2.43.23,0,.43-.06.56-.19l2.65-2.65c.7-.7-1.18-3.78-2.28-5.22,1.72-2.49,2.87-5.26,3.43-8.12h.69c1.17,0,5.42-.96,5.42-2.15v-3.75c0-1.18-4.25-2.15-5.42-2.15h-.61c-.53-3.02-1.68-5.94-3.49-8.55h0c.83-.83,3.08-4.45,2.25-5.28l-2.65-2.65c-.1-.1-.27-.16-.46-.16-1.13,0-3.53,1.5-4.75,2.44-2.49-1.72-5.25-2.86-8.1-3.43v-.2c0-1.17-.96-5.41-2.15-5.41m-2.14,43.9c-4.32,0-8.65-1.65-11.94-4.95-6.6-6.6-6.6-17.3,0-23.89,3.3-3.3,7.62-4.95,11.94-4.95s8.65,1.65,11.94,4.95c6.6,6.6,6.6,17.29,0,23.89-3.3,3.3-7.62,4.95-11.94,4.95"/>
          <path class="cls-1" d="m573.61,494.61v14.8c13.61,0,24.67,11.06,24.67,24.67s-11.07,24.68-24.67,24.68-24.68-11.07-24.68-24.68h-14.81c0,21.8,17.68,39.48,39.48,39.48s39.48-17.68,39.48-39.48-17.68-39.48-39.48-39.48"/>
          <path class="cls-1" d="m573.61,515.38c-10.33,0-18.71,8.38-18.71,18.71s8.38,18.71,18.71,18.71,18.71-8.38,18.71-18.71-8.38-18.71-18.71-18.71"/>
          <path class="cls-1" d="m769.93,483.47v14.8c13.61,0,24.67,11.06,24.67,24.67s-11.07,24.68-24.67,24.67c-13.61,0-24.68-11.07-24.68-24.67h-14.81c0,21.8,17.68,39.48,39.48,39.48s39.48-17.68,39.48-39.48-17.68-39.48-39.48-39.48"/>
          <path class="cls-1" d="m769.93,504.24c-10.33,0-18.71,8.38-18.71,18.71s8.38,18.71,18.71,18.71,18.71-8.38,18.71-18.71-8.38-18.71-18.71-18.71"/>
          <path class="cls-1" d="m418.13,490.74c-20.63,0-37.35,16.73-37.35,37.35s16.73,37.35,37.35,37.35v-14.01c-12.88,0-23.35-10.47-23.35-23.35s10.47-23.35,23.35-23.35,23.35,10.47,23.35,23.35h14.01c0-20.63-16.73-37.35-37.35-37.35"/>
          <path class="cls-1" d="m418.13,510.39c-9.78,0-17.71,7.93-17.71,17.71s7.93,17.71,17.71,17.71,17.71-7.93,17.71-17.71-7.93-17.71-17.71-17.71"/>
          <path class="cls-1" d="m563.17,455.5c-14.12,0-25.57,11.44-25.57,25.56s11.44,25.56,25.57,25.56v-9.58c-8.82,0-15.98-7.17-15.98-15.98s7.17-15.98,15.98-15.98,15.98,7.17,15.98,15.98h9.58c0-14.12-11.45-25.57-25.57-25.57"/>
          <path class="cls-1" d="m563.17,468.94c-6.69,0-12.12,5.42-12.12,12.12s5.43,12.12,12.12,12.12,12.12-5.43,12.12-12.12-5.42-12.12-12.12-12.12"/>
          <path class="cls-1" d="m50.78,369.64c-15.64,0-30.44,9.35-36.64,24.76-8.14,20.23,1.67,43.22,21.9,51.36l5.52-13.74c-12.63-5.08-18.76-19.47-13.68-32.1,3.87-9.61,13.15-15.47,22.92-15.47,3.06,0,6.17.57,9.18,1.79,12.63,5.08,18.76,19.48,13.68,32.1l13.74,5.52c8.14-20.23-1.67-43.23-21.9-51.36-4.83-1.94-9.82-2.87-14.73-2.87"/>
          <path class="cls-1" d="m50.78,390.41c-7.41,0-14.43,4.43-17.36,11.73-3.86,9.59.79,20.49,10.38,24.35,2.28.93,4.65,1.36,6.98,1.36,7.41,0,14.43-4.43,17.36-11.74,3.86-9.59-.79-20.49-10.38-24.35-2.28-.93-4.65-1.36-6.98-1.36"/>
          <path class="cls-1" d="m50.2,438.51l-3.58,8.89c8.18,3.29,12.15,12.61,8.86,20.79-2.51,6.23-8.51,10.02-14.84,10.02-1.98,0-4-.37-5.95-1.16-8.17-3.28-12.15-12.62-8.86-20.79l-8.89-3.58c-5.27,13.1,1.08,27.99,14.18,33.26,3.13,1.26,6.36,1.85,9.54,1.85,10.13,0,19.71-6.06,23.73-16.03,5.27-13.1-1.08-27.98-14.18-33.26"/>
          <path class="cls-1" d="m40.66,450.11c-4.8,0-9.34,2.88-11.25,7.59-2.5,6.21.51,13.27,6.72,15.76,1.48.59,3.02.88,4.52.88,4.8,0,9.34-2.87,11.25-7.59,2.5-6.21-.51-13.27-6.72-15.76-1.48-.6-3.02-.88-4.51-.88"/>
          <path class="cls-1" d="m145.46,518.33c-2.68,0-5.42.43-8.1,1.32-13.4,4.48-20.62,18.95-16.15,32.35,3.58,10.7,13.54,17.47,24.24,17.47,2.68,0,5.42-.43,8.1-1.32l-3.03-9.09c-1.67.56-3.38.82-5.05.82-6.69,0-12.93-4.24-15.16-10.92-2.79-8.35,1.74-17.43,10.09-20.22,1.67-.56,3.38-.82,5.05-.82,6.69,0,12.93,4.24,15.17,10.92l9.09-3.03c-3.58-10.7-13.55-17.47-24.25-17.47"/>
          <path class="cls-1" d="m145.46,531.77c-1.28,0-2.57.2-3.84.63-6.35,2.12-9.78,8.98-7.65,15.33,1.69,5.07,6.42,8.28,11.49,8.28,1.28,0,2.57-.2,3.84-.63,6.35-2.12,9.78-8.98,7.65-15.33-1.69-5.07-6.42-8.28-11.49-8.28"/>
          <path class="cls-1" d="m762.38,443.86c-14.12,0-25.57,11.44-25.57,25.56s11.44,25.56,25.57,25.56v-9.58c-8.81,0-15.98-7.17-15.98-15.98s7.17-15.98,15.98-15.98,15.98,7.17,15.98,15.98h9.58c0-14.12-11.45-25.57-25.57-25.57"/>
          <path class="cls-1" d="m762.38,457.3c-6.69,0-12.12,5.42-12.12,12.12s5.43,12.12,12.12,12.12,12.12-5.42,12.12-12.12-5.42-12.12-12.12-12.12"/>
          <path class="cls-1" d="m169.89,469.39c-2.68,0-5.42.43-8.1,1.32-13.4,4.48-20.62,18.95-16.14,32.35,3.58,10.7,13.54,17.47,24.25,17.47,2.68,0,5.42-.43,8.1-1.32l-3.03-9.09c-1.67.56-3.38.82-5.05.82-6.69,0-12.93-4.24-15.16-10.92-2.79-8.35,1.74-17.43,10.09-20.21,1.67-.56,3.38-.82,5.05-.82,6.69,0,12.93,4.24,15.17,10.92l9.09-3.03c-3.58-10.7-13.55-17.47-24.25-17.47"/>
          <path class="cls-1" d="m169.89,482.84c-1.28,0-2.57.2-3.84.63-6.35,2.12-9.78,8.98-7.65,15.33,1.69,5.07,6.42,8.28,11.49,8.28,1.28,0,2.57-.2,3.84-.63,6.35-2.12,9.77-8.98,7.65-15.33-1.69-5.07-6.42-8.28-11.49-8.28"/>
          <path class="cls-1" d="m185.8,507.89c-2.68,0-5.42.43-8.1,1.32l3.03,9.09c1.67-.56,3.38-.82,5.05-.82,6.69,0,12.93,4.23,15.16,10.92,2.79,8.35-1.74,17.43-10.09,20.21-1.67.56-3.38.82-5.05.82-6.69,0-12.93-4.24-15.17-10.92l-9.09,3.03c3.57,10.7,13.55,17.47,24.25,17.47,2.68,0,5.41-.43,8.1-1.32,13.4-4.48,20.62-18.95,16.14-32.35-3.58-10.7-13.54-17.47-24.24-17.47"/>
          <path class="cls-1" d="m185.79,521.34c-1.28,0-2.57.2-3.84.63-6.35,2.12-9.77,8.98-7.65,15.33,1.69,5.08,6.42,8.28,11.49,8.28,1.28,0,2.56-.2,3.84-.63,6.35-2.12,9.78-8.98,7.65-15.33-1.69-5.07-6.42-8.28-11.49-8.28"/>
          <path class="cls-1" d="m470.64,508.71v9.58c8.81,0,15.98,7.17,15.98,15.98s-7.17,15.98-15.98,15.98-15.98-7.17-15.98-15.98h-9.58c0,14.12,11.45,25.57,25.57,25.57s25.57-11.44,25.57-25.57-11.44-25.56-25.57-25.56"/>
          <path class="cls-1" d="m470.64,522.16c-6.69,0-12.12,5.42-12.12,12.12s5.43,12.12,12.12,12.12,12.12-5.42,12.12-12.12-5.43-12.12-12.12-12.12"/>
        </g>
        <g>
          <path class="cls-1" d="m135.23,101.85c4.54,0,9.08-1.73,12.54-5.2,6.93-6.93,6.93-18.16,0-25.09-3.46-3.46-8-5.2-12.54-5.2s-9.08,1.73-12.54,5.2c-6.93,6.93-6.93,18.16,0,25.09,3.46,3.46,8,5.2,12.54,5.2m0-29.07c2.9,0,5.79,1.1,8,3.31,4.42,4.42,4.42,11.59,0,16.01-2.21,2.21-5.11,3.31-8,3.31s-5.79-1.1-8-3.31c-4.42-4.42-4.42-11.59,0-16.01,2.21-2.21,5.11-3.31,8-3.31"/>
          <path class="cls-1" d="m132.02,122.96h5.44c1.71,0,3.11-6.16,3.11-7.86v-.15c4.38-.76,8.63-2.45,12.44-5.06,1.17,1.08,5.01,3.52,6.87,3.52.33,0,.6-.07.79-.26l3.85-3.85c1.17-1.17-1.98-6.27-3.27-7.65,2.66-3.89,4.37-8.22,5.11-12.69,2.72-.49,6.53-1.57,6.53-2.82v-5.44c0-1.45-4.34-2.67-6.69-3.02-.81-4.15-2.46-8.18-4.95-11.8,1.28-1.38,4.44-6.48,3.27-7.66l-3.85-3.85c-.18-.18-.44-.26-.78-.26-1.86,0-5.7,2.43-6.87,3.52-3.81-2.62-8.08-4.31-12.46-5.07-.18-2.1-1.5-7.3-3.09-7.3h-5.44c-1.4,0-2.58,4.74-2.97,7.41-4.16.81-8.19,2.46-11.81,4.95h0c-1.03-1.03-4.95-3.52-6.85-3.52-.34,0-.62.08-.8.26l-3.85,3.84c-1.02,1.03,1.72,5.49,3.32,7.58-2.5,3.62-4.15,7.63-4.98,11.79h-1.01c-1.71,0-7.86,1.4-7.86,3.11v5.44c0,1.71,6.15,3.11,7.86,3.11h.89c.76,4.37,2.45,8.61,5.06,12.41h0c-1.21,1.21-4.47,6.45-3.27,7.66l3.85,3.85c.16.16.39.22.68.22,1.64,0,5.13-2.18,6.9-3.54,3.61,2.49,7.61,4.15,11.76,4.98v.29c0,1.71,1.4,7.86,3.11,7.86m3.1-63.71c6.27,0,12.54,2.4,17.34,7.18,9.57,9.57,9.57,25.1,0,34.67-4.78,4.78-11.06,7.18-17.34,7.18-6.27,0-12.54-2.4-17.34-7.18-9.57-9.57-9.57-25.1,0-34.67,4.79-4.78,11.06-7.18,17.34-7.18"/>
          <path class="cls-1" d="m498.59,78.35c4.54,0,9.08-1.73,12.54-5.2,6.93-6.93,6.93-18.16,0-25.09-3.46-3.46-8-5.2-12.54-5.2s-9.08,1.73-12.54,5.2c-6.93,6.93-6.93,18.16,0,25.09,3.46,3.46,8,5.2,12.54,5.2m0-29.06c2.9,0,5.79,1.1,8,3.31,4.42,4.42,4.42,11.59,0,16.01-2.21,2.21-5.11,3.31-8,3.31s-5.79-1.1-8-3.31c-4.42-4.42-4.42-11.59,0-16.01,2.21-2.21,5.11-3.32,8-3.32"/>
          <path class="cls-1" d="m495.39,99.45h5.44c1.71,0,3.11-6.16,3.11-7.86v-.15c4.38-.76,8.63-2.45,12.44-5.06,1.17,1.08,5.01,3.52,6.87,3.52.33,0,.6-.07.79-.26l3.85-3.85c1.17-1.17-1.98-6.27-3.27-7.65,2.66-3.89,4.37-8.22,5.11-12.69,2.72-.49,6.53-1.57,6.53-2.83v-5.44c0-1.45-4.34-2.67-6.69-3.02-.81-4.15-2.46-8.18-4.95-11.8,1.28-1.38,4.44-6.48,3.27-7.66l-3.85-3.85c-.18-.18-.44-.26-.79-.26-1.86,0-5.7,2.43-6.87,3.52-3.81-2.62-8.08-4.31-12.46-5.07-.18-2.1-1.5-7.3-3.08-7.3h-5.44c-1.4,0-2.58,4.74-2.97,7.42-4.16.81-8.19,2.46-11.81,4.95h0c-1.03-1.03-4.95-3.52-6.85-3.52-.34,0-.62.08-.8.27l-3.85,3.84c-1.03,1.03,1.72,5.49,3.32,7.58-2.5,3.62-4.15,7.63-4.98,11.79h-1.01c-1.71,0-7.86,1.4-7.86,3.11v5.44c0,1.71,6.15,3.11,7.86,3.11h.89c.77,4.37,2.45,8.61,5.06,12.41h0c-1.21,1.21-4.47,6.45-3.27,7.66l3.85,3.85c.16.16.39.22.68.22,1.64,0,5.13-2.18,6.9-3.54,3.61,2.49,7.62,4.15,11.76,4.98v.29c0,1.71,1.4,7.86,3.11,7.86m3.1-63.71c6.27,0,12.54,2.4,17.34,7.18,9.57,9.57,9.57,25.1,0,34.67-4.78,4.78-11.06,7.18-17.34,7.18-6.27,0-12.55-2.4-17.34-7.18-9.57-9.57-9.57-25.1,0-34.67,4.79-4.79,11.06-7.18,17.34-7.18"/>
          <path class="cls-1" d="m744.8,98.74c3.58,0,7.18-1.07,10.31-3.32,7.96-5.71,9.8-16.78,4.1-24.76-3.46-4.84-8.91-7.41-14.44-7.41-3.57,0-7.19,1.07-10.31,3.32-7.96,5.71-9.8,16.78-4.1,24.76,3.46,4.84,8.91,7.41,14.44,7.41m-.03-29.07c3.52,0,7,1.65,9.21,4.73,3.64,5.09,2.47,12.16-2.62,15.8-2,1.43-4.3,2.12-6.58,2.12-3.53,0-7-1.65-9.21-4.73-3.64-5.09-2.47-12.16,2.62-15.8,2-1.43,4.3-2.12,6.59-2.12"/>
          <path class="cls-1" d="m740.74,119.9c1.67,0,3.96-5.62,4.23-7.26l.03-.15c4.45-.04,8.92-1.01,13.1-2.96,1.03,1.33,4.74,4.63,6.48,4.63.21,0,.39-.05.54-.15l4.42-3.16c1.35-.97-.93-6.51-1.97-8.09,3.27-3.4,5.65-7.4,7.11-11.69,2.77-.04,6.7-.49,6.9-1.72l.89-5.37c.23-1.43-3.84-3.35-6.11-4.07-.12-4.23-1.09-8.47-2.95-12.45,1.49-1.15,5.44-5.67,4.48-7.02l-3.16-4.42c-.21-.3-.64-.42-1.19-.42-2,0-5.66,1.57-6.89,2.39-3.33-3.21-7.26-5.57-11.46-7.03.17-2.1-.29-7.45-1.85-7.71l-5.37-.89h-.1c-1.37,0-3.24,4.33-4.04,6.84-4.24.12-8.48,1.09-12.46,2.95h0c-.89-1.24-4.68-4.63-6.48-4.63-.21,0-.4.05-.55.16l-4.42,3.16c-1.17.84.8,5.7,2.04,8.02-3.05,3.15-5.35,6.85-6.84,10.81l-1-.17c-.32-.06-.83-.08-1.42-.08-2.48,0-6.61.51-6.85,1.87l-.89,5.37c-.28,1.68,5.56,4.07,7.25,4.35l.87.15c.04,4.44,1.01,8.9,2.96,13.07h0c-1.39,1-5.47,5.63-4.47,7.02l3.16,4.42c.18.25.55.36,1.04.36,1.78,0,5.16-1.42,6.98-2.4,3.15,3.04,6.84,5.34,10.8,6.83l-.05.29c-.28,1.68.09,7.98,1.79,8.26l5.37.89h.12m3.95-63.58c7.64,0,15.17,3.56,19.95,10.24,7.88,11.01,5.35,26.32-5.66,34.2-4.32,3.1-9.31,4.59-14.25,4.59-7.64,0-15.17-3.56-19.95-10.24-7.88-11.01-5.35-26.32,5.66-34.2,4.32-3.1,9.32-4.59,14.26-4.59"/>
          <path class="cls-1" d="m187.39,75.97h3.75c1.17,0,2.15-4.25,2.15-5.42v-.1c3.02-.53,5.95-1.69,8.58-3.49.8.75,3.45,2.42,4.74,2.42.23,0,.42-.06.54-.18l2.65-2.65c.81-.81-1.37-4.32-2.25-5.27,1.83-2.67,3.01-5.67,3.52-8.75,1.87-.34,4.5-1.08,4.5-1.95v-3.75c0-1-2.99-1.85-4.61-2.08-.56-2.87-1.69-5.63-3.4-8.13.88-.94,3.06-4.47,2.25-5.27l-2.65-2.65c-.12-.12-.31-.18-.54-.18-1.28,0-3.93,1.68-4.74,2.42-2.63-1.8-5.56-2.97-8.58-3.49-.12-1.45-1.04-5.03-2.13-5.03h-3.75c-.96,0-1.78,3.27-2.05,5.11-2.87.56-5.64,1.69-8.14,3.41h0c-.7-.7-3.41-2.43-4.73-2.43-.24,0-.43.06-.56.19l-2.65,2.65c-.7.7,1.18,3.78,2.28,5.23-1.72,2.49-2.87,5.26-3.43,8.12h-.69c-1.17,0-5.42.96-5.42,2.15v3.75c0,1.17,4.25,2.14,5.42,2.14h.61c.53,3.02,1.69,5.94,3.49,8.56h0c-.83.83-3.08,4.44-2.25,5.27l2.65,2.65c.11.1.27.16.46.16,1.13,0,3.53-1.5,4.75-2.44,2.49,1.72,5.25,2.86,8.1,3.42v.2c0,1.17.96,5.41,2.15,5.41m2.14-43.9c4.32,0,8.65,1.65,11.94,4.95,6.6,6.6,6.6,17.3,0,23.89-3.3,3.3-7.62,4.95-11.94,4.95s-8.65-1.65-11.94-4.95c-6.6-6.6-6.6-17.29,0-23.89,3.3-3.3,7.62-4.95,11.94-4.95"/>
          <path class="cls-1" d="m189.37,60.61c6.3,0,11.41-5.11,11.41-11.41s-5.11-11.41-11.41-11.41-11.41,5.11-11.41,11.41,5.11,11.41,11.41,11.41"/>
          <path class="cls-1" d="m198.79,125.51h3.75c1.17,0,2.14-4.25,2.14-5.42v-.1c3.02-.53,5.95-1.68,8.58-3.49.8.75,3.45,2.43,4.74,2.43.23,0,.42-.06.54-.18l2.65-2.65c.81-.81-1.37-4.33-2.25-5.27,1.83-2.67,3.01-5.66,3.52-8.75,1.87-.34,4.5-1.08,4.5-1.95v-3.75c0-1-2.99-1.85-4.61-2.08-.56-2.87-1.69-5.63-3.4-8.13.88-.94,3.06-4.46,2.25-5.27l-2.65-2.65c-.12-.12-.31-.18-.54-.18-1.28,0-3.93,1.68-4.74,2.42-2.63-1.8-5.56-2.97-8.58-3.49-.12-1.45-1.04-5.03-2.13-5.03h-3.75c-.96,0-1.78,3.27-2.04,5.12-2.87.56-5.64,1.69-8.14,3.41h0c-.7-.7-3.41-2.43-4.73-2.43-.24,0-.43.06-.56.19l-2.65,2.65c-.7.7,1.18,3.78,2.28,5.22-1.72,2.49-2.87,5.26-3.43,8.12h-.69c-1.17,0-5.42.96-5.42,2.15v3.75c0,1.18,4.24,2.15,5.42,2.15h.61c.53,3.02,1.69,5.94,3.49,8.55h0c-.83.83-3.08,4.45-2.25,5.28l2.65,2.65c.11.1.27.16.46.16,1.13,0,3.53-1.5,4.75-2.44,2.49,1.72,5.25,2.86,8.1,3.43v.2c0,1.17.96,5.41,2.15,5.41m2.14-43.9c4.32,0,8.65,1.65,11.94,4.95,6.6,6.6,6.6,17.3,0,23.89-3.3,3.3-7.62,4.95-11.94,4.95s-8.65-1.65-11.94-4.95c-6.6-6.6-6.6-17.29,0-23.89,3.3-3.3,7.62-4.95,11.94-4.95"/>
          <path class="cls-1" d="m726.61,169.74h3.75c1.17,0,2.15-4.25,2.15-5.42v-.1c3.02-.53,5.95-1.68,8.58-3.49.8.75,3.45,2.42,4.74,2.42.23,0,.42-.06.55-.18l2.65-2.65c.81-.81-1.37-4.32-2.25-5.27,1.83-2.67,3.01-5.66,3.52-8.75,1.87-.34,4.51-1.08,4.51-1.95v-3.75c0-1-2.99-1.85-4.61-2.08-.56-2.87-1.69-5.63-3.4-8.13.88-.94,3.06-4.46,2.25-5.27l-2.65-2.65c-.12-.12-.31-.18-.54-.18-1.28,0-3.93,1.68-4.74,2.42-2.63-1.8-5.56-2.97-8.58-3.49-.12-1.45-1.03-5.03-2.13-5.03h-3.75c-.96,0-1.78,3.27-2.04,5.12-2.87.56-5.64,1.69-8.14,3.41h0c-.7-.7-3.41-2.43-4.73-2.43-.23,0-.43.06-.56.19l-2.65,2.65c-.7.7,1.18,3.78,2.28,5.22-1.72,2.49-2.87,5.26-3.43,8.12h-.69c-1.17,0-5.42.96-5.42,2.15v3.75c0,1.18,4.24,2.15,5.42,2.15h.61c.53,3.02,1.68,5.94,3.49,8.56h0c-.83.83-3.08,4.45-2.25,5.28l2.65,2.65c.11.1.27.16.46.16,1.13,0,3.53-1.5,4.75-2.44,2.49,1.72,5.25,2.86,8.1,3.43v.2c0,1.17.96,5.42,2.15,5.42m2.14-43.9c4.32,0,8.65,1.65,11.94,4.95,6.6,6.6,6.6,17.29,0,23.89-3.3,3.3-7.62,4.95-11.95,4.95s-8.65-1.65-11.94-4.95c-6.6-6.6-6.6-17.29,0-23.89,3.3-3.3,7.62-4.95,11.94-4.95"/>
          <path class="cls-1" d="m613.61,152.28h3.75c1.17,0,2.15-4.25,2.15-5.42v-.1c3.02-.53,5.95-1.68,8.58-3.49.8.75,3.45,2.42,4.74,2.42.23,0,.42-.06.55-.18l2.65-2.65c.81-.81-1.37-4.32-2.25-5.27,1.84-2.67,3.01-5.66,3.52-8.75,1.87-.34,4.51-1.08,4.51-1.95v-3.75c0-1-2.99-1.85-4.62-2.08-.56-2.87-1.69-5.63-3.4-8.13.88-.95,3.06-4.47,2.25-5.27l-2.65-2.65c-.12-.12-.31-.18-.54-.18-1.28,0-3.93,1.68-4.74,2.42-2.63-1.8-5.56-2.97-8.58-3.49-.12-1.45-1.04-5.03-2.13-5.03h-3.75c-.96,0-1.78,3.27-2.04,5.12-2.87.56-5.64,1.69-8.14,3.41h0c-.7-.7-3.4-2.43-4.72-2.43-.24,0-.43.06-.56.19l-2.65,2.65c-.7.7,1.18,3.78,2.28,5.23-1.72,2.49-2.87,5.26-3.43,8.12h-.69c-1.17,0-5.42.96-5.42,2.15v3.75c0,1.18,4.24,2.15,5.42,2.15h.61c.53,3.02,1.68,5.94,3.49,8.56h0c-.83.83-3.08,4.45-2.25,5.28l2.65,2.65c.1.1.27.16.46.16,1.13,0,3.53-1.5,4.75-2.44,2.49,1.72,5.25,2.86,8.1,3.43v.2c0,1.17.96,5.41,2.15,5.41m2.14-43.9c4.32,0,8.65,1.65,11.94,4.95,6.6,6.6,6.6,17.3,0,23.89-3.3,3.3-7.62,4.95-11.95,4.95s-8.65-1.65-11.94-4.95c-6.6-6.6-6.6-17.29,0-23.89,3.3-3.3,7.62-4.95,11.94-4.95"/>
          <path class="cls-1" d="m123.62,175.23h3.75c1.17,0,2.14-4.25,2.14-5.42v-.1c3.02-.53,5.95-1.68,8.58-3.49.8.75,3.45,2.42,4.74,2.42.23,0,.42-.06.55-.18l2.65-2.65c.81-.81-1.37-4.32-2.25-5.27,1.83-2.67,3.01-5.67,3.52-8.75,1.87-.34,4.5-1.08,4.5-1.95v-3.75c0-1-2.99-1.85-4.61-2.08-.56-2.87-1.69-5.63-3.4-8.13.88-.94,3.06-4.46,2.25-5.27l-2.65-2.65c-.12-.12-.31-.18-.54-.18-1.28,0-3.93,1.68-4.74,2.42-2.63-1.8-5.56-2.97-8.58-3.49-.12-1.45-1.04-5.03-2.13-5.03h-3.75c-.96,0-1.78,3.27-2.05,5.12-2.87.56-5.64,1.69-8.14,3.41h0c-.7-.7-3.41-2.43-4.73-2.43-.24,0-.43.06-.56.19l-2.65,2.65c-.7.7,1.18,3.78,2.28,5.23-1.72,2.49-2.87,5.26-3.43,8.12h-.69c-1.17,0-5.42.96-5.42,2.15v3.75c0,1.17,4.24,2.14,5.42,2.14h.61c.53,3.02,1.68,5.94,3.49,8.56h0c-.83.83-3.08,4.44-2.25,5.28l2.65,2.65c.11.1.27.16.46.16,1.13,0,3.53-1.5,4.75-2.44,2.49,1.72,5.25,2.86,8.1,3.43v.2c0,1.17.96,5.42,2.15,5.42m2.14-43.9c4.32,0,8.65,1.65,11.94,4.95,6.6,6.6,6.6,17.3,0,23.89-3.3,3.3-7.62,4.95-11.94,4.95-4.32,0-8.65-1.65-11.94-4.95-6.6-6.6-6.6-17.29,0-23.89,3.3-3.3,7.62-4.95,11.94-4.95"/>
          <path class="cls-1" d="m65.61,254.37h3.75c1.17,0,2.14-4.25,2.14-5.42v-.1c3.02-.53,5.95-1.68,8.58-3.49.8.75,3.45,2.42,4.74,2.42.23,0,.42-.06.55-.18l2.65-2.65c.81-.81-1.37-4.32-2.25-5.27,1.83-2.67,3.01-5.66,3.52-8.75,1.87-.34,4.5-1.08,4.5-1.95v-3.75c0-1-2.99-1.85-4.61-2.08-.56-2.87-1.69-5.63-3.4-8.13.88-.94,3.06-4.47,2.25-5.27l-2.65-2.65c-.12-.12-.31-.18-.54-.18-1.28,0-3.93,1.68-4.74,2.43-2.63-1.8-5.56-2.97-8.58-3.49-.12-1.45-1.04-5.03-2.13-5.03h-3.75c-.96,0-1.78,3.27-2.05,5.12-2.87.56-5.64,1.69-8.14,3.41h0c-.7-.7-3.41-2.43-4.73-2.43-.24,0-.43.06-.56.19l-2.65,2.65c-.7.7,1.18,3.78,2.28,5.23-1.72,2.49-2.87,5.26-3.43,8.12h-.69c-1.17,0-5.42.96-5.42,2.15v3.75c0,1.18,4.24,2.15,5.42,2.15h.61c.53,3.02,1.68,5.94,3.49,8.55h0c-.83.83-3.08,4.45-2.25,5.28l2.65,2.65c.11.1.27.15.46.15,1.13,0,3.53-1.5,4.75-2.44,2.49,1.72,5.25,2.86,8.1,3.43v.2c0,1.17.96,5.41,2.15,5.41m2.14-43.9c4.32,0,8.65,1.65,11.94,4.95,6.6,6.6,6.6,17.29,0,23.89-3.3,3.3-7.62,4.95-11.94,4.95-4.32,0-8.65-1.65-11.94-4.95-6.6-6.6-6.6-17.29,0-23.89,3.3-3.3,7.62-4.95,11.94-4.95"/>
          <path class="cls-1" d="m37.59,209.35c.98,0,2.36-3.19,2.89-4.88,3.03-.02,5.94-.68,8.6-1.85l.11.17c.61.87,3.27,3.3,4.51,3.3.14,0,.26-.03.36-.1l3.07-2.16c.96-.68-.68-4.7-1.36-5.67l-.06-.08c2.17-2.16,3.9-4.8,5.01-7.78.25.04.61.06,1.02.06,1.72,0,4.43-.33,4.59-1.24l.65-3.69c.19-1.13-3.6-2.76-4.88-3.03-.03-3.25-.79-6.36-2.15-9.19,1.34-1.35,3.06-3.47,2.56-4.18l-2.15-3.07c-.15-.21-.46-.31-.87-.31-1.14,0-3.03.7-4.1,1.25-2.1-2.03-4.63-3.64-7.47-4.7.18-1.29-.06-5.41-1.18-5.61l-3.69-.65h-.08c-1.12,0-2.67,3.64-2.94,4.88-3.19.04-6.25.77-9.04,2.07-.82-.99-3.13-3-4.26-3-.14,0-.27.04-.37.1l-3.07,2.16c-.79.56.42,3.7,1.26,5.36-2.03,2.1-3.64,4.63-4.71,7.47h0c-.24-.05-.62-.06-1.06-.06-1.69,0-4.38.33-4.54,1.26l-.65,3.69c-.18.98,3.15,2.42,4.88,2.96.02,3.03.68,5.96,1.86,8.62l-.57.4c-.96.68-3.89,3.9-3.21,4.87l2.16,3.07c.15.21.45.3.85.3,1.43,0,4.06-1.12,4.82-1.66l.5-.35c2.16,2.16,4.79,3.89,7.76,5h0c-.2,1.17.03,5.41,1.18,5.62l3.69.65h.07m2.68-43.59c.97,0,1.95.08,2.94.26,9.19,1.61,15.33,10.37,13.72,19.56-1.44,8.21-8.57,13.98-16.62,13.98-.97,0-1.95-.08-2.94-.26-9.19-1.61-15.33-10.37-13.72-19.56,1.43-8.21,8.57-13.98,16.61-13.98"/>
          <path class="cls-1" d="m584.95,108.14c.09,0,.18,0,.26-.04l5.71-1.85c1.79-.58,1.17-7.53.58-9.32l-.05-.15c4.35-2.29,8.23-5.51,11.34-9.56,1.29.6,4.72,1.54,7.02,1.54,1.05,0,1.87-.19,2.14-.71l2.73-5.35c.83-1.64-4.22-5.92-6.04-6.93,1.48-4.99,1.79-10.12,1.04-15.08,2.68-1.44,6.32-3.88,5.89-5.19l-1.85-5.71c-.3-.91-2.17-1.21-4.19-1.21-1.38,0-2.81.14-3.86.32-2.27-4.09-5.37-7.75-9.21-10.71.87-1.88,2.46-8.32.82-9.16l-5.35-2.73c-.12-.06-.26-.09-.42-.09-1.85,0-5.58,4.45-6.51,6.13-3.25-.96-6.57-1.42-9.86-1.42-1.67,0-3.32.12-4.95.35-.86-2.04-3.75-6.66-5.47-6.66-.09,0-.18,0-.27.04l-5.71,1.85c-1.46.48-1.09,5.87-.59,8.81-4.09,2.27-7.76,5.37-10.72,9.22h0c-1.16-.59-4.63-1.54-6.98-1.54-1.07,0-1.91.2-2.18.73l-2.73,5.35c-.72,1.42,3.68,5.18,6.07,6.83-1.39,4.65-1.77,9.44-1.21,14.08l-1.05.34c-1.79.58-7.79,4.15-7.21,5.95l1.86,5.71c.29.89,2.14,1.18,4.15,1.18s4.26-.31,5.16-.6l.93-.31c2.29,4.33,5.5,8.21,9.54,11.31h0c-.86,1.68-2.5,8.3-.81,9.16l5.35,2.73c.1.06.22.08.35.08,1.62,0,4.95-3.93,6.48-6.15,3.28.98,6.63,1.46,9.95,1.46,1.37,0,2.74-.08,4.09-.24l.1.31c.56,1.71,3.82,7.23,5.68,7.23m-9.82-69.34c4.14,0,8.34.95,12.28,2.96,13.32,6.79,18.61,23.1,11.81,36.41-4.78,9.38-14.28,14.77-24.14,14.77-4.14,0-8.34-.95-12.28-2.96-13.32-6.79-18.61-23.1-11.81-36.42,4.78-9.38,14.28-14.77,24.14-14.77"/>
          <path class="cls-1" d="m575.28,85.68c1.95,0,3.93-.31,5.88-.93,10.01-3.25,15.5-14,12.25-24.01-2.61-8.06-10.08-13.18-18.12-13.18-1.95,0-3.93.31-5.88.93-10.01,3.25-15.5,14-12.25,24.01,2.62,8.06,10.08,13.18,18.12,13.18"/>
          <path class="cls-1" d="m312.43,111.26h3.75c1.17,0,2.14-4.25,2.14-5.42v-.1c3.02-.53,5.95-1.68,8.58-3.49.8.75,3.45,2.42,4.74,2.42.23,0,.42-.06.55-.18l2.65-2.65c.81-.81-1.37-4.32-2.25-5.27,1.83-2.67,3.01-5.67,3.52-8.75,1.87-.34,4.51-1.08,4.51-1.95v-3.75c0-1-2.99-1.85-4.62-2.08-.56-2.87-1.69-5.63-3.4-8.13.88-.94,3.06-4.47,2.25-5.27l-2.65-2.65c-.12-.12-.31-.18-.54-.18-1.29,0-3.93,1.68-4.74,2.42-2.63-1.8-5.56-2.97-8.58-3.49-.12-1.45-1.04-5.03-2.13-5.03h-3.75c-.96,0-1.78,3.27-2.05,5.12-2.87.56-5.64,1.69-8.14,3.41h0c-.7-.7-3.4-2.43-4.73-2.43-.23,0-.43.06-.56.19l-2.65,2.65c-.7.7,1.18,3.78,2.28,5.22-1.72,2.49-2.87,5.26-3.43,8.12h-.69c-1.17,0-5.42.96-5.42,2.15v3.75c0,1.18,4.25,2.15,5.42,2.15h.61c.53,3.02,1.68,5.94,3.49,8.55h0c-.83.83-3.08,4.45-2.25,5.28l2.65,2.65c.1.1.27.16.46.16,1.13,0,3.53-1.5,4.75-2.44,2.49,1.72,5.25,2.86,8.1,3.43v.2c0,1.17.96,5.41,2.15,5.41m2.14-43.9c4.32,0,8.65,1.65,11.94,4.95,6.6,6.6,6.6,17.3,0,23.89-3.3,3.3-7.62,4.95-11.94,4.95s-8.65-1.65-11.94-4.95c-6.6-6.6-6.6-17.29,0-23.89,3.3-3.3,7.62-4.95,11.94-4.95"/>
          <path class="cls-1" d="m258.19,97.7v-14.8c-13.61,0-24.67-11.06-24.67-24.67s11.07-24.68,24.67-24.68,24.68,11.07,24.68,24.68h14.81c0-21.8-17.68-39.48-39.48-39.48-21.8,0-39.48,17.68-39.48,39.48,0,21.8,17.68,39.48,39.48,39.48"/>
          <path class="cls-1" d="m258.19,76.94c10.33,0,18.71-8.38,18.71-18.71s-8.38-18.71-18.71-18.71-18.71,8.38-18.71,18.71,8.38,18.71,18.71,18.71"/>
          <path class="cls-1" d="m61.86,108.84v-14.8c-13.61,0-24.67-11.06-24.67-24.67,0-13.61,11.07-24.68,24.67-24.67,13.61,0,24.68,11.07,24.68,24.67h14.81c0-21.8-17.68-39.48-39.48-39.48-21.8,0-39.48,17.68-39.48,39.48,0,21.8,17.68,39.48,39.48,39.48"/>
          <path class="cls-1" d="m61.86,88.07c10.33,0,18.71-8.38,18.71-18.71s-8.38-18.71-18.71-18.71-18.71,8.38-18.71,18.71,8.38,18.71,18.71,18.71"/>
          <path class="cls-1" d="m413.66,101.57c20.63,0,37.35-16.73,37.35-37.35,0-20.63-16.73-37.35-37.35-37.35v14.01c12.88,0,23.35,10.47,23.35,23.35,0,12.88-10.47,23.35-23.35,23.35s-23.35-10.47-23.35-23.35h-14.01c0,20.63,16.73,37.35,37.35,37.35"/>
          <path class="cls-1" d="m413.66,81.92c9.78,0,17.71-7.93,17.71-17.71,0-9.78-7.93-17.71-17.71-17.71s-17.71,7.93-17.71,17.71c0,9.78,7.93,17.71,17.71,17.71"/>
          <path class="cls-1" d="m268.62,136.82c14.12,0,25.57-11.44,25.57-25.56,0-14.12-11.44-25.56-25.57-25.56v9.58c8.82,0,15.98,7.17,15.98,15.98,0,8.81-7.17,15.98-15.98,15.98s-15.98-7.17-15.98-15.98h-9.58c0,14.12,11.45,25.57,25.57,25.57"/>
          <path class="cls-1" d="m268.62,123.38c6.69,0,12.12-5.42,12.12-12.12,0-6.7-5.43-12.12-12.12-12.12s-12.12,5.43-12.12,12.12c0,6.69,5.42,12.12,12.12,12.12"/>
          <path class="cls-1" d="m781.01,222.67c15.64,0,30.44-9.35,36.64-24.76,8.14-20.23-1.67-43.22-21.9-51.36l-5.52,13.74c12.63,5.08,18.76,19.47,13.68,32.1-3.87,9.61-13.15,15.47-22.92,15.47-3.06,0-6.17-.57-9.18-1.79-12.63-5.08-18.76-19.48-13.68-32.1l-13.74-5.52c-8.14,20.23,1.67,43.23,21.9,51.36,4.83,1.94,9.82,2.87,14.73,2.87"/>
          <path class="cls-1" d="m781.01,201.91c7.41,0,14.43-4.43,17.36-11.73,3.86-9.59-.79-20.49-10.38-24.35-2.28-.93-4.65-1.36-6.98-1.36-7.41,0-14.43,4.43-17.36,11.74-3.86,9.59.79,20.49,10.38,24.35,2.28.93,4.65,1.36,6.98,1.36"/>
          <path class="cls-1" d="m781.6,153.8l3.58-8.89c-8.18-3.29-12.15-12.61-8.86-20.79,2.51-6.23,8.51-10.02,14.84-10.02,1.98,0,4,.37,5.95,1.16,8.17,3.28,12.15,12.62,8.86,20.79l8.89,3.58c5.27-13.1-1.08-27.99-14.18-33.26-3.13-1.26-6.36-1.85-9.54-1.85-10.13,0-19.71,6.06-23.73,16.03-5.27,13.1,1.08,27.98,14.18,33.26"/>
          <path class="cls-1" d="m791.13,142.21c4.8,0,9.34-2.88,11.25-7.59,2.5-6.21-.51-13.27-6.72-15.76-1.48-.59-3.02-.88-4.52-.88-4.8,0-9.34,2.87-11.25,7.59-2.5,6.21.51,13.27,6.72,15.76,1.48.6,3.02.88,4.51.88"/>
          <path class="cls-1" d="m686.33,73.99c2.68,0,5.42-.43,8.1-1.32,13.4-4.48,20.62-18.95,16.15-32.35-3.58-10.7-13.54-17.47-24.24-17.47-2.68,0-5.42.43-8.1,1.32l3.03,9.09c1.67-.56,3.38-.82,5.05-.82,6.69,0,12.93,4.24,15.16,10.92,2.79,8.35-1.74,17.43-10.09,20.22-1.67.56-3.38.82-5.05.82-6.69,0-12.93-4.24-15.17-10.92l-9.09,3.03c3.58,10.7,13.55,17.47,24.25,17.47"/>
          <path class="cls-1" d="m686.33,60.54c1.28,0,2.57-.2,3.84-.63,6.35-2.12,9.78-8.98,7.65-15.33-1.69-5.07-6.42-8.28-11.49-8.28-1.28,0-2.57.2-3.84.63-6.35,2.12-9.78,8.98-7.65,15.33,1.69,5.07,6.42,8.28,11.49,8.28"/>
          <path class="cls-1" d="m69.41,148.45c14.12,0,25.57-11.44,25.57-25.56s-11.44-25.56-25.57-25.56v9.58c8.81,0,15.98,7.17,15.98,15.98s-7.17,15.98-15.98,15.98c-8.81,0-15.98-7.17-15.98-15.98h-9.58c0,14.12,11.45,25.57,25.57,25.57"/>
          <path class="cls-1" d="m69.41,135.01c6.69,0,12.12-5.42,12.12-12.12,0-6.7-5.43-12.12-12.12-12.12-6.69,0-12.12,5.42-12.12,12.12,0,6.7,5.42,12.12,12.12,12.12"/>
          <path class="cls-1" d="m661.9,122.92c2.68,0,5.42-.43,8.1-1.32,13.4-4.48,20.62-18.95,16.14-32.35-3.58-10.7-13.54-17.47-24.25-17.47-2.68,0-5.42.43-8.1,1.32l3.03,9.09c1.67-.56,3.38-.82,5.05-.82,6.69,0,12.93,4.24,15.16,10.92,2.79,8.35-1.74,17.43-10.09,20.21-1.67.56-3.38.82-5.05.82-6.69,0-12.93-4.24-15.17-10.92l-9.09,3.03c3.58,10.7,13.55,17.47,24.25,17.47"/>
          <path class="cls-1" d="m661.9,109.47c1.28,0,2.57-.2,3.84-.63,6.35-2.12,9.78-8.98,7.65-15.33-1.69-5.07-6.42-8.28-11.49-8.28-1.28,0-2.57.2-3.84.63-6.35,2.12-9.77,8.98-7.65,15.33,1.69,5.07,6.42,8.28,11.49,8.28"/>
          <path class="cls-1" d="m646,84.43c2.68,0,5.42-.43,8.1-1.32l-3.03-9.09c-1.67.56-3.38.82-5.05.82-6.69,0-12.93-4.23-15.16-10.92-2.79-8.35,1.74-17.43,10.09-20.21,1.67-.56,3.38-.82,5.05-.82,6.69,0,12.93,4.24,15.17,10.92l9.09-3.03c-3.57-10.7-13.55-17.47-24.25-17.47-2.68,0-5.41.43-8.1,1.32-13.4,4.48-20.62,18.95-16.14,32.35,3.58,10.7,13.54,17.47,24.24,17.47"/>
          <path class="cls-1" d="m646.01,70.98c1.28,0,2.57-.2,3.84-.63,6.35-2.12,9.77-8.98,7.65-15.33-1.69-5.08-6.42-8.28-11.49-8.28-1.28,0-2.56.2-3.84.63-6.35,2.12-9.78,8.98-7.65,15.33,1.69,5.07,6.42,8.28,11.49,8.28"/>
          <path class="cls-1" d="m361.16,83.61v-9.58c-8.81,0-15.98-7.17-15.98-15.98,0-8.81,7.17-15.98,15.98-15.98s15.98,7.17,15.98,15.98h9.58c0-14.12-11.45-25.57-25.57-25.57-14.12,0-25.57,11.44-25.57,25.57,0,14.13,11.44,25.56,25.57,25.56"/>
          <path class="cls-1" d="m361.16,70.16c6.69,0,12.12-5.42,12.12-12.12,0-6.7-5.43-12.12-12.12-12.12s-12.12,5.42-12.12,12.12c0,6.7,5.43,12.12,12.12,12.12"/>
        </g>
      </g>
    </g>
  </g>
</svg>