<?xml version="1.0" encoding="UTF-8"?>
<svg id="Layer_2" data-name="Layer 2" xmlns="http://www.w3.org/2000/svg" xmlns:xlink="http://www.w3.org/1999/xlink" viewBox="0 0 872.28 622.65">
  <defs>
    <style>
      .cls-1 {
        fill: #c8e3dc;
      }

      .cls-1, .cls-2 {
        stroke-width: 0px;
      }

      .cls-2 {
        fill: none;
      }

      .cls-3 {
        clip-path: url(#clippath-1);
      }

      .cls-4 {
        clip-path: url(#clippath);
      }
    </style>
    <clipPath id="clippath">
      <rect class="cls-2" x="-6.86" y="1" width="886" height="629.57"/>
    </clipPath>
    <clipPath id="clippath-1">
      <rect class="cls-2" x="-11.43" y="1" width="895.14" height="644.57"/>
    </clipPath>
  </defs>
  <g id="Layer_1-2" data-name="Layer 1-2">
    <g class="cls-4">
      <g class="cls-3">
        <g>
          <path class="cls-1" d="m761.62,577.94c-5.22,0-10.44,2.02-14.42,6.09-7.96,8.11-7.96,21.26,0,29.37,3.98,4.05,9.2,6.09,14.42,6.09s10.44-2.02,14.42-6.09c7.96-8.11,7.96-21.26,0-29.37-3.98-4.05-9.2-6.09-14.42-6.09m0,34.02c-3.33,0-6.66-1.29-9.2-3.88-5.08-5.18-5.08-13.57,0-18.74,2.54-2.59,5.87-3.88,9.2-3.88s6.66,1.29,9.2,3.88c5.08,5.18,5.08,13.57,0,18.74-2.54,2.59-5.87,3.88-9.2,3.88"/>
          <path class="cls-1" d="m765.31,553.23h-6.25c-1.97,0-3.57,7.21-3.57,9.2v.17c-5.03.89-9.92,2.87-14.3,5.92-1.34-1.27-5.76-4.13-7.9-4.13-.38,0-.69.09-.9.3l-4.42,4.5c-1.35,1.38,2.28,7.34,3.75,8.95-3.06,4.55-5.02,9.63-5.87,14.86-3.13.57-7.51,1.84-7.51,3.3v6.37c0,1.7,4.99,3.13,7.69,3.53.94,4.86,2.83,9.57,5.69,13.82-1.47,1.61-5.1,7.58-3.75,8.97l4.42,4.5c.2.21.51.3.89.3,2.14,0,6.55-2.85,7.9-4.13,4.38,3.06,9.28,5.05,14.32,5.93.2,2.46,1.72,8.54,3.55,8.54h6.25c1.61,0,2.97-5.54,3.41-8.67,4.78-.95,9.41-2.88,13.58-5.79h0c1.18,1.2,5.69,4.13,7.88,4.13.39,0,.71-.1.93-.3l4.42-4.49c1.17-1.2-1.98-6.43-3.82-8.87,2.87-4.23,4.77-8.93,5.72-13.79h1.16c1.97,0,9.04-1.64,9.04-3.64v-6.37c0-2-7.07-3.64-9.04-3.64h-1.02c-.87-5.11-2.82-10.08-5.82-14.52h0c1.39-1.42,5.14-7.55,3.75-8.97l-4.42-4.5c-.18-.18-.45-.26-.78-.26-1.88,0-5.9,2.56-7.93,4.15-4.15-2.91-8.75-4.86-13.51-5.83v-.34c0-2-1.61-9.2-3.57-9.2m-3.56,74.57c-7.21,0-14.42-2.8-19.93-8.4-11-11.21-11-29.38,0-40.58,5.5-5.6,12.72-8.4,19.93-8.4s14.42,2.8,19.93,8.4c11,11.21,11,29.38,0,40.58-5.51,5.6-12.72,8.4-19.93,8.4"/>
          <path class="cls-1" d="m343.99,605.44c-5.22,0-10.44,2.02-14.42,6.09-7.96,8.11-7.96,21.26,0,29.37,3.98,4.05,9.2,6.09,14.42,6.09s10.43-2.02,14.42-6.09c7.96-8.11,7.96-21.26,0-29.37-3.98-4.05-9.2-6.09-14.42-6.09m0,34.01c-3.33,0-6.66-1.29-9.2-3.88-5.08-5.18-5.08-13.57,0-18.74,2.54-2.59,5.87-3.88,9.2-3.88s6.66,1.29,9.2,3.88c5.08,5.18,5.08,13.57,0,18.74-2.54,2.59-5.87,3.89-9.2,3.89"/>
          <path class="cls-1" d="m347.67,580.74h-6.25c-1.97,0-3.57,7.21-3.57,9.2v.17c-5.04.89-9.92,2.87-14.3,5.92-1.34-1.27-5.76-4.13-7.9-4.13-.38,0-.69.09-.9.3l-4.42,4.5c-1.35,1.38,2.28,7.34,3.75,8.95-3.06,4.55-5.02,9.63-5.87,14.86-3.13.57-7.51,1.84-7.51,3.31v6.37c0,1.7,4.99,3.13,7.69,3.53.94,4.86,2.83,9.57,5.69,13.82-1.47,1.61-5.1,7.58-3.75,8.97l4.42,4.5c.2.21.51.3.9.3,2.14,0,6.55-2.85,7.9-4.13,4.38,3.06,9.28,5.05,14.32,5.93.2,2.46,1.72,8.54,3.54,8.54h6.25c1.61,0,2.97-5.54,3.41-8.68,4.78-.95,9.41-2.88,13.58-5.79h0c1.18,1.2,5.69,4.13,7.88,4.13.39,0,.71-.1.93-.31l4.42-4.49c1.18-1.2-1.98-6.43-3.82-8.87,2.87-4.23,4.77-8.93,5.72-13.79h1.16c1.97,0,9.04-1.64,9.04-3.64v-6.37c0-2-7.07-3.64-9.04-3.64h-1.02c-.88-5.11-2.82-10.08-5.82-14.52h0c1.39-1.42,5.14-7.55,3.75-8.97l-4.42-4.5c-.18-.18-.45-.26-.78-.26-1.88,0-5.9,2.56-7.93,4.15-4.15-2.91-8.76-4.86-13.51-5.83v-.34c0-2-1.61-9.2-3.57-9.2m-3.56,74.57c-7.21,0-14.42-2.8-19.93-8.4-11-11.21-11-29.38,0-40.58,5.5-5.6,12.72-8.4,19.93-8.4s14.43,2.8,19.93,8.4c11,11.21,11,29.38,0,40.58-5.51,5.61-12.72,8.4-19.93,8.4"/>
          <path class="cls-1" d="m61.01,581.57c-4.11,0-8.25,1.26-11.86,3.89-9.15,6.68-11.26,19.64-4.71,28.98,3.98,5.66,10.24,8.67,16.6,8.67,4.1,0,8.26-1.26,11.86-3.89,9.15-6.68,11.26-19.64,4.71-28.98-3.98-5.66-10.24-8.67-16.6-8.67m.03,34.02c-4.05,0-8.05-1.93-10.59-5.53-4.18-5.96-2.84-14.23,3.01-18.49,2.3-1.68,4.94-2.48,7.56-2.48,4.06,0,8.05,1.93,10.59,5.53,4.18,5.96,2.84,14.23-3.01,18.49-2.3,1.68-4.94,2.48-7.57,2.48"/>
          <path class="cls-1" d="m65.68,556.81c-1.92,0-4.55,6.57-4.86,8.5l-.03.17c-5.11.04-10.25,1.18-15.06,3.46-1.18-1.56-5.44-5.41-7.45-5.41-.24,0-.45.05-.62.17l-5.08,3.7c-1.55,1.14,1.07,7.62,2.26,9.46-3.75,3.97-6.5,8.66-8.18,13.69-3.18.04-7.7.57-7.93,2.01l-1.02,6.28c-.27,1.68,4.41,3.92,7.02,4.76.14,4.95,1.25,9.92,3.39,14.57-1.71,1.34-6.25,6.64-5.15,8.22l3.64,5.18c.24.35.73.49,1.37.49,2.3,0,6.51-1.84,7.92-2.79,3.83,3.76,8.35,6.52,13.17,8.23-.19,2.46.33,8.72,2.13,9.02l6.17,1.04h.12c1.57,0,3.72-5.07,4.65-8,4.87-.14,9.75-1.28,14.32-3.45h0c1.02,1.45,5.38,5.41,7.44,5.41.24,0,.46-.05.63-.18l5.08-3.7c1.35-.99-.91-6.67-2.34-9.39,3.51-3.69,6.15-8.02,7.86-12.66l1.15.19c.37.06.96.1,1.64.1,2.85,0,7.6-.6,7.87-2.19l1.02-6.28c.32-1.97-6.39-4.76-8.34-5.09l-1-.17c-.04-5.2-1.16-10.42-3.4-15.3h0c1.59-1.17,6.28-6.59,5.14-8.22l-3.64-5.18c-.2-.29-.63-.42-1.19-.42-2.04,0-5.93,1.67-8.03,2.8-3.63-3.56-7.86-6.25-12.41-7.99l.05-.34c.32-1.97-.11-9.34-2.05-9.67l-6.17-1.04h-.14m-4.54,74.42c-8.78,0-17.44-4.17-22.93-11.99-9.06-12.89-6.15-30.81,6.51-40.03,4.97-3.63,10.7-5.37,16.37-5.37,8.78,0,17.44,4.17,22.93,11.99,9.06,12.89,6.15,30.81-6.51,40.03-4.97,3.63-10.71,5.37-16.38,5.37"/>
          <path class="cls-1" d="m701.67,608.22h-4.31c-1.35,0-2.47,4.97-2.47,6.35v.12c-3.47.62-6.84,1.98-9.86,4.08-.93-.88-3.97-2.84-5.44-2.84-.27,0-.48.06-.62.21l-3.04,3.11c-.94.95,1.57,5.06,2.58,6.17-2.11,3.13-3.46,6.64-4.04,10.24-2.15.4-5.17,1.27-5.17,2.28v4.39c0,1.17,3.43,2.17,5.29,2.44.64,3.36,1.95,6.59,3.91,9.52-1.01,1.1-3.52,5.23-2.58,6.17l3.04,3.11c.14.14.36.21.62.21,1.47,0,4.52-1.97,5.44-2.84,3.02,2.11,6.39,3.48,9.87,4.08.14,1.7,1.19,5.89,2.45,5.89h4.31c1.11,0,2.04-3.82,2.36-5.98,3.3-.65,6.49-1.98,9.36-4h0c.81.82,3.92,2.85,5.43,2.85.28,0,.49-.06.64-.22l3.04-3.11c.81-.82-1.36-4.43-2.63-6.12,1.98-2.91,3.3-6.16,3.94-9.51h.8c1.35,0,6.23-1.13,6.23-2.51v-4.39c0-1.38-4.88-2.5-6.23-2.5h-.7c-.61-3.53-1.95-6.95-4.01-10.02h0c.96-.97,3.54-5.2,2.58-6.17l-3.04-3.11c-.13-.12-.31-.18-.53-.18-1.3,0-4.06,1.75-5.47,2.86-2.86-2.01-6.04-3.35-9.31-4.01v-.24c0-1.38-1.11-6.33-2.47-6.33m-2.46,51.39c-4.97,0-9.94-1.93-13.73-5.79-7.58-7.72-7.58-20.25,0-27.97,3.8-3.87,8.76-5.79,13.73-5.79s9.94,1.93,13.73,5.79c7.58,7.72,7.58,20.24,0,27.97-3.8,3.87-8.76,5.79-13.73,5.79"/>
          <path class="cls-1" d="m688.57,550.24h-4.31c-1.35,0-2.46,4.97-2.46,6.35v.12c-3.47.62-6.84,1.97-9.86,4.08-.93-.88-3.97-2.85-5.44-2.85-.27,0-.48.06-.62.21l-3.04,3.1c-.94.95,1.57,5.07,2.58,6.17-2.11,3.13-3.46,6.63-4.04,10.24-2.15.4-5.17,1.27-5.17,2.28v4.39c0,1.17,3.43,2.17,5.29,2.44.64,3.36,1.95,6.59,3.91,9.52-1.01,1.1-3.52,5.22-2.58,6.17l3.04,3.1c.14.14.36.21.62.21,1.47,0,4.52-1.97,5.44-2.84,3.02,2.11,6.39,3.48,9.87,4.08.14,1.7,1.19,5.89,2.45,5.89h4.31c1.11,0,2.04-3.82,2.35-5.99,3.3-.65,6.49-1.98,9.36-4h0c.81.82,3.92,2.85,5.43,2.85.28,0,.49-.06.64-.22l3.04-3.1c.81-.82-1.36-4.43-2.63-6.11,1.98-2.91,3.3-6.16,3.94-9.51h.8c1.35,0,6.23-1.13,6.23-2.51v-4.39c0-1.39-4.87-2.51-6.23-2.51h-.7c-.61-3.53-1.95-6.95-4.01-10.01h0c.96-.97,3.54-5.21,2.58-6.18l-3.04-3.1c-.13-.12-.31-.18-.53-.18-1.3,0-4.06,1.75-5.47,2.86-2.86-2.01-6.04-3.35-9.31-4.02v-.24c0-1.38-1.11-6.33-2.47-6.33m-2.46,51.39c-4.97,0-9.94-1.93-13.73-5.79-7.58-7.72-7.58-20.25,0-27.97,3.8-3.87,8.76-5.79,13.73-5.79s9.94,1.93,13.73,5.79c7.58,7.72,7.58,20.24,0,27.97-3.8,3.87-8.76,5.79-13.73,5.79"/>
          <path class="cls-1" d="m81.91,498.47h-4.31c-1.35,0-2.47,4.97-2.47,6.35v.12c-3.47.62-6.84,1.97-9.86,4.08-.93-.88-3.97-2.84-5.44-2.84-.27,0-.48.06-.63.21l-3.04,3.1c-.94.95,1.57,5.06,2.58,6.17-2.11,3.13-3.46,6.63-4.04,10.24-2.15.4-5.18,1.27-5.18,2.28v4.39c0,1.17,3.43,2.17,5.29,2.44.64,3.36,1.95,6.59,3.91,9.52-1.01,1.1-3.52,5.22-2.58,6.17l3.05,3.1c.14.14.35.21.62.21,1.47,0,4.52-1.97,5.44-2.84,3.02,2.11,6.39,3.48,9.87,4.08.14,1.7,1.18,5.89,2.45,5.89h4.31c1.11,0,2.04-3.82,2.35-5.99,3.3-.65,6.49-1.98,9.36-4h0c.81.82,3.92,2.85,5.43,2.85.27,0,.49-.06.64-.22l3.04-3.1c.81-.82-1.36-4.43-2.63-6.11,1.98-2.91,3.3-6.16,3.94-9.51h.8c1.35,0,6.23-1.13,6.23-2.51v-4.39c0-1.39-4.87-2.51-6.23-2.51h-.7c-.61-3.53-1.94-6.95-4.01-10.02h0c.96-.97,3.54-5.21,2.58-6.18l-3.04-3.1c-.13-.12-.31-.18-.53-.18-1.3,0-4.06,1.75-5.47,2.86-2.86-2.01-6.04-3.35-9.31-4.02v-.24c0-1.38-1.11-6.35-2.47-6.35m-2.46,51.39c-4.97,0-9.94-1.93-13.73-5.79-7.58-7.72-7.58-20.24,0-27.97,3.8-3.87,8.76-5.79,13.74-5.79s9.94,1.93,13.73,5.79c7.58,7.72,7.58,20.24,0,27.97-3.8,3.87-8.76,5.79-13.73,5.79"/>
          <path class="cls-1" d="m211.79,518.9h-4.31c-1.35,0-2.47,4.97-2.47,6.35v.12c-3.47.62-6.84,1.97-9.86,4.08-.93-.88-3.97-2.84-5.44-2.84-.27,0-.48.06-.63.21l-3.04,3.1c-.94.95,1.57,5.06,2.58,6.17-2.12,3.13-3.46,6.63-4.04,10.24-2.15.4-5.18,1.27-5.18,2.28v4.39c0,1.17,3.43,2.17,5.31,2.44.64,3.36,1.95,6.59,3.91,9.52-1.01,1.12-3.52,5.23-2.58,6.17l3.04,3.1c.14.14.36.21.62.21,1.47,0,4.52-1.97,5.44-2.84,3.02,2.11,6.39,3.48,9.87,4.08.14,1.7,1.19,5.89,2.45,5.89h4.31c1.11,0,2.04-3.82,2.35-5.99,3.3-.65,6.49-1.98,9.36-4h0c.81.82,3.91,2.85,5.42,2.85.28,0,.49-.06.64-.22l3.05-3.1c.81-.82-1.36-4.43-2.63-6.12,1.98-2.91,3.3-6.16,3.94-9.51h.8c1.35,0,6.23-1.13,6.23-2.51v-4.39c0-1.39-4.87-2.51-6.23-2.51h-.7c-.61-3.53-1.94-6.95-4.01-10.02h0c.96-.97,3.54-5.21,2.58-6.18l-3.05-3.1c-.12-.12-.31-.18-.53-.18-1.3,0-4.06,1.75-5.47,2.86-2.86-2.01-6.03-3.35-9.31-4.02v-.24c0-1.38-1.11-6.33-2.47-6.33m-2.46,51.39c-4.97,0-9.94-1.93-13.73-5.79-7.58-7.72-7.58-20.25,0-27.97,3.8-3.87,8.76-5.79,13.74-5.79s9.94,1.93,13.73,5.79c7.58,7.72,7.58,20.24,0,27.97-3.8,3.87-8.76,5.79-13.73,5.79"/>
          <path class="cls-1" d="m774.96,492.05h-4.31c-1.35,0-2.46,4.97-2.46,6.35v.12c-3.47.62-6.84,1.97-9.86,4.08-.93-.88-3.97-2.84-5.44-2.84-.27,0-.48.06-.63.21l-3.04,3.1c-.94.95,1.57,5.06,2.58,6.17-2.11,3.13-3.46,6.64-4.04,10.24-2.15.4-5.17,1.27-5.17,2.28v4.39c0,1.17,3.43,2.17,5.29,2.44.64,3.36,1.95,6.59,3.91,9.52-1.01,1.1-3.52,5.22-2.58,6.17l3.04,3.1c.14.14.35.21.62.21,1.47,0,4.52-1.97,5.44-2.84,3.02,2.11,6.39,3.48,9.87,4.08.14,1.7,1.19,5.89,2.45,5.89h4.31c1.11,0,2.04-3.82,2.36-5.99,3.3-.65,6.49-1.98,9.36-4h0c.81.82,3.92,2.85,5.43,2.85.28,0,.49-.06.64-.22l3.04-3.1c.81-.82-1.36-4.43-2.63-6.12,1.98-2.91,3.3-6.16,3.94-9.51h.8c1.35,0,6.23-1.13,6.23-2.51v-4.39c0-1.38-4.87-2.5-6.23-2.5h-.7c-.61-3.53-1.94-6.95-4.01-10.02h0c.96-.97,3.54-5.2,2.58-6.18l-3.04-3.1c-.13-.12-.31-.18-.53-.18-1.3,0-4.06,1.75-5.47,2.86-2.86-2.01-6.03-3.35-9.31-4.02v-.24c0-1.38-1.11-6.35-2.47-6.35m-2.46,51.39c-4.97,0-9.94-1.93-13.73-5.79-7.58-7.72-7.58-20.25,0-27.97,3.8-3.87,8.76-5.79,13.73-5.79s9.94,1.93,13.73,5.79c7.58,7.72,7.58,20.24,0,27.97-3.8,3.87-8.76,5.79-13.73,5.79"/>
          <path class="cls-1" d="m841.64,399.41h-4.31c-1.35,0-2.46,4.97-2.46,6.35v.12c-3.47.62-6.84,1.97-9.86,4.08-.93-.88-3.97-2.84-5.44-2.84-.27,0-.48.06-.63.21l-3.04,3.11c-.94.95,1.57,5.06,2.58,6.17-2.11,3.13-3.46,6.63-4.04,10.24-2.15.4-5.17,1.27-5.17,2.28v4.39c0,1.17,3.43,2.17,5.29,2.44.64,3.36,1.95,6.59,3.91,9.52-1.01,1.1-3.52,5.23-2.58,6.17l3.04,3.1c.14.14.35.21.62.21,1.47,0,4.52-1.97,5.44-2.85,3.02,2.11,6.39,3.48,9.87,4.08.14,1.7,1.19,5.89,2.45,5.89h4.31c1.11,0,2.04-3.82,2.36-5.99,3.3-.65,6.49-1.98,9.36-4h0c.81.82,3.92,2.85,5.43,2.85.28,0,.49-.06.64-.22l3.04-3.1c.81-.82-1.36-4.43-2.63-6.12,1.98-2.91,3.3-6.16,3.94-9.51h.8c1.35,0,6.23-1.13,6.23-2.51v-4.39c0-1.39-4.87-2.51-6.23-2.51h-.7c-.61-3.53-1.94-6.95-4.01-10.01h0c.96-.97,3.54-5.21,2.58-6.18l-3.04-3.11c-.13-.12-.31-.17-.53-.17-1.3,0-4.06,1.75-5.47,2.86-2.86-2.01-6.03-3.35-9.31-4.02v-.24c0-1.38-1.11-6.33-2.47-6.33m-2.46,51.39c-4.97,0-9.94-1.93-13.73-5.79-7.58-7.72-7.58-20.24,0-27.97,3.8-3.87,8.76-5.79,13.73-5.79s9.94,1.93,13.73,5.79c7.58,7.72,7.58,20.24,0,27.97-3.8,3.87-8.76,5.79-13.73,5.79"/>
          <path class="cls-1" d="m873.84,452.1c-1.13,0-2.71,3.74-3.32,5.71-3.48.02-6.83.79-9.89,2.17l-.13-.19c-.7-1.02-3.75-3.87-5.18-3.87-.16,0-.3.03-.41.12l-3.53,2.52c-1.11.79.79,5.5,1.56,6.64l.06.1c-2.5,2.53-4.49,5.62-5.76,9.11-.29-.04-.7-.06-1.17-.06-1.98,0-5.09.39-5.27,1.45l-.74,4.32c-.22,1.32,4.14,3.23,5.6,3.54.03,3.8.9,7.45,2.47,10.75-1.54,1.58-3.52,4.06-2.95,4.89l2.47,3.59c.17.25.53.36,1,.36,1.31,0,3.48-.82,4.71-1.46,2.41,2.37,5.32,4.26,8.58,5.5-.2,1.51.06,6.33,1.36,6.56l4.24.76h.1c1.29,0,3.07-4.27,3.38-5.71,3.67-.04,7.19-.9,10.39-2.43.95,1.16,3.59,3.51,4.9,3.51.16,0,.31-.04.43-.12l3.53-2.52c.9-.65-.48-4.33-1.45-6.27,2.33-2.46,4.19-5.41,5.41-8.74h0c.28.05.71.08,1.22.08,1.95,0,5.04-.39,5.22-1.47l.74-4.32c.2-1.15-3.62-2.84-5.6-3.46-.02-3.55-.78-6.97-2.14-10.09l.66-.47c1.11-.79,4.47-4.57,3.69-5.7l-2.48-3.59c-.17-.25-.52-.35-.98-.35-1.65,0-4.67,1.31-5.54,1.94l-.57.41c-2.48-2.53-5.51-4.55-8.92-5.85h0c.23-1.36-.03-6.33-1.36-6.57l-4.24-.76h-.09m-3.08,51.02c-1.12,0-2.24-.1-3.38-.3-10.56-1.88-17.62-12.14-15.77-22.89,1.66-9.6,9.85-16.36,19.11-16.36,1.12,0,2.24.1,3.38.3,10.56,1.88,17.62,12.14,15.77,22.89-1.65,9.6-9.85,16.36-19.1,16.36"/>
          <path class="cls-1" d="m244.73,570.57c-.11,0-.2.01-.3.04l-6.56,2.17c-2.06.68-1.34,8.81-.67,10.91l.05.17c-5,2.69-9.46,6.45-13.04,11.19-1.48-.7-5.42-1.8-8.07-1.8-1.21,0-2.15.23-2.46.83l-3.14,6.26c-.96,1.92,4.85,6.93,6.94,8.11-1.7,5.84-2.05,11.85-1.19,17.65-3.08,1.69-7.26,4.54-6.77,6.07l2.13,6.68c.34,1.06,2.5,1.42,4.82,1.42,1.58,0,3.23-.16,4.43-.38,2.6,4.79,6.18,9.07,10.59,12.54-1,2.2-2.83,9.73-.95,10.72l6.15,3.19c.14.08.3.11.48.11,2.13,0,6.41-5.21,7.49-7.18,3.73,1.13,7.55,1.67,11.33,1.67,1.91,0,3.82-.14,5.69-.41.99,2.39,4.31,7.8,6.28,7.8.11,0,.2-.01.31-.04l6.56-2.17c1.68-.56,1.25-6.86.68-10.31,4.7-2.65,8.92-6.29,12.32-10.8h0c1.33.69,5.32,1.81,8.02,1.81,1.23,0,2.2-.24,2.51-.86l3.14-6.26c.83-1.67-4.23-6.06-6.97-7.99,1.59-5.45,2.03-11.04,1.39-16.48l1.21-.4c2.06-.68,8.95-4.86,8.28-6.96l-2.14-6.68c-.33-1.04-2.46-1.39-4.77-1.39s-4.9.36-5.93.7l-1.07.36c-2.64-5.07-6.33-9.62-10.96-13.24h0c.99-1.97,2.87-9.71.94-10.72l-6.15-3.19c-.12-.06-.26-.1-.4-.1-1.86,0-5.69,4.6-7.44,7.2-3.77-1.15-7.62-1.71-11.44-1.71-1.57,0-3.15.1-4.7.28l-.12-.36c-.64-2-4.39-8.47-6.53-8.47m11.29,81.17c-4.75,0-9.59-1.12-14.11-3.46-15.31-7.95-21.39-27.04-13.58-42.62,5.5-10.98,16.42-17.29,27.74-17.29,4.75,0,9.58,1.12,14.11,3.46,15.31,7.95,21.39,27.04,13.58,42.63-5.5,10.98-16.42,17.29-27.74,17.29"/>
          <path class="cls-1" d="m255.84,596.86c-2.24,0-4.52.36-6.76,1.09-11.5,3.8-17.81,16.38-14.08,28.1,3,9.43,11.59,15.43,20.83,15.43,2.24,0,4.52-.36,6.76-1.09,11.5-3.8,17.81-16.38,14.08-28.1-3.01-9.43-11.59-15.43-20.83-15.43"/>
          <path class="cls-1" d="m557.95,566.92h-4.31c-1.35,0-2.46,4.97-2.46,6.35v.12c-3.47.62-6.84,1.97-9.86,4.08-.93-.88-3.97-2.84-5.44-2.84-.27,0-.48.06-.63.21l-3.04,3.1c-.94.95,1.57,5.06,2.58,6.17-2.11,3.13-3.46,6.64-4.04,10.24-2.15.4-5.18,1.27-5.18,2.28v4.39c0,1.17,3.43,2.17,5.31,2.44.64,3.36,1.95,6.59,3.91,9.52-1.01,1.1-3.52,5.23-2.58,6.17l3.04,3.1c.14.14.35.21.62.21,1.48,0,4.52-1.97,5.44-2.84,3.02,2.11,6.39,3.48,9.87,4.08.14,1.7,1.19,5.89,2.45,5.89h4.31c1.11,0,2.04-3.82,2.36-5.99,3.3-.65,6.49-1.98,9.36-4h0c.81.82,3.91,2.85,5.43,2.85.27,0,.49-.06.64-.22l3.04-3.1c.81-.82-1.36-4.43-2.63-6.11,1.98-2.91,3.3-6.16,3.94-9.51h.8c1.35,0,6.23-1.13,6.23-2.51v-4.39c0-1.39-4.88-2.51-6.23-2.51h-.7c-.61-3.53-1.94-6.95-4.01-10.01h0c.96-.97,3.54-5.21,2.58-6.18l-3.05-3.1c-.12-.12-.31-.18-.53-.18-1.3,0-4.06,1.75-5.47,2.86-2.86-2.01-6.03-3.35-9.31-4.02v-.24c0-1.38-1.11-6.33-2.47-6.33m-2.46,51.39c-4.97,0-9.94-1.93-13.73-5.79-7.58-7.72-7.58-20.25,0-27.97,3.8-3.87,8.76-5.79,13.73-5.79s9.94,1.93,13.73,5.79c7.58,7.72,7.58,20.24,0,27.97-3.8,3.87-8.76,5.79-13.73,5.79"/>
          <path class="cls-1" d="m620.3,582.79v17.32c15.64,0,28.36,12.95,28.36,28.88s-12.73,28.89-28.36,28.89-28.37-12.96-28.37-28.89h-17.02c0,25.52,20.32,46.21,45.38,46.21s45.38-20.69,45.38-46.21-20.32-46.21-45.38-46.21"/>
          <path class="cls-1" d="m620.3,607.1c-11.88,0-21.51,9.81-21.51,21.9s9.63,21.9,21.51,21.9,21.51-9.81,21.51-21.9-9.63-21.9-21.51-21.9"/>
          <path class="cls-1" d="m845.94,569.75v17.32c15.64,0,28.36,12.95,28.36,28.88s-12.73,28.89-28.36,28.88c-15.64,0-28.37-12.96-28.37-28.88h-17.02c0,25.52,20.32,46.21,45.38,46.21s45.38-20.69,45.38-46.21-20.32-46.21-45.38-46.21"/>
          <path class="cls-1" d="m845.94,594.06c-11.88,0-21.51,9.81-21.51,21.9s9.63,21.9,21.51,21.9,21.51-9.81,21.51-21.9-9.63-21.9-21.51-21.9"/>
          <path class="cls-1" d="m441.6,578.26c-23.71,0-42.93,19.58-42.93,43.72s19.22,43.72,42.93,43.72v-16.39c-14.8,0-26.84-12.26-26.84-27.33s12.04-27.33,26.84-27.33,26.84,12.26,26.84,27.33h16.1c0-24.15-19.22-43.72-42.93-43.72"/>
          <path class="cls-1" d="m441.6,601.26c-11.24,0-20.35,9.28-20.35,20.72s9.11,20.72,20.35,20.72,20.35-9.28,20.35-20.72-9.11-20.72-20.35-20.72"/>
          <path class="cls-1" d="m608.31,537.01c-16.23,0-29.39,13.39-29.39,29.92s13.15,29.92,29.39,29.92v-11.22c-10.13,0-18.36-8.39-18.36-18.7s8.24-18.7,18.36-18.7,18.36,8.39,18.36,18.7h11.02c0-16.52-13.16-29.93-29.39-29.93"/>
          <path class="cls-1" d="m608.31,552.74c-7.69,0-13.93,6.35-13.93,14.18s6.24,14.18,13.93,14.18,13.93-6.36,13.93-14.18-6.23-14.18-13.93-14.18"/>
          <path class="cls-1" d="m19.38,436.51c-17.98,0-34.99,10.95-42.12,28.98-9.36,23.68,1.91,50.59,25.17,60.12l6.35-16.08c-14.51-5.94-21.56-22.79-15.73-37.57,4.44-11.25,15.11-18.1,26.35-18.1,3.52,0,7.09.67,10.55,2.09,14.51,5.94,21.56,22.8,15.73,37.57l15.79,6.46c9.36-23.68-1.91-50.6-25.17-60.12-5.55-2.27-11.28-3.36-16.93-3.36"/>
          <path class="cls-1" d="m19.38,460.82c-8.52,0-16.59,5.19-19.96,13.73-4.43,11.23.9,23.98,11.93,28.5,2.63,1.08,5.35,1.59,8.02,1.59,8.52,0,16.59-5.19,19.96-13.74,4.43-11.23-.9-23.98-11.93-28.5-2.63-1.08-5.35-1.59-8.02-1.59"/>
          <path class="cls-1" d="m18.71,517.13l-4.11,10.41c9.4,3.85,13.96,14.76,10.19,24.33-2.88,7.29-9.78,11.73-17.05,11.73-2.28,0-4.59-.43-6.84-1.35-9.39-3.84-13.96-14.77-10.19-24.33l-10.22-4.19c-6.06,15.33,1.24,32.77,16.3,38.93,3.59,1.47,7.3,2.17,10.96,2.17,11.64,0,22.66-7.09,27.27-18.76,6.06-15.33-1.24-32.75-16.3-38.93"/>
          <path class="cls-1" d="m7.75,530.69c-5.52,0-10.74,3.37-12.93,8.89-2.87,7.27.58,15.53,7.72,18.45,1.7.69,3.47,1.03,5.2,1.03,5.52,0,10.74-3.36,12.93-8.89,2.87-7.27-.58-15.53-7.72-18.45-1.7-.7-3.47-1.03-5.19-1.03"/>
          <path class="cls-1" d="m128.21,610.55c-3.08,0-6.23.5-9.31,1.55-15.4,5.24-23.7,22.19-18.56,37.87,4.11,12.53,15.57,20.44,27.86,20.44,3.08,0,6.23-.5,9.31-1.55l-3.49-10.64c-1.92.65-3.88.96-5.81.96-7.69,0-14.86-4.96-17.43-12.78-3.21-9.78,2-20.4,11.6-23.67,1.92-.65,3.88-.96,5.81-.96,7.69,0,14.86,4.96,17.44,12.78l10.45-3.55c-4.11-12.53-15.58-20.44-27.87-20.44"/>
          <path class="cls-1" d="m837.27,523.38c-16.23,0-29.39,13.39-29.39,29.92s13.15,29.92,29.39,29.92v-11.22c-10.12,0-18.36-8.39-18.36-18.7s8.24-18.7,18.36-18.7,18.36,8.39,18.36,18.7h11.02c0-16.52-13.16-29.93-29.39-29.93"/>
          <path class="cls-1" d="m837.27,539.12c-7.69,0-13.93,6.35-13.93,14.18s6.24,14.18,13.93,14.18,13.93-6.35,13.93-14.18-6.23-14.18-13.93-14.18"/>
          <path class="cls-1" d="m156.29,553.27c-3.08,0-6.23.5-9.31,1.55-15.4,5.24-23.7,22.19-18.55,37.87,4.11,12.53,15.57,20.44,27.87,20.44,3.08,0,6.23-.5,9.31-1.55l-3.49-10.64c-1.92.65-3.88.96-5.81.96-7.69,0-14.86-4.96-17.43-12.78-3.21-9.78,2-20.4,11.6-23.66,1.92-.65,3.88-.96,5.81-.96,7.69,0,14.86,4.96,17.44,12.78l10.45-3.55c-4.11-12.53-15.58-20.44-27.87-20.44"/>
          <path class="cls-1" d="m156.29,569.01c-1.47,0-2.96.24-4.41.74-7.29,2.48-11.24,10.51-8.79,17.94,1.95,5.93,7.38,9.69,13.21,9.69,1.47,0,2.96-.24,4.41-.74,7.29-2.48,11.23-10.51,8.79-17.94-1.95-5.93-7.38-9.69-13.21-9.69"/>
          <path class="cls-1" d="m174.56,598.32c-3.08,0-6.23.5-9.31,1.55l3.49,10.64c1.92-.65,3.88-.96,5.81-.96,7.69,0,14.86,4.95,17.43,12.78,3.21,9.78-2,20.4-11.6,23.66-1.92.65-3.88.96-5.81.96-7.69,0-14.86-4.96-17.44-12.78l-10.45,3.55c4.1,12.53,15.58,20.44,27.87,20.44,3.08,0,6.22-.5,9.31-1.55,15.4-5.24,23.7-22.19,18.55-37.87-4.11-12.53-15.57-20.44-27.86-20.44"/>
          <path class="cls-1" d="m174.55,614.07c-1.47,0-2.96.24-4.41.74-7.29,2.48-11.23,10.51-8.79,17.94,1.95,5.94,7.38,9.69,13.21,9.69,1.47,0,2.95-.24,4.41-.74,7.29-2.48,11.24-10.51,8.79-17.94-1.95-5.93-7.38-9.69-13.21-9.69"/>
          <path class="cls-1" d="m501.95,599.29v11.22c10.12,0,18.36,8.39,18.36,18.7s-8.24,18.7-18.36,18.7-18.36-8.39-18.36-18.7h-11.02c0,16.52,13.16,29.93,29.39,29.93s29.39-13.39,29.39-29.93-13.15-29.92-29.39-29.92"/>
          <path class="cls-1" d="m501.95,615.03c-7.69,0-13.93,6.35-13.93,14.18s6.24,14.18,13.93,14.18,13.93-6.35,13.93-14.18-6.24-14.18-13.93-14.18"/>
        </g>
      </g>
    </g>
  </g>
</svg>