<?xml version="1.0" encoding="UTF-8"?>
<svg id="Layer_2" data-name="Layer 2" xmlns="http://www.w3.org/2000/svg" xmlns:xlink="http://www.w3.org/1999/xlink" viewBox="0 0 872.28 622.65">
  <defs>
    <style>
      .cls-1 {
        fill: #c8e3dc;
      }

      .cls-1, .cls-2 {
        stroke-width: 0px;
      }

      .cls-2 {
        fill: none;
      }

      .cls-3 {
        clip-path: url(#clippath-1);
      }

      .cls-4 {
        clip-path: url(#clippath);
      }
    </style>
    <clipPath id="clippath">
      <rect class="cls-2" x="1" y="26.47" width="871" height="595.28"/>
    </clipPath>
    <clipPath id="clippath-1">
      <rect class="cls-2" x="1" y="26.47" width="871" height="595.28"/>
    </clipPath>
  </defs>
  <g id="Layer_1-2" data-name="Layer 1-2">
    <g class="cls-4">
      <g class="cls-3">
        <g>
          <path class="cls-1" d="m119.8,88.93c5.08,0,10.16-1.87,14.03-5.62,7.75-7.49,7.75-19.63,0-27.12-3.87-3.74-8.95-5.62-14.03-5.62s-10.16,1.87-14.03,5.62c-7.75,7.49-7.75,19.63,0,27.12,3.87,3.74,8.95,5.62,14.03,5.62m0-31.42c3.24,0,6.48,1.19,8.95,3.58,4.95,4.78,4.95,12.53,0,17.31-2.47,2.39-5.71,3.58-8.95,3.58s-6.48-1.19-8.95-3.58c-4.95-4.78-4.95-12.53,0-17.31,2.47-2.39,5.71-3.58,8.95-3.58"/>
          <path class="cls-1" d="m116.21,111.75h6.08c1.91,0,3.48-6.66,3.48-8.5v-.16c4.89-.82,9.65-2.65,13.92-5.47,1.3,1.17,5.61,3.81,7.69,3.81.37,0,.67-.08.88-.28l4.3-4.16c1.31-1.27-2.21-6.78-3.65-8.27,2.98-4.2,4.88-8.89,5.71-13.72,3.04-.53,7.3-1.7,7.3-3.05v-5.88c0-1.57-4.85-2.89-7.48-3.26-.91-4.49-2.75-8.84-5.53-12.76,1.43-1.49,4.97-7,3.65-8.28l-4.3-4.16c-.2-.19-.5-.28-.87-.28-2.08,0-6.37,2.63-7.69,3.81-4.26-2.83-9.03-4.66-13.94-5.48-.2-2.27-1.68-7.89-3.46-7.89h-6.08c-1.56,0-2.89,5.12-3.32,8.01-4.66.88-9.16,2.66-13.21,5.35h0c-1.15-1.11-5.53-3.81-7.67-3.81-.38,0-.69.09-.9.28l-4.3,4.15c-1.14,1.11,1.92,5.94,3.71,8.19-2.79,3.91-4.65,8.25-5.57,12.74h-1.13c-1.91,0-8.79,1.51-8.79,3.36v5.88c0,1.85,6.88,3.36,8.79,3.36h.99c.85,4.72,2.74,9.31,5.66,13.41h0c-1.36,1.31-5,6.97-3.65,8.28l4.3,4.16c.18.17.43.24.76.24,1.83,0,5.74-2.36,7.72-3.83,4.03,2.69,8.51,4.49,13.15,5.38v.31c0,1.85,1.56,8.5,3.48,8.5m3.47-68.87c7.01,0,14.03,2.59,19.39,7.76,10.71,10.35,10.71,27.13,0,37.48-5.35,5.17-12.37,7.76-19.39,7.76s-14.03-2.59-19.39-7.76c-10.71-10.35-10.71-27.13,0-37.48,5.36-5.17,12.37-7.76,19.39-7.76"/>
          <path class="cls-1" d="m526.16,63.53c5.08,0,10.16-1.87,14.03-5.62,7.75-7.49,7.75-19.63,0-27.12-3.87-3.74-8.95-5.62-14.03-5.62s-10.15,1.87-14.03,5.62c-7.75,7.49-7.75,19.63,0,27.12,3.87,3.74,8.95,5.62,14.03,5.62m0-31.41c3.24,0,6.48,1.19,8.95,3.58,4.95,4.78,4.95,12.53,0,17.31-2.47,2.39-5.71,3.58-8.95,3.58s-6.48-1.19-8.95-3.58c-4.95-4.78-4.95-12.53,0-17.31,2.47-2.39,5.71-3.59,8.95-3.59"/>
          <path class="cls-1" d="m522.58,86.34h6.08c1.91,0,3.48-6.66,3.48-8.5v-.16c4.9-.82,9.65-2.65,13.92-5.47,1.3,1.17,5.61,3.81,7.69,3.81.37,0,.67-.08.88-.28l4.3-4.16c1.31-1.27-2.21-6.78-3.65-8.27,2.98-4.2,4.88-8.89,5.71-13.72,3.04-.53,7.3-1.7,7.3-3.06v-5.88c0-1.57-4.85-2.89-7.48-3.26-.91-4.49-2.75-8.84-5.53-12.76,1.43-1.49,4.97-7,3.65-8.28l-4.3-4.16c-.2-.19-.5-.28-.88-.28-2.08,0-6.37,2.63-7.69,3.81-4.26-2.83-9.03-4.66-13.94-5.48-.2-2.27-1.68-7.89-3.45-7.89h-6.08c-1.56,0-2.89,5.12-3.32,8.02-4.66.88-9.16,2.66-13.21,5.35h0c-1.15-1.11-5.53-3.81-7.67-3.81-.38,0-.69.09-.9.29l-4.3,4.15c-1.15,1.11,1.92,5.94,3.71,8.19-2.79,3.91-4.65,8.25-5.57,12.74h-1.13c-1.91,0-8.79,1.51-8.79,3.36v5.88c0,1.85,6.88,3.36,8.79,3.36h.99c.86,4.72,2.74,9.31,5.66,13.41h0c-1.36,1.31-5,6.97-3.65,8.28l4.3,4.16c.18.17.43.24.76.24,1.83,0,5.74-2.36,7.72-3.83,4.03,2.69,8.52,4.49,13.15,5.38v.31c0,1.85,1.56,8.5,3.48,8.5m3.47-68.87c7.01,0,14.03,2.59,19.39,7.76,10.71,10.35,10.71,27.13,0,37.48-5.35,5.17-12.37,7.76-19.39,7.76s-14.04-2.59-19.39-7.76c-10.71-10.35-10.71-27.13,0-37.48,5.36-5.18,12.37-7.76,19.39-7.76"/>
          <path class="cls-1" d="m801.51,85.57c4,0,8.03-1.16,11.54-3.59,8.91-6.17,10.96-18.14,4.58-26.76-3.87-5.23-9.96-8.01-16.15-8.01-3.99,0-8.04,1.16-11.54,3.59-8.91,6.17-10.96,18.14-4.58,26.76,3.87,5.23,9.96,8.01,16.15,8.01m-.03-31.42c3.94,0,7.83,1.78,10.3,5.11,4.07,5.5,2.76,13.14-2.93,17.08-2.23,1.55-4.81,2.29-7.36,2.29-3.95,0-7.83-1.78-10.3-5.11-4.07-5.5-2.76-13.14,2.93-17.08,2.23-1.55,4.81-2.29,7.37-2.29"/>
          <path class="cls-1" d="m796.97,108.44c1.87,0,4.43-6.07,4.73-7.85l.03-.16c4.98-.04,9.97-1.09,14.65-3.2,1.15,1.44,5.3,5,7.25,5,.24,0,.43-.05.6-.16l4.95-3.42c1.51-1.05-1.04-7.04-2.2-8.74,3.65-3.67,6.32-8,7.96-12.64,3.09-.04,7.49-.53,7.72-1.86l.99-5.8c.26-1.55-4.29-3.62-6.83-4.4-.13-4.57-1.22-9.16-3.3-13.46,1.67-1.24,6.08-6.13,5.01-7.59l-3.54-4.78c-.24-.32-.71-.45-1.33-.45-2.23,0-6.33,1.7-7.71,2.58-3.72-3.47-8.12-6.02-12.82-7.6.19-2.27-.32-8.05-2.07-8.33l-6-.96h-.11c-1.53,0-3.62,4.68-4.52,7.39-4.74.13-9.49,1.18-13.94,3.19h0c-.99-1.34-5.23-5-7.24-5-.24,0-.44.05-.61.17l-4.95,3.42c-1.31.91.89,6.16,2.28,8.67-3.41,3.41-5.98,7.41-7.65,11.69l-1.12-.18c-.36-.06-.93-.09-1.59-.09-2.77,0-7.4.55-7.66,2.02l-.99,5.8c-.31,1.82,6.22,4.4,8.11,4.7l.97.16c.04,4.8,1.13,9.62,3.31,14.13h0c-1.55,1.08-6.11,6.09-5,7.59l3.54,4.78c.2.27.61.39,1.16.39,1.99,0,5.77-1.54,7.81-2.59,3.53,3.29,7.65,5.77,12.07,7.38l-.05.31c-.31,1.82.1,8.63,2,8.93l6,.96h.13m4.42-68.73c8.55,0,16.97,3.85,22.32,11.07,8.81,11.9,5.98,28.45-6.33,36.97-4.83,3.35-10.41,4.96-15.93,4.96-8.55,0-16.97-3.85-22.32-11.07-8.81-11.9-5.98-28.45,6.33-36.97,4.83-3.35,10.42-4.96,15.94-4.96"/>
          <path class="cls-1" d="m178.13,60.96h4.19c1.31,0,2.4-4.59,2.4-5.86v-.11c3.37-.57,6.65-1.83,9.59-3.77.9.81,3.86,2.62,5.3,2.62.26,0,.47-.06.6-.19l2.96-2.87c.91-.88-1.53-4.67-2.51-5.7,2.05-2.89,3.36-6.13,3.93-9.46,2.09-.37,5.03-1.17,5.03-2.11v-4.05c0-1.08-3.34-2-5.15-2.25-.62-3.1-1.89-6.09-3.81-8.79.98-1.02,3.42-4.83,2.51-5.7l-2.96-2.87c-.13-.13-.35-.19-.6-.19-1.43,0-4.4,1.82-5.3,2.62-2.94-1.95-6.22-3.21-9.6-3.77-.13-1.57-1.16-5.44-2.38-5.44h-4.19c-1.08,0-1.99,3.53-2.3,5.52-3.21.6-6.31,1.83-9.1,3.69h0c-.79-.76-3.82-2.63-5.29-2.63-.27,0-.48.06-.62.2l-2.96,2.87c-.79.76,1.32,4.09,2.56,5.65-1.92,2.69-3.21,5.69-3.84,8.78h-.78c-1.31,0-6.06,1.04-6.06,2.32v4.05c0,1.27,4.75,2.31,6.06,2.31h.68c.59,3.26,1.89,6.42,3.9,9.25h0c-.93.9-3.45,4.8-2.51,5.7l2.96,2.87c.12.11.3.17.52.17,1.26,0,3.95-1.62,5.32-2.64,2.78,1.86,5.88,3.09,9.06,3.7v.22c0,1.27,1.08,5.85,2.4,5.85m2.39-47.46c4.83,0,9.67,1.78,13.36,5.35,7.38,7.13,7.38,18.7,0,25.83-3.69,3.57-8.52,5.35-13.36,5.35s-9.67-1.78-13.36-5.35c-7.38-7.13-7.38-18.69,0-25.83,3.69-3.57,8.52-5.35,13.36-5.35"/>
          <path class="cls-1" d="m180.34,44.35c7.05,0,12.76-5.52,12.76-12.33s-5.71-12.33-12.76-12.33-12.76,5.52-12.76,12.33,5.71,12.33,12.76,12.33"/>
          <path class="cls-1" d="m190.88,114.51h4.19c1.31,0,2.39-4.59,2.39-5.86v-.11c3.37-.57,6.65-1.82,9.59-3.77.9.81,3.86,2.63,5.3,2.63.26,0,.47-.06.6-.19l2.96-2.86c.91-.88-1.53-4.68-2.51-5.7,2.05-2.89,3.36-6.12,3.93-9.46,2.09-.37,5.03-1.17,5.03-2.11v-4.05c0-1.08-3.34-2-5.15-2.25-.62-3.1-1.89-6.09-3.81-8.79.98-1.02,3.42-4.82,2.51-5.7l-2.96-2.86c-.13-.13-.35-.19-.6-.19-1.43,0-4.4,1.82-5.3,2.62-2.94-1.95-6.22-3.21-9.6-3.77-.13-1.57-1.16-5.44-2.38-5.44h-4.19c-1.08,0-1.99,3.53-2.29,5.53-3.21.6-6.31,1.83-9.1,3.69h0c-.79-.76-3.82-2.63-5.29-2.63-.27,0-.48.06-.62.2l-2.96,2.86c-.79.76,1.32,4.09,2.56,5.64-1.92,2.69-3.21,5.69-3.84,8.78h-.78c-1.31,0-6.06,1.04-6.06,2.32v4.05c0,1.28,4.74,2.32,6.06,2.32h.68c.59,3.26,1.89,6.42,3.9,9.24h0c-.93.9-3.45,4.81-2.51,5.71l2.96,2.86c.12.11.3.17.52.17,1.26,0,3.95-1.62,5.32-2.64,2.78,1.86,5.88,3.09,9.06,3.71v.22c0,1.27,1.08,5.85,2.4,5.85m2.39-47.46c4.83,0,9.67,1.78,13.36,5.35,7.38,7.13,7.38,18.7,0,25.83-3.69,3.57-8.52,5.35-13.36,5.35s-9.67-1.78-13.36-5.35c-7.38-7.13-7.38-18.69,0-25.83,3.69-3.57,8.52-5.35,13.36-5.35"/>
          <path class="cls-1" d="m781.17,162.32h4.19c1.31,0,2.4-4.59,2.4-5.86v-.11c3.37-.57,6.65-1.82,9.59-3.77.9.81,3.86,2.62,5.3,2.62.26,0,.47-.06.61-.19l2.96-2.86c.91-.88-1.53-4.67-2.51-5.7,2.05-2.89,3.36-6.12,3.93-9.46,2.09-.37,5.04-1.17,5.04-2.11v-4.05c0-1.08-3.34-2-5.15-2.25-.62-3.1-1.89-6.09-3.81-8.79.98-1.02,3.42-4.82,2.51-5.7l-2.97-2.86c-.13-.13-.34-.19-.6-.19-1.43,0-4.4,1.82-5.3,2.62-2.94-1.95-6.22-3.21-9.6-3.77-.13-1.57-1.15-5.44-2.38-5.44h-4.19c-1.08,0-1.99,3.53-2.29,5.53-3.21.6-6.31,1.83-9.1,3.69h0c-.79-.76-3.82-2.63-5.29-2.63-.26,0-.48.06-.62.2l-2.96,2.86c-.79.76,1.32,4.09,2.56,5.64-1.92,2.69-3.21,5.69-3.84,8.78h-.78c-1.31,0-6.06,1.04-6.06,2.32v4.05c0,1.28,4.74,2.32,6.06,2.32h.68c.59,3.26,1.88,6.42,3.9,9.25h0c-.93.9-3.45,4.81-2.51,5.71l2.96,2.86c.12.11.3.17.52.17,1.26,0,3.95-1.62,5.32-2.64,2.78,1.86,5.88,3.09,9.06,3.71v.22c0,1.27,1.08,5.86,2.4,5.86m2.39-47.46c4.83,0,9.67,1.78,13.36,5.35,7.38,7.13,7.38,18.69,0,25.83-3.69,3.57-8.52,5.35-13.37,5.35s-9.67-1.78-13.36-5.35c-7.38-7.13-7.38-18.69,0-25.83,3.69-3.57,8.52-5.35,13.36-5.35"/>
          <path class="cls-1" d="m654.8,143.45h4.19c1.31,0,2.4-4.59,2.4-5.86v-.11c3.37-.57,6.65-1.82,9.59-3.77.9.81,3.86,2.62,5.3,2.62.26,0,.47-.06.61-.19l2.96-2.86c.91-.88-1.53-4.67-2.51-5.7,2.06-2.89,3.36-6.12,3.93-9.46,2.09-.37,5.04-1.17,5.04-2.11v-4.05c0-1.08-3.34-2-5.16-2.25-.62-3.1-1.89-6.09-3.81-8.79.98-1.03,3.42-4.83,2.51-5.7l-2.96-2.86c-.13-.13-.35-.19-.6-.19-1.43,0-4.4,1.82-5.3,2.62-2.94-1.95-6.22-3.21-9.6-3.77-.13-1.57-1.16-5.44-2.38-5.44h-4.19c-1.08,0-1.99,3.53-2.29,5.53-3.21.6-6.31,1.83-9.1,3.69h0c-.79-.76-3.81-2.63-5.28-2.63-.27,0-.48.06-.62.2l-2.97,2.86c-.79.76,1.32,4.09,2.56,5.65-1.92,2.69-3.21,5.69-3.84,8.78h-.78c-1.31,0-6.06,1.04-6.06,2.32v4.05c0,1.28,4.74,2.32,6.06,2.32h.68c.59,3.26,1.88,6.42,3.9,9.25h0c-.93.9-3.45,4.81-2.51,5.71l2.97,2.86c.11.11.3.17.52.17,1.26,0,3.95-1.62,5.32-2.64,2.78,1.86,5.87,3.09,9.06,3.71v.22c0,1.27,1.08,5.85,2.4,5.85m2.39-47.46c4.83,0,9.67,1.78,13.36,5.35,7.38,7.13,7.38,18.7,0,25.83-3.69,3.57-8.52,5.35-13.37,5.35s-9.67-1.78-13.36-5.35c-7.38-7.13-7.38-18.69,0-25.83,3.69-3.57,8.52-5.35,13.36-5.35"/>
          <path class="cls-1" d="m106.82,168.25h4.19c1.31,0,2.39-4.59,2.39-5.86v-.11c3.37-.57,6.65-1.82,9.59-3.77.9.81,3.86,2.62,5.3,2.62.26,0,.47-.06.61-.19l2.96-2.86c.91-.88-1.53-4.67-2.51-5.7,2.05-2.89,3.36-6.13,3.93-9.46,2.09-.37,5.03-1.17,5.03-2.11v-4.05c0-1.08-3.34-2-5.15-2.25-.62-3.1-1.89-6.09-3.81-8.79.98-1.02,3.42-4.82,2.51-5.7l-2.96-2.86c-.13-.13-.34-.19-.6-.19-1.43,0-4.4,1.82-5.3,2.62-2.94-1.95-6.22-3.21-9.6-3.77-.13-1.57-1.16-5.44-2.38-5.44h-4.19c-1.08,0-1.99,3.53-2.3,5.53-3.21.6-6.31,1.83-9.1,3.69h0c-.79-.76-3.82-2.63-5.29-2.63-.27,0-.48.06-.62.2l-2.96,2.86c-.79.76,1.32,4.09,2.56,5.65-1.92,2.69-3.21,5.69-3.84,8.78h-.78c-1.31,0-6.06,1.04-6.06,2.32v4.05c0,1.27,4.74,2.31,6.06,2.31h.68c.59,3.26,1.88,6.42,3.9,9.25h0c-.93.9-3.45,4.8-2.51,5.71l2.96,2.86c.12.11.3.17.52.17,1.26,0,3.95-1.62,5.32-2.64,2.78,1.86,5.87,3.09,9.06,3.71v.22c0,1.27,1.08,5.86,2.4,5.86m2.39-47.46c4.83,0,9.67,1.78,13.36,5.35,7.38,7.13,7.38,18.7,0,25.83-3.69,3.57-8.52,5.35-13.36,5.35s-9.67-1.78-13.36-5.35c-7.38-7.13-7.38-18.69,0-25.83,3.69-3.57,8.52-5.35,13.36-5.35"/>
          <path class="cls-1" d="m41.94,253.8h4.19c1.31,0,2.39-4.59,2.39-5.86v-.11c3.37-.57,6.65-1.82,9.59-3.77.9.81,3.86,2.62,5.3,2.62.26,0,.47-.06.61-.19l2.96-2.87c.91-.88-1.53-4.67-2.51-5.7,2.05-2.89,3.36-6.12,3.93-9.46,2.09-.37,5.03-1.17,5.03-2.11v-4.05c0-1.08-3.34-2-5.15-2.25-.62-3.1-1.89-6.09-3.81-8.79.98-1.02,3.42-4.83,2.51-5.7l-2.96-2.86c-.13-.13-.34-.19-.6-.19-1.43,0-4.4,1.82-5.3,2.63-2.94-1.95-6.22-3.21-9.6-3.77-.13-1.57-1.16-5.44-2.38-5.44h-4.19c-1.08,0-1.99,3.53-2.3,5.53-3.21.6-6.31,1.83-9.1,3.69h0c-.79-.76-3.82-2.63-5.29-2.63-.27,0-.48.06-.62.2l-2.96,2.86c-.79.76,1.32,4.09,2.56,5.65-1.92,2.69-3.21,5.69-3.84,8.78h-.78c-1.31,0-6.06,1.04-6.06,2.32v4.05c0,1.28,4.74,2.32,6.06,2.32h.68c.59,3.26,1.88,6.42,3.9,9.24h0c-.93.9-3.45,4.81-2.51,5.71l2.96,2.87c.12.11.3.16.52.16,1.26,0,3.95-1.62,5.32-2.64,2.78,1.86,5.87,3.09,9.06,3.71v.22c0,1.27,1.08,5.85,2.4,5.85m2.39-47.46c4.83,0,9.67,1.78,13.36,5.35,7.38,7.13,7.38,18.69,0,25.83-3.69,3.57-8.52,5.35-13.36,5.35s-9.67-1.78-13.36-5.35c-7.38-7.13-7.38-18.69,0-25.83,3.69-3.57,8.52-5.35,13.36-5.35"/>
          <path class="cls-1" d="m10.6,205.14c1.1,0,2.64-3.45,3.23-5.27,3.38-.02,6.64-.73,9.62-2l.12.18c.68.94,3.65,3.57,5.04,3.57.16,0,.29-.03.4-.11l3.43-2.33c1.08-.73-.77-5.08-1.52-6.13l-.06-.09c2.43-2.34,4.37-5.19,5.61-8.41.28.04.68.06,1.14.06,1.92,0,4.96-.36,5.13-1.34l.72-3.99c.22-1.22-4.02-2.98-5.45-3.27-.03-3.51-.88-6.88-2.4-9.93,1.5-1.46,3.42-3.75,2.87-4.52l-2.4-3.32c-.17-.23-.52-.33-.97-.33-1.27,0-3.38.76-4.58,1.35-2.35-2.19-5.17-3.93-8.35-5.08.2-1.39-.06-5.85-1.32-6.06l-4.13-.7h-.09c-1.25,0-2.99,3.94-3.29,5.27-3.57.04-6.99.83-10.11,2.24-.92-1.07-3.5-3.24-4.77-3.24-.16,0-.3.04-.41.11l-3.43,2.33c-.88.6.47,4,1.41,5.79-2.27,2.27-4.08,5-5.27,8.07h0c-.27-.05-.69-.07-1.19-.07-1.89,0-4.9.36-5.08,1.36l-.72,3.99c-.2,1.06,3.52,2.62,5.45,3.2.02,3.28.76,6.44,2.08,9.32l-.64.43c-1.08.73-4.35,4.22-3.59,5.26l2.41,3.32c.17.23.51.32.95.32,1.6,0,4.54-1.21,5.39-1.79l.56-.38c2.41,2.34,5.36,4.2,8.68,5.4h0c-.23,1.26.03,5.85,1.32,6.07l4.13.7h.08m3-47.12c1.09,0,2.18.09,3.29.28,10.27,1.74,17.14,11.21,15.34,21.14-1.61,8.87-9.58,15.11-18.59,15.11-1.09,0-2.18-.09-3.29-.28-10.27-1.74-17.14-11.21-15.34-21.14,1.6-8.87,9.58-15.11,18.58-15.11"/>
          <path class="cls-1" d="m622.75,95.73c.1,0,.2-.01.29-.04l6.38-2c2.01-.63,1.3-8.14.65-10.08l-.05-.16c4.86-2.48,9.21-5.96,12.68-10.33,1.44.65,5.28,1.66,7.85,1.66,1.18,0,2.09-.21,2.39-.77l3.05-5.78c.93-1.77-4.72-6.4-6.76-7.49,1.66-5.39,2-10.94,1.16-16.3,3-1.56,7.07-4.19,6.59-5.61l-2.07-6.17c-.33-.98-2.43-1.31-4.69-1.31-1.54,0-3.15.15-4.31.35-2.53-4.42-6.01-8.38-10.3-11.58.97-2.03,2.75-8.99.92-9.9l-5.98-2.95c-.13-.07-.29-.1-.47-.1-2.07,0-6.24,4.81-7.28,6.63-3.63-1.04-7.35-1.54-11.03-1.54-1.86,0-3.71.13-5.53.38-.96-2.21-4.19-7.2-6.11-7.2-.1,0-.2.01-.3.04l-6.38,2c-1.63.52-1.22,6.34-.66,9.52-4.57,2.45-8.68,5.81-11.99,9.97h0c-1.29-.64-5.17-1.67-7.8-1.67-1.2,0-2.14.22-2.44.79l-3.05,5.78c-.81,1.54,4.12,5.6,6.79,7.38-1.55,5.03-1.98,10.2-1.36,15.22l-1.18.37c-2.01.63-8.71,4.49-8.06,6.43l2.08,6.17c.32.96,2.39,1.28,4.65,1.28s4.77-.33,5.77-.65l1.04-.33c2.57,4.68,6.16,8.88,10.67,12.23h0c-.96,1.82-2.79,8.97-.91,9.9l5.98,2.95c.11.06.25.09.39.09,1.81,0,5.53-4.25,7.24-6.65,3.67,1.06,7.42,1.58,11.13,1.58,1.53,0,3.06-.09,4.57-.26l.11.33c.62,1.85,4.27,7.82,6.35,7.82m-10.99-74.96c4.62,0,9.33,1.03,13.73,3.2,14.9,7.34,20.82,24.97,13.21,39.36-5.35,10.14-15.97,15.97-26.99,15.97-4.62,0-9.32-1.03-13.73-3.2-14.9-7.34-20.82-24.97-13.21-39.37,5.35-10.14,15.97-15.97,26.99-15.97"/>
          <path class="cls-1" d="m611.94,71.45c2.18,0,4.4-.33,6.58-1.01,11.19-3.51,17.33-15.13,13.7-25.95-2.92-8.71-11.28-14.25-20.27-14.25-2.18,0-4.4.33-6.58,1.01-11.19,3.51-17.33,15.13-13.7,25.95,2.93,8.71,11.28,14.25,20.27,14.25"/>
          <path class="cls-1" d="m317.97,99.1h4.19c1.31,0,2.39-4.59,2.39-5.86v-.11c3.37-.57,6.65-1.82,9.59-3.77.9.81,3.86,2.62,5.3,2.62.26,0,.47-.06.61-.19l2.96-2.86c.91-.88-1.53-4.67-2.51-5.7,2.05-2.89,3.36-6.13,3.93-9.46,2.09-.37,5.04-1.17,5.04-2.11v-4.05c0-1.08-3.34-2-5.16-2.25-.62-3.1-1.89-6.09-3.81-8.79.98-1.02,3.42-4.83,2.51-5.7l-2.96-2.86c-.13-.13-.34-.19-.6-.19-1.44,0-4.4,1.82-5.3,2.62-2.94-1.95-6.22-3.21-9.6-3.77-.13-1.57-1.16-5.44-2.38-5.44h-4.19c-1.08,0-1.99,3.53-2.3,5.53-3.21.6-6.31,1.83-9.1,3.69h0c-.79-.76-3.81-2.63-5.29-2.63-.26,0-.48.06-.62.2l-2.96,2.86c-.79.76,1.32,4.09,2.56,5.64-1.92,2.69-3.21,5.69-3.84,8.78h-.78c-1.31,0-6.06,1.04-6.06,2.32v4.05c0,1.28,4.75,2.32,6.06,2.32h.68c.59,3.26,1.88,6.42,3.9,9.24h0c-.93.9-3.45,4.81-2.51,5.71l2.97,2.86c.11.11.3.17.52.17,1.26,0,3.95-1.62,5.32-2.64,2.78,1.86,5.87,3.09,9.06,3.71v.22c0,1.27,1.08,5.85,2.4,5.85m2.39-47.46c4.83,0,9.67,1.78,13.36,5.35,7.38,7.13,7.38,18.7,0,25.83-3.69,3.57-8.52,5.35-13.36,5.35s-9.67-1.78-13.36-5.35c-7.38-7.13-7.38-18.69,0-25.83,3.69-3.57,8.52-5.35,13.36-5.35"/>
          <path class="cls-1" d="m257.31,84.45v-16c-15.22,0-27.59-11.96-27.59-26.67s12.38-26.68,27.59-26.68,27.6,11.97,27.6,26.68h16.56c0-23.57-19.77-42.68-44.16-42.68s-44.16,19.11-44.16,42.68,19.77,42.68,44.16,42.68"/>
          <path class="cls-1" d="m257.31,62c11.56,0,20.93-9.06,20.93-20.23s-9.37-20.23-20.93-20.23-20.93,9.06-20.93,20.23,9.37,20.23,20.93,20.23"/>
          <path class="cls-1" d="m37.75,96.49v-16c-15.22,0-27.59-11.96-27.59-26.67s12.38-26.68,27.59-26.67c15.22,0,27.6,11.97,27.6,26.67h16.56c0-23.57-19.77-42.68-44.16-42.68S-6.4,30.25-6.4,53.82s19.77,42.68,44.16,42.68"/>
          <path class="cls-1" d="m37.75,74.04c11.56,0,20.93-9.06,20.93-20.23s-9.37-20.23-20.93-20.23-20.93,9.06-20.93,20.23,9.37,20.23,20.93,20.23"/>
          <path class="cls-1" d="m431.19,88.63c23.07,0,41.78-18.08,41.78-40.38s-18.71-40.38-41.78-40.38v15.14c14.4,0,26.11,11.32,26.11,25.24s-11.71,25.24-26.11,25.24-26.11-11.32-26.11-25.24h-15.66c0,22.3,18.71,40.38,41.78,40.38"/>
          <path class="cls-1" d="m431.19,67.39c10.94,0,19.8-8.57,19.8-19.14s-8.87-19.14-19.8-19.14-19.8,8.57-19.8,19.14,8.87,19.14,19.8,19.14"/>
          <path class="cls-1" d="m268.98,126.73c15.79,0,28.6-12.37,28.6-27.63s-12.8-27.63-28.6-27.63v10.36c9.86,0,17.87,7.75,17.87,17.27s-8.02,17.27-17.87,17.27-17.87-7.75-17.87-17.27h-10.72c0,15.26,12.81,27.64,28.6,27.64"/>
          <path class="cls-1" d="m268.98,112.2c7.48,0,13.55-5.86,13.55-13.1s-6.07-13.1-13.55-13.1-13.55,5.87-13.55,13.1,6.06,13.1,13.55,13.1"/>
          <path class="cls-1" d="m842.02,219.54c17.49,0,34.05-10.11,40.98-26.76,9.1-21.87-1.86-46.72-24.49-55.52l-6.18,14.85c14.12,5.49,20.98,21.05,15.3,34.7-4.32,10.39-14.7,16.72-25.64,16.72-3.42,0-6.9-.62-10.26-1.93-14.12-5.49-20.98-21.06-15.3-34.7l-15.36-5.97c-9.1,21.87,1.86,46.73,24.49,55.52,5.4,2.1,10.98,3.1,16.47,3.1"/>
          <path class="cls-1" d="m842.02,197.09c8.29,0,16.14-4.79,19.42-12.68,4.31-10.37-.88-22.15-11.61-26.32-2.56-1-5.2-1.47-7.8-1.47-8.29,0-16.14,4.79-19.42,12.69-4.31,10.37.88,22.15,11.61,26.32,2.56,1,5.2,1.47,7.8,1.47"/>
          <path class="cls-1" d="m842.67,145.09l4-9.61c-9.15-3.56-13.58-13.63-9.91-22.47,2.8-6.73,9.52-10.83,16.59-10.83,2.21,0,4.47.4,6.65,1.25,9.14,3.55,13.58,13.64,9.91,22.47l9.94,3.87c5.9-14.16-1.21-30.26-15.86-35.95-3.5-1.36-7.11-2-10.67-2-11.33,0-22.05,6.55-26.54,17.33-5.9,14.16,1.21,30.25,15.86,35.95"/>
          <path class="cls-1" d="m853.34,132.56c5.37,0,10.45-3.11,12.58-8.21,2.79-6.71-.57-14.34-7.51-17.04-1.66-.64-3.37-.95-5.06-.95-5.37,0-10.45,3.1-12.58,8.21-2.79,6.71.57,14.34,7.51,17.04,1.66.65,3.37.95,5.05.95"/>
          <path class="cls-1" d="m736.13,58.81c3,0,6.06-.46,9.06-1.43,14.98-4.84,23.06-20.49,18.06-34.97-4-11.57-15.15-18.88-27.11-18.88-3,0-6.06.46-9.06,1.43l3.39,9.83c1.87-.6,3.78-.89,5.65-.89,7.48,0,14.46,4.58,16.96,11.8,3.12,9.03-1.95,18.84-11.29,21.86-1.87.6-3.78.89-5.65.89-7.48,0-14.46-4.58-16.97-11.8l-10.17,3.28c4,11.57,15.16,18.88,27.12,18.88"/>
          <path class="cls-1" d="m736.13,44.28c1.43,0,2.88-.22,4.29-.68,7.1-2.29,10.94-9.71,8.56-16.57-1.89-5.48-7.18-8.95-12.85-8.95-1.43,0-2.88.22-4.29.68-7.1,2.29-10.94,9.71-8.56,16.57,1.89,5.48,7.18,8.95,12.85,8.95"/>
          <path class="cls-1" d="m46.19,139.31c15.79,0,28.6-12.37,28.6-27.63s-12.8-27.63-28.6-27.63v10.36c9.85,0,17.87,7.75,17.87,17.27s-8.02,17.27-17.87,17.27-17.87-7.75-17.87-17.27h-10.72c0,15.26,12.81,27.64,28.6,27.64"/>
          <path class="cls-1" d="m46.19,124.78c7.48,0,13.55-5.86,13.55-13.1s-6.07-13.1-13.55-13.1-13.55,5.86-13.55,13.1,6.06,13.1,13.55,13.1"/>
          <path class="cls-1" d="m708.81,111.71c3,0,6.06-.46,9.06-1.43,14.98-4.84,23.06-20.49,18.05-34.97-4-11.57-15.15-18.88-27.12-18.88-3,0-6.06.46-9.06,1.43l3.39,9.83c1.87-.6,3.78-.89,5.65-.89,7.48,0,14.46,4.58,16.96,11.8,3.12,9.03-1.95,18.84-11.29,21.85-1.87.6-3.78.89-5.65.89-7.48,0-14.46-4.58-16.97-11.8l-10.17,3.28c4,11.57,15.16,18.88,27.12,18.88"/>
          <path class="cls-1" d="m708.81,97.17c1.43,0,2.88-.22,4.29-.68,7.1-2.29,10.94-9.71,8.56-16.57-1.89-5.48-7.18-8.95-12.85-8.95-1.43,0-2.88.22-4.29.68-7.1,2.29-10.93,9.71-8.56,16.57,1.89,5.48,7.18,8.95,12.85,8.95"/>
          <path class="cls-1" d="m691.02,70.1c3,0,6.06-.46,9.06-1.43l-3.39-9.83c-1.87.6-3.78.89-5.65.89-7.48,0-14.46-4.57-16.96-11.8-3.12-9.03,1.95-18.84,11.29-21.85,1.87-.6,3.78-.89,5.65-.89,7.48,0,14.46,4.58,16.97,11.8l10.17-3.28c-3.99-11.57-15.16-18.88-27.12-18.88-3,0-6.05.46-9.06,1.43-14.98,4.84-23.06,20.49-18.05,34.97,4,11.57,15.15,18.88,27.11,18.88"/>
          <path class="cls-1" d="m691.03,55.56c1.43,0,2.88-.22,4.29-.68,7.1-2.29,10.93-9.71,8.56-16.57-1.89-5.49-7.18-8.95-12.85-8.95-1.43,0-2.87.22-4.29.68-7.1,2.29-10.94,9.71-8.56,16.57,1.89,5.48,7.18,8.95,12.85,8.95"/>
          <path class="cls-1" d="m372.46,69.21v-10.36c-9.85,0-17.87-7.75-17.87-17.27s8.02-17.27,17.87-17.27,17.87,7.75,17.87,17.27h10.72c0-15.26-12.81-27.64-28.6-27.64s-28.6,12.37-28.6,27.64,12.8,27.63,28.6,27.63"/>
          <path class="cls-1" d="m372.46,54.67c7.48,0,13.55-5.86,13.55-13.1s-6.07-13.1-13.55-13.1-13.55,5.86-13.55,13.1,6.07,13.1,13.55,13.1"/>
        </g>
      </g>
    </g>
  </g>
</svg>