<?xml version="1.0" encoding="utf-8"?>
<!-- Generator: Adobe Illustrator 28.0.0, SVG Export Plug-In . SVG Version: 6.00 Build 0)  -->
<svg version="1.1" id="Layer_2_00000118376633663758930350000018277600949970996891_"
	 xmlns="http://www.w3.org/2000/svg" xmlns:xlink="http://www.w3.org/1999/xlink" x="0px" y="0px" viewBox="0 0 872.3 622.7"
	 style="enable-background:new 0 0 872.3 622.7;" xml:space="preserve">
<style type="text/css">
	.st0{clip-path:url(#SVGID_00000065069838978792924660000015194718533857319073_);}
	.st1{clip-path:url(#SVGID_00000046301797780956858320000013726045787170494905_);}
	.st2{fill:#C8E3DC;}
</style>
<g id="Layer_1-2">
	<g>
		<defs>
			<rect id="SVGID_1_" x="1" y="-1.3" width="871" height="623"/>
		</defs>
		<clipPath id="SVGID_00000070106242080626170330000005291872723186176439_">
			<use xlink:href="#SVGID_1_"  style="overflow:visible;"/>
		</clipPath>
		<g style="clip-path:url(#SVGID_00000070106242080626170330000005291872723186176439_);">
			<g>
				<defs>
					<rect id="SVGID_00000018935653918657684830000014982327550740521608_" x="1" y="0.8" width="871" height="621"/>
				</defs>
				<clipPath id="SVGID_00000141419728821644723810000005514400506897588906_">
					<use xlink:href="#SVGID_00000018935653918657684830000014982327550740521608_"  style="overflow:visible;"/>
				</clipPath>
				<g style="clip-path:url(#SVGID_00000141419728821644723810000005514400506897588906_);">
					<g>
						<path class="st2" d="M119.8,88.9c5.1,0,10.2-1.9,14-5.6c7.8-7.5,7.8-19.6,0-27.1c-3.9-3.7-8.9-5.6-14-5.6s-10.2,1.9-14,5.6
							c-7.8,7.5-7.8,19.6,0,27.1C109.6,87.1,114.7,88.9,119.8,88.9 M119.8,57.5c3.2,0,6.5,1.2,8.9,3.6c4.9,4.8,4.9,12.5,0,17.3
							c-2.5,2.4-5.7,3.6-8.9,3.6s-6.5-1.2-8.9-3.6c-4.9-4.8-4.9-12.5,0-17.3C113.3,58.7,116.6,57.5,119.8,57.5"/>
						<path class="st2" d="M116.2,111.8h6.1c1.9,0,3.5-6.7,3.5-8.5v-0.2c4.9-0.8,9.6-2.7,13.9-5.5c1.3,1.2,5.6,3.8,7.7,3.8
							c0.4,0,0.7-0.1,0.9-0.3l4.3-4.2c1.3-1.3-2.2-6.8-3.6-8.3c3-4.2,4.9-8.9,5.7-13.7c3-0.5,7.3-1.7,7.3-3.1v-5.9
							c0-1.6-4.9-2.9-7.5-3.3c-0.9-4.5-2.8-8.8-5.5-12.8c1.4-1.5,5-7,3.6-8.3l-4.3-4.2c-0.2-0.2-0.5-0.3-0.9-0.3
							c-2.1,0-6.4,2.6-7.7,3.8c-4.3-2.8-9-4.7-13.9-5.5c-0.2-2.3-1.7-7.9-3.5-7.9h-6.1c-1.6,0-2.9,5.1-3.3,8
							c-4.7,0.9-9.2,2.7-13.2,5.3l0,0c-1.2-1.1-5.5-3.8-7.7-3.8c-0.4,0-0.7,0.1-0.9,0.3l-4.3,4.2c-1.1,1.1,1.9,5.9,3.7,8.2
							c-2.8,3.9-4.7,8.2-5.6,12.7h-1.1c-1.9,0-8.8,1.5-8.8,3.4v5.9c0,1.8,6.9,3.4,8.8,3.4h1c0.8,4.7,2.7,9.3,5.7,13.4l0,0
							c-1.4,1.3-5,7-3.7,8.3l4.3,4.2c0.2,0.2,0.4,0.2,0.8,0.2c1.8,0,5.7-2.4,7.7-3.8c4,2.7,8.5,4.5,13.2,5.4v0.3
							C112.8,105.1,114.3,111.7,116.2,111.8 M119.7,42.9c7,0,14,2.6,19.4,7.8c10.7,10.3,10.7,27.1,0,37.5
							c-5.4,5.2-12.4,7.8-19.4,7.8s-14-2.6-19.4-7.8c-10.7-10.3-10.7-27.1,0-37.5C105.7,45.4,112.7,42.9,119.7,42.9"/>
						<path class="st2" d="M526.2,63.5c5.1,0,10.2-1.9,14-5.6c7.8-7.5,7.8-19.6,0-27.1c-3.9-3.7-9-5.6-14-5.6s-10.2,1.9-14,5.6
							c-7.8,7.5-7.8,19.6,0,27.1C516,61.7,521.1,63.5,526.2,63.5 M526.2,32.1c3.2,0,6.5,1.2,9,3.6c5,4.8,5,12.5,0,17.3
							c-2.5,2.4-5.7,3.6-9,3.6s-6.5-1.2-9-3.6c-5-4.8-5-12.5,0-17.3C519.7,33.3,522.9,32.1,526.2,32.1"/>
						<path class="st2" d="M522.6,86.3h6.1c1.9,0,3.5-6.7,3.5-8.5v-0.2c4.9-0.8,9.7-2.7,13.9-5.5c1.3,1.2,5.6,3.8,7.7,3.8
							c0.4,0,0.7-0.1,0.9-0.3l4.3-4.2c1.3-1.3-2.2-6.8-3.7-8.3c3-4.2,4.9-8.9,5.7-13.7c3-0.5,7.3-1.7,7.3-3.1v-5.9
							c0-1.6-4.8-2.9-7.5-3.3c-0.9-4.5-2.8-8.8-5.5-12.8c1.4-1.5,5-7,3.7-8.3l-4.3-4.2c-0.2-0.2-0.5-0.3-0.9-0.3
							c-2.1,0-6.4,2.6-7.7,3.8c-4.3-2.8-9-4.7-13.9-5.5c-0.2-2.3-1.7-7.9-3.5-7.9h-6.1c-1.6,0-2.9,5.1-3.3,8
							c-4.7,0.9-9.2,2.7-13.2,5.4l0,0c-1.1-1.1-5.5-3.8-7.7-3.8c-0.4,0-0.7,0.1-0.9,0.3l-4.3,4.2c-1.1,1.1,1.9,5.9,3.7,8.2
							c-2.8,3.9-4.6,8.2-5.6,12.7h-1.1c-1.9,0-8.8,1.5-8.8,3.4v5.9c0,1.8,6.9,3.4,8.8,3.4h1c0.9,4.7,2.7,9.3,5.7,13.4l0,0
							c-1.4,1.3-5,7-3.6,8.3l4.3,4.2c0.2,0.2,0.4,0.2,0.8,0.2c1.8,0,5.7-2.4,7.7-3.8c4,2.7,8.5,4.5,13.1,5.4v0.3
							C519.1,79.7,520.7,86.3,522.6,86.3 M526.1,17.5c7,0,14,2.6,19.4,7.8c10.7,10.4,10.7,27.1,0,37.5c-5.3,5.2-12.4,7.8-19.4,7.8
							s-14-2.6-19.4-7.8c-10.7-10.3-10.7-27.1,0-37.5C512,20,519.1,17.5,526.1,17.5"/>
						<path class="st2" d="M801.5,85.6c4,0,8-1.2,11.5-3.6c8.9-6.2,11-18.1,4.6-26.8c-3.9-5.2-10-8-16.2-8c-4,0-8,1.2-11.5,3.6
							c-8.9,6.2-11,18.1-4.6,26.8C789.2,82.8,795.3,85.6,801.5,85.6 M801.5,54.2c3.9,0,7.8,1.8,10.3,5.1c4.1,5.5,2.8,13.1-2.9,17.1
							c-2.2,1.6-4.8,2.3-7.4,2.3c-4,0-7.8-1.8-10.3-5.1c-4.1-5.5-2.8-13.1,2.9-17.1C796.3,54.9,798.9,54.2,801.5,54.2"/>
						<path class="st2" d="M797,108.4c1.9,0,4.4-6.1,4.7-7.8l0-0.2c5,0,10-1.1,14.7-3.2c1.2,1.4,5.3,5,7.2,5c0.2,0,0.4-0.1,0.6-0.2
							l5-3.4c1.5-1.1-1-7-2.2-8.7c3.7-3.7,6.3-8,8-12.6c3.1,0,7.5-0.5,7.7-1.9l1-5.8c0.3-1.6-4.3-3.6-6.8-4.4
							c-0.1-4.6-1.2-9.2-3.3-13.5c1.7-1.2,6.1-6.1,5-7.6l-3.5-4.8c-0.2-0.3-0.7-0.5-1.3-0.5c-2.2,0-6.3,1.7-7.7,2.6
							c-3.7-3.5-8.1-6-12.8-7.6c0.2-2.3-0.3-8-2.1-8.3l-6-1h-0.1c-1.5,0-3.6,4.7-4.5,7.4c-4.7,0.1-9.5,1.2-13.9,3.2l0,0
							c-1-1.3-5.2-5-7.2-5c-0.2,0-0.4,0-0.6,0.2l-5,3.4c-1.3,0.9,0.9,6.2,2.3,8.7c-3.4,3.4-6,7.4-7.7,11.7l-1.1-0.2
							c-0.4-0.1-0.9-0.1-1.6-0.1c-2.8,0-7.4,0.5-7.7,2l-1,5.8c-0.3,1.8,6.2,4.4,8.1,4.7l1,0.2c0,4.8,1.1,9.6,3.3,14.1l0,0
							c-1.5,1.1-6.1,6.1-5,7.6l3.5,4.8c0.2,0.3,0.6,0.4,1.2,0.4c2,0,5.8-1.5,7.8-2.6c3.5,3.3,7.7,5.8,12.1,7.4l0,0.3
							c-0.3,1.8,0.1,8.6,2,8.9L797,108.4L797,108.4 M801.4,39.7c8.5,0,17,3.8,22.3,11.1c8.8,11.9,6,28.5-6.3,37
							c-4.8,3.3-10.4,5-15.9,5c-8.5,0-17-3.8-22.3-11.1c-8.8-11.9-6-28.5,6.3-37C790.3,41.3,795.9,39.7,801.4,39.7"/>
						<path class="st2" d="M178.1,61h4.2c1.3,0,2.4-4.6,2.4-5.9V55c3.4-0.6,6.6-1.8,9.6-3.8c0.9,0.8,3.9,2.6,5.3,2.6
							c0.3,0,0.5-0.1,0.6-0.2l3-2.9c0.9-0.9-1.5-4.7-2.5-5.7c2.1-2.9,3.4-6.1,3.9-9.5c2.1-0.4,5-1.2,5-2.1v-4c0-1.1-3.3-2-5.1-2.2
							c-0.6-3.1-1.9-6.1-3.8-8.8c1-1,3.4-4.8,2.5-5.7l-3-2.9c-0.1-0.1-0.4-0.2-0.6-0.2c-1.4,0-4.4,1.8-5.3,2.6
							c-2.9-1.9-6.2-3.2-9.6-3.8c-0.1-1.6-1.2-5.4-2.4-5.4h-4.2c-1.1,0-2,3.5-2.3,5.5c-3.2,0.6-6.3,1.8-9.1,3.7l0,0
							c-0.8-0.8-3.8-2.6-5.3-2.6c-0.3,0-0.5,0.1-0.6,0.2l-3,2.9c-0.8,0.8,1.3,4.1,2.6,5.7c-1.9,2.7-3.2,5.7-3.8,8.8h-0.8
							c-1.3,0-6.1,1-6.1,2.3v4c0,1.3,4.8,2.3,6.1,2.3h0.7c0.6,3.3,1.9,6.4,3.9,9.2l0,0c-0.9,0.9-3.4,4.8-2.5,5.7l3,2.9
							c0.1,0.1,0.3,0.2,0.5,0.2c1.3,0,3.9-1.6,5.3-2.6c2.8,1.9,5.9,3.1,9.1,3.7v0.2C175.7,56.4,176.8,61,178.1,61 M180.5,13.5
							c4.8,0,9.7,1.8,13.4,5.4c7.4,7.1,7.4,18.7,0,25.8c-3.7,3.6-8.5,5.3-13.4,5.3s-9.7-1.8-13.4-5.3c-7.4-7.1-7.4-18.7,0-25.8
							C170.9,15.3,175.7,13.5,180.5,13.5"/>
						<path class="st2" d="M180.3,44.4c7.1,0,12.8-5.5,12.8-12.3s-5.7-12.3-12.8-12.3s-12.8,5.5-12.8,12.3S173.3,44.4,180.3,44.4"/>
						<path class="st2" d="M190.9,114.5h4.2c1.3,0,2.4-4.6,2.4-5.9v-0.1c3.4-0.6,6.6-1.8,9.6-3.8c0.9,0.8,3.9,2.6,5.3,2.6
							c0.3,0,0.5-0.1,0.6-0.2l3-2.9c0.9-0.9-1.5-4.7-2.5-5.7c2.1-2.9,3.4-6.1,3.9-9.5c2.1-0.4,5-1.2,5-2.1V83c0-1.1-3.3-2-5.1-2.2
							c-0.6-3.1-1.9-6.1-3.8-8.8c1-1,3.4-4.8,2.5-5.7l-3-2.9c-0.1-0.1-0.4-0.2-0.6-0.2c-1.4,0-4.4,1.8-5.3,2.6
							c-2.9-2-6.2-3.2-9.6-3.8c-0.1-1.6-1.2-5.4-2.4-5.4h-4.2c-1.1,0-2,3.5-2.3,5.5c-3.2,0.6-6.3,1.8-9.1,3.7l0,0
							c-0.8-0.8-3.8-2.6-5.3-2.6c-0.3,0-0.5,0.1-0.6,0.2l-3,2.9c-0.8,0.8,1.3,4.1,2.6,5.6c-1.9,2.7-3.2,5.7-3.8,8.8h-0.8
							c-1.3,0-6.1,1-6.1,2.3v4.1c0,1.3,4.7,2.3,6.1,2.3h0.7c0.6,3.3,1.9,6.4,3.9,9.2l0,0c-0.9,0.9-3.4,4.8-2.5,5.7l3,2.9
							c0.1,0.1,0.3,0.2,0.5,0.2c1.3,0,3.9-1.6,5.3-2.6c2.8,1.9,5.9,3.1,9.1,3.7v0.2C188.5,110,189.6,114.5,190.9,114.5 M193.3,67.1
							c4.8,0,9.7,1.8,13.4,5.3c7.4,7.1,7.4,18.7,0,25.8c-3.7,3.6-8.5,5.3-13.4,5.3s-9.7-1.8-13.4-5.3c-7.4-7.1-7.4-18.7,0-25.8
							C183.6,68.9,188.4,67.1,193.3,67.1"/>
						<path class="st2" d="M781.2,162.3h4.2c1.3,0,2.4-4.6,2.4-5.9v-0.1c3.4-0.6,6.7-1.8,9.6-3.8c0.9,0.8,3.9,2.6,5.3,2.6
							c0.3,0,0.5-0.1,0.6-0.2l3-2.9c0.9-0.9-1.5-4.7-2.5-5.7c2-2.9,3.4-6.1,3.9-9.5c2.1-0.4,5-1.2,5-2.1v-4.1c0-1.1-3.3-2-5.2-2.2
							c-0.6-3.1-1.9-6.1-3.8-8.8c1-1,3.4-4.8,2.5-5.7l-3-2.9c-0.1-0.1-0.3-0.2-0.6-0.2c-1.4,0-4.4,1.8-5.3,2.6
							c-2.9-1.9-6.2-3.2-9.6-3.8c-0.1-1.6-1.2-5.4-2.4-5.4h-4.2c-1.1,0-2,3.5-2.3,5.5c-3.2,0.6-6.3,1.8-9.1,3.7l0,0
							c-0.8-0.8-3.8-2.6-5.3-2.6c-0.3,0-0.5,0.1-0.6,0.2l-3,2.9c-0.8,0.8,1.3,4.1,2.6,5.6c-1.9,2.7-3.2,5.7-3.8,8.8h-0.8
							c-1.3,0-6.1,1-6.1,2.3v4.1c0,1.3,4.7,2.3,6.1,2.3h0.7c0.6,3.3,1.9,6.4,3.9,9.2l0,0c-0.9,0.9-3.5,4.8-2.5,5.7l3,2.9
							c0.1,0.1,0.3,0.2,0.5,0.2c1.3,0,4-1.6,5.3-2.6c2.8,1.9,5.9,3.1,9.1,3.7v0.2C778.8,157.8,779.9,162.4,781.2,162.3 M783.6,114.9
							c4.8,0,9.7,1.8,13.4,5.3c7.4,7.1,7.4,18.7,0,25.8c-3.7,3.6-8.5,5.4-13.4,5.4s-9.7-1.8-13.4-5.4c-7.4-7.1-7.4-18.7,0-25.8
							C773.9,116.7,778.7,114.9,783.6,114.9"/>
						<path class="st2" d="M654.8,143.4h4.2c1.3,0,2.4-4.6,2.4-5.9v-0.1c3.4-0.6,6.7-1.8,9.6-3.8c0.9,0.8,3.9,2.6,5.3,2.6
							c0.3,0,0.5-0.1,0.6-0.2l3-2.9c0.9-0.9-1.5-4.7-2.5-5.7c2.1-2.9,3.4-6.1,3.9-9.5c2.1-0.4,5-1.2,5-2.1V112c0-1.1-3.3-2-5.2-2.2
							c-0.6-3.1-1.9-6.1-3.8-8.8c1-1,3.4-4.8,2.5-5.7l-3-2.9c-0.1-0.1-0.3-0.2-0.6-0.2c-1.4,0-4.4,1.8-5.3,2.6
							c-2.9-1.9-6.2-3.2-9.6-3.8c-0.1-1.6-1.2-5.4-2.4-5.4h-4.2c-1.1,0-2,3.5-2.3,5.5c-3.2,0.6-6.3,1.8-9.1,3.7l0,0
							c-0.8-0.8-3.8-2.6-5.3-2.6c-0.3,0-0.5,0.1-0.6,0.2l-3,2.9c-0.8,0.8,1.3,4.1,2.6,5.7c-1.9,2.7-3.2,5.7-3.8,8.8h-0.8
							c-1.3,0-6.1,1-6.1,2.3v4.1c0,1.3,4.7,2.3,6.1,2.3h0.7c0.6,3.3,1.9,6.4,3.9,9.2l0,0c-0.9,0.9-3.5,4.8-2.5,5.7l3,2.9
							c0.1,0.1,0.3,0.2,0.5,0.2c1.3,0,4-1.6,5.3-2.6c2.8,1.9,5.9,3.1,9.1,3.7v0.2C652.4,138.9,653.5,143.5,654.8,143.4 M657.2,96
							c4.8,0,9.7,1.8,13.4,5.3c7.4,7.1,7.4,18.7,0,25.8c-3.7,3.6-8.5,5.3-13.4,5.3s-9.7-1.8-13.4-5.3c-7.4-7.1-7.4-18.7,0-25.8
							C647.6,97.8,652.4,96,657.2,96"/>
						<path class="st2" d="M106.8,168.2h4.2c1.3,0,2.4-4.6,2.4-5.9v-0.1c3.4-0.6,6.7-1.8,9.6-3.8c0.9,0.8,3.9,2.6,5.3,2.6
							c0.3,0,0.5-0.1,0.6-0.2l3-2.9c0.9-0.9-1.5-4.7-2.5-5.7c2.1-2.9,3.4-6.1,3.9-9.5c2.1-0.4,5-1.2,5-2.1v-4.1c0-1.1-3.3-2-5.1-2.2
							c-0.6-3.1-1.9-6.1-3.8-8.8c1-1,3.4-4.8,2.5-5.7l-3-2.9c-0.1-0.1-0.3-0.2-0.6-0.2c-1.4,0-4.4,1.8-5.3,2.6
							c-2.9-1.9-6.2-3.2-9.6-3.8c-0.1-1.6-1.2-5.4-2.4-5.4h-4.2c-1.1,0-2,3.5-2.3,5.5c-3.2,0.6-6.3,1.8-9.1,3.7l0,0
							c-0.8-0.8-3.8-2.6-5.3-2.6c-0.3,0-0.5,0.1-0.6,0.2l-3,2.9c-0.8,0.8,1.3,4.1,2.6,5.7c-1.9,2.7-3.2,5.7-3.8,8.8h-0.8
							c-1.3,0-6.1,1-6.1,2.3v4.1c0,1.3,4.7,2.3,6.1,2.3h0.7c0.6,3.3,1.9,6.4,3.9,9.2l0,0c-0.9,0.9-3.4,4.8-2.5,5.7l3,2.9
							c0.1,0.1,0.3,0.2,0.5,0.2c1.3,0,3.9-1.6,5.3-2.6c2.8,1.9,5.9,3.1,9.1,3.7v0.2C104.4,163.7,105.5,168.3,106.8,168.2
							 M109.2,120.8c4.8,0,9.7,1.8,13.4,5.3c7.4,7.1,7.4,18.7,0,25.8c-3.7,3.6-8.5,5.4-13.4,5.4s-9.7-1.8-13.4-5.4
							c-7.4-7.1-7.4-18.7,0-25.8C99.5,122.6,104.4,120.8,109.2,120.8"/>
						<path class="st2" d="M41.9,253.8h4.2c1.3,0,2.4-4.6,2.4-5.9v-0.1c3.4-0.6,6.7-1.8,9.6-3.8c0.9,0.8,3.9,2.6,5.3,2.6
							c0.3,0,0.5-0.1,0.6-0.2l3-2.9c0.9-0.9-1.5-4.7-2.5-5.7c2.1-2.9,3.4-6.1,3.9-9.5c2.1-0.4,5-1.2,5-2.1v-4.1c0-1.1-3.3-2-5.2-2.2
							c-0.6-3.1-1.9-6.1-3.8-8.8c1-1,3.4-4.8,2.5-5.7l-3-2.9c-0.1-0.1-0.3-0.2-0.6-0.2c-1.4,0-4.4,1.8-5.3,2.6
							c-2.9-1.9-6.2-3.2-9.6-3.8c-0.1-1.6-1.2-5.4-2.4-5.4h-4.2c-1.1,0-2,3.5-2.3,5.5c-3.2,0.6-6.3,1.8-9.1,3.7l0,0
							c-0.8-0.8-3.8-2.6-5.3-2.6c-0.3,0-0.5,0.1-0.6,0.2l-3,2.9c-0.8,0.8,1.3,4.1,2.6,5.6c-1.9,2.7-3.2,5.7-3.8,8.8h-0.8
							c-1.3,0-6.1,1-6.1,2.3v4.1c0,1.3,4.7,2.3,6.1,2.3h0.7c0.6,3.3,1.9,6.4,3.9,9.2l0,0c-0.9,0.9-3.5,4.8-2.5,5.7l3,2.9
							c0.1,0.1,0.3,0.2,0.5,0.2c1.3,0,4-1.6,5.3-2.6c2.8,1.9,5.9,3.1,9.1,3.7v0.2C39.5,249.2,40.6,253.8,41.9,253.8 M44.3,206.4
							c4.8,0,9.7,1.8,13.4,5.4c7.4,7.1,7.4,18.7,0,25.8c-3.7,3.6-8.5,5.4-13.4,5.4s-9.7-1.8-13.4-5.4c-7.4-7.1-7.4-18.7,0-25.8
							C34.7,208.1,39.5,206.4,44.3,206.4"/>
						<path class="st2" d="M10.6,205.1c1.1,0,2.6-3.4,3.2-5.3c3.4,0,6.6-0.7,9.6-2l0.1,0.2c0.7,0.9,3.6,3.6,5,3.6
							c0.2,0,0.3,0,0.4-0.1l3.4-2.3c1.1-0.7-0.8-5.1-1.5-6.1l-0.1-0.1c2.4-2.3,4.4-5.2,5.6-8.4c0.3,0,0.7,0.1,1.1,0.1
							c1.9,0,5-0.4,5.1-1.3l0.7-4c0.2-1.2-4-3-5.5-3.3c0-3.5-0.9-6.9-2.4-9.9c1.5-1.5,3.4-3.8,2.9-4.5l-2.4-3.3
							c-0.2-0.2-0.5-0.3-1-0.3c-1.3,0-3.4,0.8-4.6,1.4c-2.4-2.2-5.2-3.9-8.4-5.1c0.2-1.4-0.1-5.9-1.3-6.1l-4.1-0.7h-0.1
							c-1.2,0-3,3.9-3.3,5.3c-3.6,0-7,0.8-10.1,2.2c-0.9-1.1-3.5-3.2-4.8-3.2c-0.2,0-0.3,0-0.4,0.1l-3.4,2.3c-0.9,0.6,0.5,4,1.4,5.8
							c-2.3,2.3-4.1,5-5.3,8.1l0,0c-0.3-0.1-0.7-0.1-1.2-0.1c-1.9,0-4.9,0.4-5.1,1.4l-0.7,4c-0.2,1.1,3.5,2.6,5.4,3.2
							c0,3.3,0.8,6.4,2.1,9.3l-0.6,0.4c-1.1,0.7-4.4,4.2-3.6,5.3l2.4,3.3c0.2,0.2,0.5,0.3,0.9,0.3c1.6,0,4.5-1.2,5.4-1.8l0.6-0.4
							c2.4,2.3,5.4,4.2,8.7,5.4l0,0c-0.2,1.3,0,5.9,1.3,6.1L10.6,205.1L10.6,205.1 M13.6,158c1.1,0,2.2,0.1,3.3,0.3
							c10.3,1.7,17.1,11.2,15.3,21.1c-1.6,8.9-9.6,15.1-18.6,15.1c-1.1,0-2.2-0.1-3.3-0.3C0.1,192.5-6.8,183-5,173.1
							C-3.4,164.2,4.6,158,13.6,158"/>
						<path class="st2" d="M622.8,95.7c0.1,0,0.2,0,0.3,0l6.4-2c2-0.6,1.3-8.1,0.7-10.1l0-0.2c4.9-2.5,9.2-6,12.7-10.3
							c1.4,0.7,5.3,1.7,7.8,1.7c1.2,0,2.1-0.2,2.4-0.8l3-5.8c0.9-1.8-4.7-6.4-6.8-7.5c1.7-5.4,2-10.9,1.2-16.3
							c3-1.6,7.1-4.2,6.6-5.6l-2.1-6.2c-0.3-1-2.4-1.3-4.7-1.3c-1.5,0-3.2,0.1-4.3,0.4c-2.5-4.4-6-8.4-10.3-11.6c1-2,2.8-9,0.9-9.9
							l-6-2.9c-0.1-0.1-0.3-0.1-0.5-0.1c-2.1,0-6.2,4.8-7.3,6.6c-3.6-1-7.3-1.5-11-1.5c-1.9,0-3.7,0.1-5.5,0.4
							c-1-2.2-4.2-7.2-6.1-7.2c-0.1,0-0.2,0-0.3,0l-6.4,2c-1.6,0.5-1.2,6.3-0.7,9.5c-4.6,2.5-8.7,5.8-12,10l0,0
							c-1.3-0.6-5.2-1.7-7.8-1.7c-1.2,0-2.1,0.2-2.4,0.8l-3,5.8c-0.8,1.5,4.1,5.6,6.8,7.4c-1.5,5-2,10.2-1.4,15.2l-1.2,0.4
							c-2,0.6-8.7,4.5-8.1,6.4l2.1,6.2c0.3,1,2.4,1.3,4.7,1.3s4.8-0.3,5.8-0.7l1-0.3c2.6,4.7,6.2,8.9,10.7,12.2l0,0
							c-1,1.8-2.8,9-0.9,9.9l6,2.9c0.1,0.1,0.2,0.1,0.4,0.1c1.8,0,5.5-4.2,7.2-6.7c3.7,1.1,7.4,1.6,11.1,1.6c1.5,0,3.1-0.1,4.6-0.3
							l0.1,0.3C617,89.8,620.7,95.7,622.8,95.7 M611.8,20.8c4.6,0,9.3,1,13.7,3.2c14.9,7.3,20.8,25,13.2,39.4c-5.3,10.1-16,16-27,16
							c-4.6,0-9.3-1-13.7-3.2c-14.9-7.3-20.8-25-13.2-39.4C590.1,26.6,600.8,20.8,611.8,20.8"/>
						<path class="st2" d="M611.9,71.5c2.2,0,4.4-0.3,6.6-1c11.2-3.5,17.3-15.1,13.7-26c-2.9-8.7-11.3-14.2-20.3-14.2
							c-2.2,0-4.4,0.3-6.6,1c-11.2,3.5-17.3,15.1-13.7,26C594.6,65.9,603,71.5,611.9,71.5"/>
						<path class="st2" d="M318,99.1h4.2c1.3,0,2.4-4.6,2.4-5.9v-0.1c3.4-0.6,6.6-1.8,9.6-3.8c0.9,0.8,3.9,2.6,5.3,2.6
							c0.3,0,0.5-0.1,0.6-0.2l3-2.9c0.9-0.9-1.5-4.7-2.5-5.7c2-2.9,3.4-6.1,3.9-9.5c2.1-0.4,5-1.2,5-2.1v-4.1c0-1.1-3.3-2-5.2-2.2
							c-0.6-3.1-1.9-6.1-3.8-8.8c1-1,3.4-4.8,2.5-5.7l-3-2.9c-0.1-0.1-0.3-0.2-0.6-0.2c-1.4,0-4.4,1.8-5.3,2.6
							c-2.9-2-6.2-3.2-9.6-3.8c-0.1-1.6-1.2-5.4-2.4-5.4H318c-1.1,0-2,3.5-2.3,5.5c-3.2,0.6-6.3,1.8-9.1,3.7l0,0
							c-0.8-0.8-3.8-2.6-5.3-2.6c-0.3,0-0.5,0.1-0.6,0.2l-3,2.9c-0.8,0.8,1.3,4.1,2.6,5.6c-1.9,2.7-3.2,5.7-3.8,8.8h-0.8
							c-1.3,0-6.1,1-6.1,2.3v4.1c0,1.3,4.8,2.3,6.1,2.3h0.7c0.6,3.3,1.9,6.4,3.9,9.2l0,0c-0.9,0.9-3.5,4.8-2.5,5.7l3,2.9
							c0.1,0.1,0.3,0.2,0.5,0.2c1.3,0,4-1.6,5.3-2.6c2.8,1.9,5.9,3.1,9.1,3.7v0.2C315.6,94.5,316.7,99.1,318,99.1 M320.4,51.6
							c4.8,0,9.7,1.8,13.4,5.3c7.4,7.1,7.4,18.7,0,25.8c-3.7,3.6-8.5,5.3-13.4,5.3s-9.7-1.8-13.4-5.3c-7.4-7.1-7.4-18.7,0-25.8
							C310.7,53.4,315.5,51.6,320.4,51.6"/>
						<path class="st2" d="M257.3,84.5v-16c-15.2,0-27.6-12-27.6-26.7s12.4-26.7,27.6-26.7s27.6,12,27.6,26.7h16.6
							c0-23.6-19.8-42.7-44.2-42.7s-44.2,19.1-44.2,42.7S232.9,84.5,257.3,84.5"/>
						<path class="st2" d="M257.3,62c11.6,0,20.9-9.1,20.9-20.2s-9.4-20.2-20.9-20.2s-20.9,9.1-20.9,20.2S245.8,62,257.3,62"/>
						<path class="st2" d="M37.8,90.5v-16c-15.2,0-27.6-12-27.6-26.7s12.4-26.7,27.6-26.7c15.2,0,27.6,12,27.6,26.7h16.6
							c0-23.6-19.8-42.7-44.2-42.7S-6.4,24.3-6.4,47.8S13.4,90.5,37.8,90.5"/>
						<path class="st2" d="M37.8,68c11.6,0,20.9-9.1,20.9-20.2s-9.4-20.2-20.9-20.2s-20.9,9.1-20.9,20.2S26.2,68,37.8,68"/>
						<path class="st2" d="M431.2,88.6c23.1,0,41.8-18.1,41.8-40.4S454.3,7.9,431.2,7.9V23c14.4,0,26.1,11.3,26.1,25.2
							s-11.7,25.2-26.1,25.2s-26.1-11.3-26.1-25.2h-15.7C389.4,70.5,408.1,88.6,431.2,88.6"/>
						<path class="st2" d="M431.2,67.4c10.9,0,19.8-8.6,19.8-19.1s-8.9-19.1-19.8-19.1s-19.8,8.6-19.8,19.1S420.3,67.4,431.2,67.4"
							/>
						<path class="st2" d="M269,126.7c15.8,0,28.6-12.4,28.6-27.6S284.8,71.5,269,71.5v10.4c9.9,0,17.9,7.8,17.9,17.3
							s-8,17.3-17.9,17.3s-17.9-7.8-17.9-17.3h-10.7C240.4,114.4,253.2,126.7,269,126.7"/>
						<path class="st2" d="M269,112.2c7.5,0,13.5-5.9,13.5-13.1S276.5,86,269,86s-13.6,5.9-13.6,13.1S261.5,112.2,269,112.2"/>
						<path class="st2" d="M842,219.5c17.5,0,34-10.1,41-26.8c9.1-21.9-1.9-46.7-24.5-55.5l-6.2,14.9c14.1,5.5,21,21.1,15.3,34.7
							c-4.3,10.4-14.7,16.7-25.6,16.7c-3.4,0-6.9-0.6-10.3-1.9c-14.1-5.5-21-21.1-15.3-34.7l-15.4-6c-9.1,21.9,1.9,46.7,24.5,55.5
							C831,218.6,836.5,219.6,842,219.5"/>
						<path class="st2" d="M842,197.1c8.3,0,16.1-4.8,19.4-12.7c4.3-10.4-0.9-22.1-11.6-26.3c-2.6-1-5.2-1.5-7.8-1.5
							c-8.3,0-16.1,4.8-19.4,12.7c-4.3,10.4,0.9,22.1,11.6,26.3C836.8,196.6,839.4,197.1,842,197.1"/>
						<path class="st2" d="M842.7,145.1l4-9.6c-9.2-3.6-13.6-13.6-9.9-22.5c2.8-6.7,9.5-10.8,16.6-10.8c2.2,0,4.5,0.4,6.7,1.2
							c9.1,3.6,13.6,13.6,9.9,22.5l9.9,3.9c5.9-14.2-1.2-30.3-15.9-35.9c-3.5-1.4-7.1-2-10.7-2c-11.3,0-22,6.6-26.5,17.3
							C820.9,123.3,828,139.4,842.7,145.1"/>
						<path class="st2" d="M853.3,132.6c5.4,0,10.5-3.1,12.6-8.2c2.8-6.7-0.6-14.3-7.5-17c-1.7-0.6-3.4-0.9-5.1-0.9
							c-5.4,0-10.5,3.1-12.6,8.2c-2.8,6.7,0.6,14.3,7.5,17C849.9,132.3,851.7,132.6,853.3,132.6"/>
						<path class="st2" d="M736.1,58.8c3,0,6.1-0.5,9.1-1.4c15-4.8,23.1-20.5,18.1-35c-4-11.6-15.2-18.9-27.1-18.9
							c-3,0-6.1,0.5-9.1,1.4l3.4,9.8c1.9-0.6,3.8-0.9,5.7-0.9c7.5,0,14.5,4.6,17,11.8c3.1,9-2,18.8-11.3,21.9
							c-1.9,0.6-3.8,0.9-5.7,0.9c-7.5,0-14.5-4.6-17-11.8L709,39.9C713,51.5,724.2,58.8,736.1,58.8"/>
						<path class="st2" d="M736.1,44.3c1.4,0,2.9-0.2,4.3-0.7c7.1-2.3,10.9-9.7,8.6-16.6c-1.9-5.5-7.2-9-12.8-9
							c-1.4,0-2.9,0.2-4.3,0.7c-7.1,2.3-10.9,9.7-8.6,16.6C725.2,40.8,730.5,44.3,736.1,44.3"/>
						<path class="st2" d="M46.2,139.3c15.8,0,28.6-12.4,28.6-27.6S62,84.1,46.2,84.1v10.4c9.8,0,17.9,7.8,17.9,17.3
							S56,129,46.2,129s-17.9-7.7-17.9-17.3H17.6C17.6,126.9,30.4,139.3,46.2,139.3"/>
						<path class="st2" d="M46.2,124.8c7.5,0,13.5-5.9,13.5-13.1s-6.1-13.1-13.5-13.1s-13.5,5.9-13.5,13.1S38.7,124.8,46.2,124.8"/>
						<path class="st2" d="M708.8,111.7c3,0,6.1-0.5,9.1-1.4c15-4.8,23.1-20.5,18-35c-4-11.6-15.2-18.9-27.1-18.9
							c-3,0-6.1,0.5-9.1,1.4l3.4,9.8c1.9-0.6,3.8-0.9,5.7-0.9c7.5,0,14.5,4.6,17,11.8c3.1,9-2,18.8-11.3,21.8
							c-1.9,0.6-3.8,0.9-5.7,0.9c-7.5,0-14.5-4.6-17-11.8l-10.2,3.3C685.7,104.4,696.8,111.7,708.8,111.7"/>
						<path class="st2" d="M708.8,97.2c1.4,0,2.9-0.2,4.3-0.7c7.1-2.3,10.9-9.7,8.6-16.6c-1.9-5.5-7.2-8.9-12.8-8.9
							c-1.4,0-2.9,0.2-4.3,0.7c-7.1,2.3-10.9,9.7-8.6,16.6C697.9,93.7,703.1,97.2,708.8,97.2"/>
						<path class="st2" d="M691,70.1c3,0,6.1-0.5,9.1-1.4l-3.4-9.8c-1.9,0.6-3.8,0.9-5.7,0.9c-7.5,0-14.5-4.6-17-11.8
							c-3.1-9,2-18.8,11.3-21.9c1.9-0.6,3.8-0.9,5.7-0.9c7.5,0,14.5,4.6,17,11.8l10.2-3.3c-4-11.6-15.2-18.9-27.1-18.9
							c-3,0-6,0.5-9.1,1.4c-15,4.8-23.1,20.5-18,35C667.9,62.8,679.1,70.1,691,70.1"/>
						<path class="st2" d="M691,55.6c1.4,0,2.9-0.2,4.3-0.7c7.1-2.3,10.9-9.7,8.6-16.6c-1.9-5.5-7.2-9-12.8-9
							c-1.4,0-2.9,0.2-4.3,0.7c-7.1,2.3-10.9,9.7-8.6,16.6C680.1,52.1,685.4,55.6,691,55.6"/>
						<path class="st2" d="M372.5,69.2V58.9c-9.9,0-17.9-7.8-17.9-17.3s8-17.3,17.9-17.3s17.9,7.8,17.9,17.3H401
							c0-15.3-12.8-27.6-28.6-27.6s-28.6,12.4-28.6,27.6S356.6,69.2,372.5,69.2"/>
						<path class="st2" d="M372.5,54.7c7.5,0,13.5-5.9,13.5-13.1s-6.1-13.1-13.5-13.1s-13.5,5.9-13.5,13.1S365,54.7,372.5,54.7"/>
						<path class="st2" d="M876,56.7v-16c-15.2,0-27.6-12-27.6-26.7s12.4-26.7,27.6-26.7c15.2,0,27.6,12,27.6,26.7h16.6
							c0-23.6-19.8-42.7-44.2-42.7s-44.1,19.1-44.1,42.7S851.6,56.7,876,56.7"/>
						<path class="st2" d="M876,34.3c11.6,0,20.9-9.1,20.9-20.2S887.6-6.2,876-6.2s-20.9,9.1-20.9,20.2S864.4,34.3,876,34.3"/>
					</g>
				</g>
			</g>
		</g>
	</g>
</g>
</svg>
