<?xml version="1.0" encoding="UTF-8"?>
<svg id="Layer_2" data-name="Layer 2" xmlns="http://www.w3.org/2000/svg" viewBox="0 0 409.29 156.08">
  <defs>
    <style>
      .cls-1 {
        fill: #fff;
        stroke-width: 0px;
      }
    </style>
  </defs>
  <g id="Layer_1-2" data-name="Layer 1-2">
    <g>
      <path class="cls-1" d="m119.9,74.86c5.38,0,9.64.24,12.64.71,4.87.63,8.36,2.09,10.38,4.33,2.02,2.24,3.05,5.82,3.05,10.63v36.88h-53.22c-5.5,0-9.76-.19-12.67-.57-4.82-.71-8.29-2.21-10.27-4.46-1.98-2.24-2.98-5.81-2.98-10.65,0,0-.09-12.8-.11-15.09h54.69v-1.35c0-3.51-1.88-4.98-3.46-5.6-.62-.28-1.97-.67-5.98-.67h-44.53v-14.17h52.46Zm-31.9,30.33l-.04,4.1c0,1.22.33,2.19.98,2.88.68.71,1.62,1.07,2.82,1.07h29.64v-8.05s-33.4,0-33.4,0Z"/>
      <rect class="cls-1" x="157.38" y="58.7" width="24.56" height="68.72"/>
      <path class="cls-1" d="m215.57,58.85v16.01h13.57v15.47h-13.57v16.8c0,1.22.14,2.96,1.36,3.84.76.56,2.02.86,3.96.98h14.61v15.47h-18.57c-5.4,0-9.75-.24-12.93-.71-4.74-.72-8.13-2.21-10.07-4.45-1.93-2.24-2.91-5.77-2.91-10.52v-52.89h24.56-.01Z"/>
      <path class="cls-1" d="m383.24,74.87c5.39,0,9.64.24,12.63.71,4.88.63,8.36,2.09,10.38,4.33s3.04,5.81,3.04,10.63v36.88h-53.22c-5.49,0-9.76-.19-12.67-.57-4.82-.71-8.28-2.21-10.27-4.46-1.98-2.24-2.98-5.81-2.98-10.65,0,0-.09-12.8-.1-15.09h54.69v-1.35c0-3.51-1.88-4.98-3.46-5.6-.61-.28-1.97-.67-5.97-.67h-44.53v-14.17h52.47-.01Zm-31.9,30.33l-.05,4.1c0,1.22.33,2.19.98,2.88.68.71,1.62,1.07,2.83,1.07h29.64v-8.05s-33.4,0-33.4,0Z"/>
      <path class="cls-1" d="m295.76,74.24c5.49,0,9.76.19,12.67.57,4.82.72,8.29,2.22,10.27,4.46,1.97,2.23,2.98,5.81,2.98,10.64,0,0,.09,12.79.11,15.09h-54.7v1.35c0,3.51,1.89,4.98,3.46,5.59.61.27,1.97.67,5.98.67h44.53v14.18h-52.48c-5.39,0-9.65-.24-12.64-.71-4.88-.63-8.36-2.09-10.39-4.33-2.02-2.23-3.04-5.81-3.04-10.64v-36.88h53.25Zm-28.67,14.17v8.05h33.41l.05-4.1c0-2.48-1.42-3.95-3.81-3.95,0,0-29.65,0-29.65,0Z"/>
      <path class="cls-1" d="m165.44,156.03h-7.48v-22.46h18.83c1.63,0,3,.06,4.05.19,1.63.23,2.79.68,3.43,1.35.62.64.93,1.77.93,3.35v4.8c0,1.53-.31,2.65-.91,3.33-.61.69-1.68,1.15-3.19,1.38-.96.12-2.41.19-4.32.19h-11.35v7.88h.01Zm0-18.05v5.77h8.76c2.15,0,2.72-.2,3.07-.58.27-.3.5-.73.5-3.09,0-1.63-1.09-2-1.56-2.09h-10.76s0,0,0,0h0Z"/>
      <path class="cls-1" d="m213.38,156.07h-8.24l-1.18-2.74-.12-.27-.11-.26h-9.48l-.11.26-.11.27-1.19,2.75h-8.28l9.21-22.4h10.45l9.16,22.4h0Zm-14.43-16.52l-.43,1.3-.43,1.3-1.66,5.09-.19.58-.18.58h5.69l-.18-.58-.18-.57-1.61-5.09-.41-1.3-.41-1.31h-.01Z"/>
      <path class="cls-1" d="m243,156.02h-19.53c-1.88,0-3.37-.07-4.42-.23-1.48-.23-2.52-.69-3.11-1.37s-.88-1.79-.88-3.29v-12.67c0-1.51.29-2.61.88-3.29.59-.68,1.63-1.14,3.11-1.37,1.06-.16,2.55-.24,4.42-.24h19.53v4.4h-16.89c-3.07,0-3.53,1.56-3.53,2.5v8.65c0,.93.46,2.5,3.53,2.5h16.89v4.4h0Z"/>
      <path class="cls-1" d="m273.76,156.02h-7.44v-6.45c0-.95-.47-2.54-3.58-2.54h-9.15v9h-7.48v-22.45h7.48v13.18l.76-.84.77-.85,10.5-11.5h8.42l-7.24,7.61-.64.68-.65.67.93.07.93.07c2.09.15,3.65.54,4.64,1.14,1.17.74,1.74,1.95,1.74,3.7v8.51h0Z"/>
      <path class="cls-1" d="m304.91,156.07h-8.23l-1.19-2.75-.11-.27-.12-.26h-9.47l-.12.26-.12.27-1.18,2.75h-8.29l9.21-22.4h10.46l9.16,22.4Zm-14.42-16.52l-.43,1.3-.42,1.3-1.67,5.09-.18.58-.19.58h5.71l-.18-.58-.19-.57-1.61-5.08-.41-1.3-.41-1.3-.02-.02h0Z"/>
      <path class="cls-1" d="m333.98,156.02h-18.83c-1.87,0-3.36-.08-4.42-.23-1.51-.23-2.55-.69-3.12-1.36-.58-.68-.87-1.79-.87-3.3v-12.67c0-1.47.29-2.56.87-3.25.57-.68,1.63-1.15,3.14-1.41.97-.15,2.45-.23,4.4-.23h18.83v4.4h-16.19c-1.43,0-1.95.15-2.23.28-.5.2-1.39.76-1.39,2.27v8.6c0,1.08.51,1.88,1.44,2.24.44.18,1.11.26,2.18.26h8.7v-4.65h-7.82v-4.4h15.31v13.45h0Z"/>
      <rect class="cls-1" x="338.42" y="133.58" width="7.47" height="22.44"/>
      <polygon class="cls-1" points="377.08 156.03 368.52 156.03 359.25 145.65 358.48 144.79 357.71 143.93 357.71 145.08 357.71 146.24 357.71 156.03 350.23 156.03 350.23 133.57 357.64 133.57 367.99 145.84 368.77 146.75 369.55 147.67 369.55 146.47 369.55 145.26 369.55 133.62 377.08 133.58 377.08 156.03"/>
      <path class="cls-1" d="m409.07,156.03h-18.83c-1.87,0-3.35-.08-4.42-.23-1.5-.23-2.56-.69-3.12-1.36-.58-.68-.87-1.79-.87-3.3v-12.67c0-1.47.29-2.57.87-3.24.57-.68,1.63-1.15,3.15-1.41.99-.16,2.48-.24,4.4-.24h18.83v4.4h-16.19c-1.43,0-1.95.15-2.22.28-.51.2-1.4.76-1.4,2.27v8.61c0,1.46.9,2.03,1.44,2.24.43.18,1.11.26,2.18.26h8.71v-4.65h-7.83v-4.4h15.31v13.45h-.01,0Z"/>
      <path class="cls-1" d="m46.55,75.61c-16.04,0-29.09-13.04-29.09-29.08s13.05-29.09,29.09-29.09,29.08,13.05,29.08,29.09h17.45C93.08,20.83,72.24,0,46.54,0S0,20.83,0,46.53s20.83,46.53,46.54,46.53v-17.45h0Z"/>
      <path class="cls-1" d="m68.61,46.52c0,12.18-9.88,22.06-22.06,22.06s-22.06-9.88-22.06-22.06,9.88-22.06,22.06-22.06,22.06,9.87,22.06,22.06"/>
    </g>
  </g>
</svg>