<?xml version="1.0" encoding="UTF-8"?>
<svg id="Layer_2" data-name="Layer 2" xmlns="http://www.w3.org/2000/svg" viewBox="0 0 255.13 37.11">
  <defs>
    <style>
      .cls-1 {
        fill: #0ab095;
        stroke-width: 0px;
      }
    </style>
  </defs>
  <g id="Layer_2-2" data-name="Layer 2">
    <g>
      <path class="cls-1" d="m7.6,37.03H0V.02h19.13c1.66,0,3.05.1,4.11.31,1.66.38,2.83,1.12,3.48,2.22.63,1.05.94,2.92.94,5.52v7.91c0,2.52-.31,4.37-.92,5.49-.62,1.14-1.71,1.9-3.24,2.27-.98.2-2.45.31-4.39.31H7.59v12.99h.01v-.02Zm0-29.75v9.51h8.9c2.18,0,2.76-.33,3.12-.96.27-.49.51-1.2.51-5.09,0-2.69-1.11-3.3-1.58-3.44h-.11l-10.82-.02h-.01Z"/>
      <path class="cls-1" d="m56.31,37.1h-8.37l-1.2-4.52-.12-.44-.11-.43h-9.63l-.11.43-.11.44-1.21,4.53h-8.41L36.38.2h10.62l9.31,36.92h0v-.02Zm-14.66-27.23l-.44,2.14-.44,2.14-1.69,8.39-.19.96-.18.96h5.78l-.18-.96-.18-.94-1.64-8.39-.42-2.14-.42-2.16h-.01Z"/>
      <g>
        <path class="cls-1" d="m86.4,37.01h-19.84c-1.91,0-3.42-.12-4.49-.38-1.5-.38-2.56-1.14-3.16-2.26s-.89-2.95-.89-5.42V8.08c0-2.49.29-4.3.89-5.42.6-1.12,1.66-1.88,3.16-2.26,1.08-.26,2.59-.4,4.49-.4h19.84v7.25h-17.16c-3.12,0-3.59,2.57-3.59,4.12v14.26c0,1.53.47,4.12,3.59,4.12h17.16v7.25h0v.02Z"/>
        <path class="cls-1" d="m117.65,37.01h-7.56v-10.63c0-1.57-.48-4.19-3.64-4.19h-9.3v14.83h-7.6V.03h7.6v21.72l.77-1.38.78-1.4L109.38.02h8.55l-7.36,12.54-.65,1.12-.66,1.1.94.12.94.12c2.12.25,3.71.89,4.71,1.88,1.19,1.22,1.77,3.21,1.77,6.1v14.02h.01Z"/>
      </g>
      <path class="cls-1" d="m149.3,37.1h-8.36l-1.21-4.53-.11-.44-.12-.43h-9.62l-.12.43-.12.44-1.2,4.53h-8.42L129.36.18h10.63l9.31,36.92Zm-14.65-27.23l-.44,2.14-.43,2.14-1.7,8.39-.18.96-.19.96h5.8l-.18-.96-.19-.94-1.64-8.37-.42-2.14-.42-2.14-.02-.03h0Z"/>
      <path class="cls-1" d="m178.83,37.01h-19.13c-1.9,0-3.41-.13-4.49-.38-1.53-.38-2.59-1.14-3.17-2.24-.59-1.12-.88-2.95-.88-5.44V8.08c0-2.42.29-4.22.88-5.36.58-1.12,1.66-1.9,3.19-2.32.99-.25,2.49-.38,4.47-.38h19.13v7.25h-16.45c-1.45,0-1.98.25-2.27.46-.51.33-1.41,1.25-1.41,3.74v14.17c0,1.78.52,3.1,1.46,3.69.45.3,1.13.43,2.21.43h8.84v-7.66h-7.94v-7.25h15.55v22.17h0Z"/>
      <rect class="cls-1" x="183.34" y=".03" width="7.59" height="36.98"/>
      <polygon class="cls-1" points="222.62 37.03 213.92 37.03 204.51 19.92 203.72 18.51 202.94 17.09 202.94 18.99 202.94 20.9 202.94 37.03 195.34 37.03 195.34 .02 202.87 .02 213.39 20.24 214.18 21.74 214.97 23.25 214.97 21.28 214.97 19.28 214.97 .1 222.62 .03 222.62 37.03"/>
      <path class="cls-1" d="m255.12,37.03h-19.13c-1.9,0-3.4-.13-4.49-.38-1.52-.38-2.6-1.14-3.17-2.24-.59-1.12-.88-2.95-.88-5.44V8.09c0-2.42.29-4.24.88-5.34.58-1.12,1.66-1.9,3.2-2.32,1.01-.26,2.52-.4,4.47-.4h19.13v7.25h-16.45c-1.45,0-1.98.25-2.26.46-.52.33-1.42,1.25-1.42,3.74v14.19c0,2.41.91,3.35,1.46,3.69.44.3,1.13.43,2.21.43h8.85v-7.66h-7.96v-7.25h15.55v22.17h-.01v-.02Z"/>
    </g>
  </g>
</svg>